M48
METRIC,LZ,000.000
;FILE_FORMAT=3:3
;TYPE=PLATED
;Layer: Drill PTH
;EasyEDA v6.4.19.5, 2021-05-18T22:58:39--5:00
;66efe2adf43246afbf7e92f2808a4bb2,00a5ad12733442db97615573759eb5db,10
;Gerber Generator version 0.2
;Holesize 1 = 0.305 mm
T01C0.305
;Holesize 2 = 0.712 mm
T02C0.712
;Holesize 3 = 0.889 mm
T03C0.889
;Holesize 4 = 0.900 mm
T04C0.900
;Holesize 5 = 0.915 mm
T05C0.915
;Holesize 6 = 1.000 mm
T06C1.000
;Holesize 7 = 1.101 mm
T07C1.101
;Holesize 8 = 1.200 mm
T08C1.200
%
G05
G90
T01
X018796Y016002
X039370Y021590
T02
X021971Y019431
X024511Y019431
T03
X045339Y019939
X045339Y017399
X045339Y014859
X045339Y012319
X045339Y009779
X022733Y005080
X020193Y005080
X017653Y005080
X034671Y005207
X032131Y005207
X029591Y005207
X009144Y034544
X009144Y032004
X009144Y029464
T04
X036449Y011684
X026289Y011684
X038862Y015494
X038862Y005334
X033782Y026162
X043942Y026162
X033909Y029972
X044069Y029972
X033782Y033909
X043942Y033909
X016510Y017780
X016510Y027940
X020193Y035306
X030353Y035306
T05
X006985Y023368
X009525Y023368
T06
X029083Y031877
X029083Y029337
X029083Y026797
X029083Y024257
X021463Y024257
X021463Y026797
X021463Y029337
X021463Y031875
T07
X009144Y006477
X009144Y009017
T08
X009144Y018415
X009144Y015875
X009144Y013335
M30
