G04 Layer: TopSilkLayer*
G04 EasyEDA v6.4.19.5, 2021-05-18T22:58:39--5:00*
G04 66efe2adf43246afbf7e92f2808a4bb2,00a5ad12733442db97615573759eb5db,10*
G04 Gerber Generator version 0.2*
G04 Scale: 100 percent, Rotated: No, Reflected: No *
G04 Dimensions in millimeters *
G04 leading zeros omitted , absolute positions ,4 integer and 5 decimal *
%FSLAX45Y45*%
%MOMM*%

%ADD10C,0.2540*%
%ADD20C,0.2032*%
%ADD21C,0.2030*%
%ADD22C,0.2007*%
%ADD23C,0.1524*%

%LPD*%
G36*
X1197102Y3008884D02*
G01*
X1191260Y3008680D01*
X1185621Y3008020D01*
X1180185Y3006953D01*
X1174953Y3005480D01*
X1169924Y3003550D01*
X1165148Y3001264D01*
X1160576Y2998622D01*
X1156309Y2995523D01*
X1152296Y2992120D01*
X1148537Y2988310D01*
X1145133Y2984144D01*
X1141984Y2979623D01*
X1139190Y2974797D01*
X1136700Y2969615D01*
X1134567Y2964078D01*
X1132789Y2958287D01*
X1131366Y2952140D01*
X1130350Y2945688D01*
X1129741Y2938932D01*
X1129538Y2931922D01*
X1129741Y2924810D01*
X1130350Y2918053D01*
X1131316Y2911551D01*
X1132687Y2905404D01*
X1134414Y2899562D01*
X1136497Y2894025D01*
X1138936Y2888843D01*
X1141679Y2883966D01*
X1144727Y2879496D01*
X1148130Y2875330D01*
X1151788Y2871571D01*
X1155700Y2868168D01*
X1159916Y2865120D01*
X1164386Y2862478D01*
X1169060Y2860192D01*
X1174038Y2858312D01*
X1179169Y2856890D01*
X1184554Y2855823D01*
X1190091Y2855163D01*
X1195832Y2854960D01*
X1203096Y2855264D01*
X1209954Y2856230D01*
X1216456Y2857754D01*
X1222451Y2859735D01*
X1227988Y2862224D01*
X1233017Y2865120D01*
X1237437Y2868422D01*
X1241298Y2871978D01*
X1241298Y2933700D01*
X1193292Y2933700D01*
X1193292Y2919730D01*
X1225804Y2919730D01*
X1225804Y2879090D01*
X1220368Y2875178D01*
X1213459Y2872181D01*
X1205636Y2870352D01*
X1197356Y2869692D01*
X1191463Y2869996D01*
X1185926Y2870809D01*
X1180693Y2872181D01*
X1175867Y2874060D01*
X1171346Y2876448D01*
X1167180Y2879344D01*
X1163421Y2882696D01*
X1159967Y2886557D01*
X1156970Y2890824D01*
X1154277Y2895549D01*
X1152042Y2900680D01*
X1150162Y2906217D01*
X1148689Y2912160D01*
X1147673Y2918460D01*
X1147013Y2925165D01*
X1146810Y2932176D01*
X1147064Y2939186D01*
X1147724Y2945841D01*
X1148842Y2952140D01*
X1150366Y2958033D01*
X1152347Y2963570D01*
X1154684Y2968650D01*
X1157427Y2973324D01*
X1160576Y2977540D01*
X1164031Y2981350D01*
X1167841Y2984652D01*
X1172006Y2987497D01*
X1176477Y2989884D01*
X1181303Y2991713D01*
X1186383Y2993085D01*
X1191717Y2993898D01*
X1197356Y2994152D01*
X1207973Y2993034D01*
X1216761Y2989986D01*
X1224076Y2985465D01*
X1230122Y2979928D01*
X1239520Y2990850D01*
X1236065Y2994101D01*
X1232154Y2997301D01*
X1227734Y3000349D01*
X1222806Y3003092D01*
X1217269Y3005429D01*
X1211173Y3007258D01*
X1204468Y3008477D01*
G37*
G36*
X1423162Y3006344D02*
G01*
X1423162Y2992374D01*
X1458468Y2992374D01*
X1465021Y2992120D01*
X1471117Y2991358D01*
X1476806Y2990088D01*
X1482039Y2988360D01*
X1486865Y2986125D01*
X1491284Y2983433D01*
X1495247Y2980283D01*
X1498803Y2976676D01*
X1501902Y2972612D01*
X1504594Y2968142D01*
X1506880Y2963214D01*
X1508760Y2957880D01*
X1510182Y2952089D01*
X1511249Y2945942D01*
X1511858Y2939389D01*
X1512062Y2932430D01*
X1511858Y2925521D01*
X1511249Y2918917D01*
X1510182Y2912719D01*
X1508760Y2906877D01*
X1506880Y2901442D01*
X1504594Y2896412D01*
X1501902Y2891790D01*
X1498803Y2887624D01*
X1495247Y2883865D01*
X1491284Y2880614D01*
X1486865Y2877769D01*
X1482039Y2875483D01*
X1476806Y2873603D01*
X1471117Y2872282D01*
X1465021Y2871470D01*
X1458468Y2871216D01*
X1440180Y2871216D01*
X1440180Y2992374D01*
X1423162Y2992374D01*
X1423162Y2857500D01*
X1460500Y2857500D01*
X1467104Y2857703D01*
X1473352Y2858312D01*
X1479296Y2859379D01*
X1484934Y2860802D01*
X1490218Y2862630D01*
X1495196Y2864866D01*
X1499819Y2867456D01*
X1504137Y2870403D01*
X1508150Y2873756D01*
X1511757Y2877464D01*
X1515059Y2881477D01*
X1518056Y2885846D01*
X1520698Y2890570D01*
X1522984Y2895650D01*
X1524914Y2900984D01*
X1526489Y2906674D01*
X1527708Y2912668D01*
X1528622Y2918968D01*
X1529130Y2925572D01*
X1529334Y2932430D01*
X1529130Y2939288D01*
X1528622Y2945841D01*
X1527708Y2952140D01*
X1526489Y2958084D01*
X1524863Y2963672D01*
X1522933Y2969006D01*
X1520647Y2973984D01*
X1518005Y2978658D01*
X1515008Y2982925D01*
X1511706Y2986938D01*
X1507998Y2990545D01*
X1503984Y2993796D01*
X1499616Y2996692D01*
X1494942Y2999232D01*
X1489913Y3001365D01*
X1484528Y3003143D01*
X1478838Y3004515D01*
X1472793Y3005531D01*
X1466443Y3006140D01*
X1459738Y3006344D01*
G37*
G36*
X1277366Y3006344D02*
G01*
X1277366Y2857500D01*
X1293114Y2857500D01*
X1293063Y2944825D01*
X1292402Y2961944D01*
X1291082Y2984246D01*
X1292098Y2984246D01*
X1308354Y2953766D01*
X1364234Y2857500D01*
X1381760Y2857500D01*
X1381760Y3006344D01*
X1365758Y3006344D01*
X1365808Y2920085D01*
X1366875Y2896616D01*
X1368044Y2879344D01*
X1367028Y2879344D01*
X1350772Y2909824D01*
X1294638Y3006344D01*
G37*
G36*
X1092708Y3260344D02*
G01*
X1140460Y3111500D01*
X1159764Y3111500D01*
X1207262Y3260344D01*
X1190244Y3260344D01*
X1152702Y3135426D01*
X1150620Y3129026D01*
X1149858Y3129026D01*
X1142441Y3153511D01*
X1135380Y3178048D01*
X1110234Y3260344D01*
G37*
G36*
X1256284Y3236976D02*
G01*
X1256284Y3192526D01*
X1215136Y3192526D01*
X1215136Y3180080D01*
X1256284Y3180080D01*
X1256284Y3135376D01*
X1270000Y3135376D01*
X1270000Y3180080D01*
X1311148Y3180080D01*
X1311148Y3192526D01*
X1270000Y3192526D01*
X1270000Y3236976D01*
G37*
G36*
X1375664Y3516884D02*
G01*
X1369872Y3516680D01*
X1364284Y3516020D01*
X1358849Y3514953D01*
X1353616Y3513480D01*
X1348587Y3511550D01*
X1343812Y3509264D01*
X1339291Y3506622D01*
X1334973Y3503523D01*
X1330960Y3500120D01*
X1327200Y3496310D01*
X1323746Y3492144D01*
X1320596Y3487623D01*
X1317802Y3482797D01*
X1315313Y3477615D01*
X1313180Y3472078D01*
X1311351Y3466287D01*
X1309979Y3460140D01*
X1308912Y3453688D01*
X1308303Y3446932D01*
X1308100Y3439922D01*
X1308303Y3432810D01*
X1308912Y3426053D01*
X1309878Y3419551D01*
X1311249Y3413404D01*
X1312976Y3407562D01*
X1315059Y3402025D01*
X1317498Y3396843D01*
X1320241Y3391966D01*
X1323289Y3387496D01*
X1326692Y3383330D01*
X1330350Y3379571D01*
X1334262Y3376168D01*
X1338478Y3373120D01*
X1342948Y3370478D01*
X1347622Y3368192D01*
X1352600Y3366312D01*
X1357731Y3364890D01*
X1363116Y3363823D01*
X1368653Y3363163D01*
X1374394Y3362960D01*
X1381709Y3363264D01*
X1388618Y3364229D01*
X1395120Y3365754D01*
X1401114Y3367735D01*
X1406652Y3370224D01*
X1411630Y3373120D01*
X1416050Y3376422D01*
X1419860Y3379978D01*
X1419860Y3441700D01*
X1372108Y3441700D01*
X1372108Y3427729D01*
X1404366Y3427729D01*
X1404366Y3387090D01*
X1398981Y3383178D01*
X1392174Y3380181D01*
X1384452Y3378352D01*
X1376172Y3377692D01*
X1370228Y3377996D01*
X1364640Y3378809D01*
X1359408Y3380181D01*
X1354531Y3382060D01*
X1349959Y3384448D01*
X1345793Y3387344D01*
X1341983Y3390696D01*
X1338580Y3394557D01*
X1335532Y3398824D01*
X1332890Y3403549D01*
X1330604Y3408679D01*
X1328724Y3414217D01*
X1327251Y3420160D01*
X1326235Y3426460D01*
X1325575Y3433165D01*
X1325372Y3440176D01*
X1325626Y3447186D01*
X1326286Y3453841D01*
X1327404Y3460140D01*
X1328928Y3466033D01*
X1330909Y3471570D01*
X1333296Y3476650D01*
X1336040Y3481324D01*
X1339138Y3485540D01*
X1342644Y3489350D01*
X1346504Y3492652D01*
X1350670Y3495497D01*
X1355140Y3497884D01*
X1359966Y3499713D01*
X1365097Y3501085D01*
X1370482Y3501898D01*
X1376172Y3502151D01*
X1386636Y3501034D01*
X1395374Y3497986D01*
X1402638Y3493465D01*
X1408684Y3487928D01*
X1418082Y3498850D01*
X1414678Y3502101D01*
X1410817Y3505301D01*
X1406398Y3508349D01*
X1401419Y3511092D01*
X1395933Y3513429D01*
X1389786Y3515258D01*
X1383030Y3516477D01*
G37*
G36*
X1180592Y3516884D02*
G01*
X1174140Y3516528D01*
X1167993Y3515563D01*
X1162253Y3513988D01*
X1156919Y3511854D01*
X1152042Y3509111D01*
X1147673Y3505911D01*
X1143863Y3502253D01*
X1140663Y3498138D01*
X1138072Y3493617D01*
X1136192Y3488740D01*
X1135024Y3483559D01*
X1134618Y3478022D01*
X1135329Y3470452D01*
X1137412Y3463848D01*
X1140561Y3458159D01*
X1144574Y3453282D01*
X1149248Y3449116D01*
X1154328Y3445611D01*
X1159611Y3442665D01*
X1164844Y3440176D01*
X1191615Y3428441D01*
X1196390Y3426053D01*
X1200708Y3423513D01*
X1204468Y3420668D01*
X1207566Y3417366D01*
X1209852Y3413506D01*
X1211326Y3408883D01*
X1211834Y3403346D01*
X1211275Y3397859D01*
X1209548Y3392932D01*
X1206804Y3388512D01*
X1203045Y3384804D01*
X1198372Y3381806D01*
X1192784Y3379571D01*
X1186332Y3378149D01*
X1179068Y3377692D01*
X1173226Y3378047D01*
X1167434Y3379012D01*
X1161846Y3380638D01*
X1156411Y3382822D01*
X1151229Y3385515D01*
X1146302Y3388715D01*
X1141679Y3392424D01*
X1137412Y3396487D01*
X1127252Y3385058D01*
X1132332Y3380181D01*
X1137818Y3375812D01*
X1143711Y3372053D01*
X1150010Y3368852D01*
X1156716Y3366312D01*
X1163777Y3364484D01*
X1171244Y3363366D01*
X1179068Y3362960D01*
X1186434Y3363315D01*
X1193342Y3364433D01*
X1199692Y3366160D01*
X1205534Y3368548D01*
X1210767Y3371545D01*
X1215390Y3375050D01*
X1219403Y3379012D01*
X1222705Y3383432D01*
X1225346Y3388258D01*
X1227277Y3393440D01*
X1228445Y3398875D01*
X1228852Y3404615D01*
X1228242Y3412337D01*
X1226464Y3419094D01*
X1223619Y3424936D01*
X1219860Y3429965D01*
X1215339Y3434283D01*
X1210106Y3438042D01*
X1204315Y3441344D01*
X1198118Y3444240D01*
X1172159Y3455314D01*
X1163624Y3459784D01*
X1159814Y3462528D01*
X1156512Y3465728D01*
X1153922Y3469538D01*
X1152245Y3474008D01*
X1151636Y3479292D01*
X1152194Y3484270D01*
X1153718Y3488740D01*
X1156258Y3492652D01*
X1159662Y3495954D01*
X1163828Y3498596D01*
X1168806Y3500526D01*
X1174394Y3501745D01*
X1180592Y3502151D01*
X1185773Y3501898D01*
X1190650Y3501136D01*
X1195273Y3499916D01*
X1199642Y3498291D01*
X1203756Y3496208D01*
X1207668Y3493770D01*
X1211376Y3491026D01*
X1214882Y3487928D01*
X1223772Y3498596D01*
X1219708Y3502456D01*
X1215237Y3505962D01*
X1210310Y3509060D01*
X1205026Y3511753D01*
X1199388Y3513886D01*
X1193393Y3515512D01*
X1187145Y3516528D01*
G37*
G36*
X1258570Y3514344D02*
G01*
X1258570Y3365500D01*
X1275588Y3365500D01*
X1275588Y3514344D01*
G37*
G36*
X1197102Y722884D02*
G01*
X1191260Y722680D01*
X1185621Y722020D01*
X1180185Y720953D01*
X1174953Y719480D01*
X1169924Y717550D01*
X1165148Y715264D01*
X1160576Y712622D01*
X1156309Y709523D01*
X1152296Y706120D01*
X1148537Y702310D01*
X1145133Y698144D01*
X1141984Y693623D01*
X1139190Y688797D01*
X1136700Y683615D01*
X1134567Y678078D01*
X1132789Y672287D01*
X1131366Y666140D01*
X1130350Y659688D01*
X1129741Y652932D01*
X1129538Y645922D01*
X1129741Y638810D01*
X1130350Y632053D01*
X1131316Y625551D01*
X1132687Y619404D01*
X1134414Y613562D01*
X1136497Y608025D01*
X1138936Y602843D01*
X1141679Y597966D01*
X1144727Y593496D01*
X1148130Y589330D01*
X1151788Y585571D01*
X1155700Y582168D01*
X1159916Y579120D01*
X1164386Y576478D01*
X1169060Y574192D01*
X1174038Y572312D01*
X1179169Y570890D01*
X1184554Y569823D01*
X1190091Y569163D01*
X1195832Y568960D01*
X1203096Y569264D01*
X1209954Y570230D01*
X1216456Y571754D01*
X1222451Y573735D01*
X1227988Y576224D01*
X1233017Y579120D01*
X1237437Y582422D01*
X1241298Y585978D01*
X1241298Y647700D01*
X1193292Y647700D01*
X1193292Y633730D01*
X1225804Y633730D01*
X1225804Y593090D01*
X1220368Y589178D01*
X1213459Y586181D01*
X1205636Y584352D01*
X1197356Y583692D01*
X1191463Y583996D01*
X1185926Y584809D01*
X1180693Y586181D01*
X1175867Y588060D01*
X1171346Y590448D01*
X1167180Y593344D01*
X1163421Y596696D01*
X1159967Y600557D01*
X1156970Y604824D01*
X1154277Y609549D01*
X1152042Y614680D01*
X1150162Y620217D01*
X1148689Y626160D01*
X1147673Y632460D01*
X1147013Y639165D01*
X1146810Y646176D01*
X1147064Y653186D01*
X1147724Y659841D01*
X1148842Y666140D01*
X1150366Y672033D01*
X1152347Y677570D01*
X1154684Y682650D01*
X1157427Y687324D01*
X1160576Y691540D01*
X1164031Y695350D01*
X1167841Y698652D01*
X1172006Y701497D01*
X1176477Y703884D01*
X1181303Y705713D01*
X1186383Y707085D01*
X1191717Y707898D01*
X1197356Y708152D01*
X1207973Y707034D01*
X1216761Y703986D01*
X1224076Y699465D01*
X1230122Y693928D01*
X1239520Y704850D01*
X1236065Y708101D01*
X1232154Y711301D01*
X1227734Y714349D01*
X1222806Y717092D01*
X1217269Y719429D01*
X1211173Y721258D01*
X1204468Y722477D01*
G37*
G36*
X1423162Y720344D02*
G01*
X1423162Y706374D01*
X1458468Y706374D01*
X1465021Y706120D01*
X1471117Y705358D01*
X1476806Y704088D01*
X1482039Y702360D01*
X1486865Y700125D01*
X1491284Y697433D01*
X1495247Y694283D01*
X1498803Y690676D01*
X1501902Y686612D01*
X1504594Y682142D01*
X1506880Y677214D01*
X1508760Y671880D01*
X1510182Y666089D01*
X1511249Y659942D01*
X1511858Y653389D01*
X1512062Y646430D01*
X1511858Y639521D01*
X1511249Y632917D01*
X1510182Y626719D01*
X1508760Y620877D01*
X1506880Y615442D01*
X1504594Y610412D01*
X1501902Y605790D01*
X1498803Y601624D01*
X1495247Y597865D01*
X1491284Y594614D01*
X1486865Y591769D01*
X1482039Y589483D01*
X1476806Y587603D01*
X1471117Y586282D01*
X1465021Y585470D01*
X1458468Y585216D01*
X1440180Y585216D01*
X1440180Y706374D01*
X1423162Y706374D01*
X1423162Y571500D01*
X1460500Y571500D01*
X1467104Y571703D01*
X1473352Y572312D01*
X1479296Y573379D01*
X1484934Y574802D01*
X1490218Y576630D01*
X1495196Y578866D01*
X1499819Y581456D01*
X1504137Y584403D01*
X1508150Y587756D01*
X1511757Y591464D01*
X1515059Y595477D01*
X1518056Y599846D01*
X1520698Y604570D01*
X1522984Y609650D01*
X1524914Y614984D01*
X1526489Y620674D01*
X1527708Y626668D01*
X1528622Y632968D01*
X1529130Y639572D01*
X1529334Y646430D01*
X1529130Y653288D01*
X1528622Y659841D01*
X1527708Y666140D01*
X1526489Y672084D01*
X1524863Y677672D01*
X1522933Y683006D01*
X1520647Y687984D01*
X1518005Y692658D01*
X1515008Y696925D01*
X1511706Y700938D01*
X1507998Y704545D01*
X1503984Y707796D01*
X1499616Y710692D01*
X1494942Y713232D01*
X1489913Y715365D01*
X1484528Y717143D01*
X1478838Y718515D01*
X1472793Y719531D01*
X1466443Y720140D01*
X1459738Y720344D01*
G37*
G36*
X1277366Y720344D02*
G01*
X1277366Y571500D01*
X1293114Y571500D01*
X1293063Y658825D01*
X1292402Y675944D01*
X1291082Y698246D01*
X1292098Y698246D01*
X1308354Y667766D01*
X1364234Y571500D01*
X1381760Y571500D01*
X1381760Y720344D01*
X1365758Y720344D01*
X1365808Y634085D01*
X1366875Y610616D01*
X1368044Y593344D01*
X1367028Y593344D01*
X1350772Y623824D01*
X1294638Y720344D01*
G37*
G36*
X1092708Y974344D02*
G01*
X1140460Y825500D01*
X1159764Y825500D01*
X1207262Y974344D01*
X1190244Y974344D01*
X1152702Y849426D01*
X1150620Y843026D01*
X1149858Y843026D01*
X1142441Y867511D01*
X1135380Y892048D01*
X1110234Y974344D01*
G37*
G36*
X1256284Y950976D02*
G01*
X1256284Y906526D01*
X1215136Y906526D01*
X1215136Y894080D01*
X1256284Y894080D01*
X1256284Y849376D01*
X1270000Y849376D01*
X1270000Y894080D01*
X1311148Y894080D01*
X1311148Y906526D01*
X1270000Y906526D01*
X1270000Y950976D01*
G37*
G36*
X1930907Y834644D02*
G01*
X1978660Y685800D01*
X1997964Y685800D01*
X2045462Y834644D01*
X2028443Y834644D01*
X1990902Y709726D01*
X1988820Y703326D01*
X1988057Y703326D01*
X1980641Y727811D01*
X1973580Y752348D01*
X1948434Y834644D01*
G37*
G36*
X2094484Y811276D02*
G01*
X2094484Y766826D01*
X2053336Y766826D01*
X2053336Y754380D01*
X2094484Y754380D01*
X2094484Y709676D01*
X2108200Y709676D01*
X2108200Y754380D01*
X2149348Y754380D01*
X2149348Y766826D01*
X2108200Y766826D01*
X2108200Y811276D01*
G37*
G36*
X3137408Y834644D02*
G01*
X3185160Y685800D01*
X3204464Y685800D01*
X3251962Y834644D01*
X3234944Y834644D01*
X3197402Y709726D01*
X3195320Y703326D01*
X3194558Y703326D01*
X3187141Y727811D01*
X3180080Y752348D01*
X3154934Y834644D01*
G37*
G36*
X3300984Y811276D02*
G01*
X3300984Y766826D01*
X3259836Y766826D01*
X3259836Y754380D01*
X3300984Y754380D01*
X3300984Y709676D01*
X3314700Y709676D01*
X3314700Y754380D01*
X3355848Y754380D01*
X3355848Y766826D01*
X3314700Y766826D01*
X3314700Y811276D01*
G37*
G36*
X1766570Y1059434D02*
G01*
X1759712Y1059230D01*
X1753158Y1058722D01*
X1746859Y1057808D01*
X1740916Y1056589D01*
X1735328Y1054963D01*
X1729993Y1053033D01*
X1725015Y1050747D01*
X1720342Y1048105D01*
X1716074Y1045108D01*
X1712061Y1041806D01*
X1708454Y1038098D01*
X1705203Y1034084D01*
X1702307Y1029716D01*
X1699768Y1025042D01*
X1697634Y1020013D01*
X1695856Y1014628D01*
X1694484Y1008938D01*
X1693468Y1002893D01*
X1692859Y996543D01*
X1692656Y989837D01*
X1692656Y970280D01*
X1706625Y970280D01*
X1706625Y988568D01*
X1706880Y995121D01*
X1707642Y1001217D01*
X1708912Y1006906D01*
X1710639Y1012139D01*
X1712874Y1016965D01*
X1715566Y1021384D01*
X1718716Y1025347D01*
X1722323Y1028903D01*
X1726387Y1032002D01*
X1730857Y1034694D01*
X1735785Y1036980D01*
X1741119Y1038860D01*
X1746910Y1040282D01*
X1753057Y1041349D01*
X1759610Y1041958D01*
X1766570Y1042162D01*
X1773478Y1041958D01*
X1780082Y1041349D01*
X1786280Y1040282D01*
X1792122Y1038860D01*
X1797557Y1036980D01*
X1802587Y1034694D01*
X1807210Y1032002D01*
X1811375Y1028903D01*
X1815134Y1025347D01*
X1818386Y1021384D01*
X1821230Y1016965D01*
X1823516Y1012139D01*
X1825396Y1006906D01*
X1826717Y1001217D01*
X1827530Y995121D01*
X1827784Y988568D01*
X1827784Y970280D01*
X1692656Y970280D01*
X1692656Y953262D01*
X1841500Y953262D01*
X1841500Y990600D01*
X1841296Y997203D01*
X1840687Y1003452D01*
X1839620Y1009396D01*
X1838198Y1015034D01*
X1836369Y1020318D01*
X1834134Y1025296D01*
X1831543Y1029919D01*
X1828596Y1034237D01*
X1825243Y1038250D01*
X1821535Y1041857D01*
X1817522Y1045159D01*
X1813153Y1048156D01*
X1808429Y1050798D01*
X1803349Y1053084D01*
X1798015Y1055014D01*
X1792325Y1056589D01*
X1786331Y1057808D01*
X1780032Y1058722D01*
X1773428Y1059230D01*
G37*
G36*
X1692656Y911860D02*
G01*
X1692656Y895858D01*
X1778914Y895908D01*
X1802384Y896975D01*
X1819656Y898144D01*
X1819656Y897128D01*
X1789175Y880871D01*
X1692656Y824737D01*
X1692656Y807466D01*
X1841500Y807466D01*
X1841500Y823214D01*
X1754174Y823163D01*
X1737055Y822502D01*
X1714754Y821182D01*
X1714754Y822198D01*
X1745234Y838453D01*
X1841500Y894334D01*
X1841500Y911860D01*
G37*
G36*
X1765300Y771398D02*
G01*
X1765300Y723392D01*
X1779270Y723392D01*
X1779270Y755904D01*
X1819910Y755904D01*
X1823821Y750468D01*
X1826818Y743559D01*
X1828647Y735736D01*
X1829307Y727456D01*
X1829003Y721563D01*
X1828190Y716026D01*
X1826818Y710793D01*
X1824939Y705967D01*
X1822551Y701446D01*
X1819656Y697280D01*
X1816303Y693521D01*
X1812442Y690067D01*
X1808175Y687070D01*
X1803450Y684377D01*
X1798320Y682142D01*
X1792782Y680262D01*
X1786839Y678789D01*
X1780539Y677773D01*
X1773834Y677113D01*
X1766824Y676910D01*
X1759813Y677164D01*
X1753158Y677824D01*
X1746859Y678942D01*
X1740966Y680466D01*
X1735429Y682447D01*
X1730349Y684784D01*
X1725675Y687527D01*
X1721459Y690676D01*
X1717649Y694131D01*
X1714347Y697941D01*
X1711502Y702106D01*
X1709115Y706577D01*
X1707286Y711403D01*
X1705914Y716483D01*
X1705102Y721817D01*
X1704848Y727456D01*
X1705965Y738073D01*
X1709013Y746861D01*
X1713534Y754176D01*
X1719072Y760222D01*
X1708150Y769620D01*
X1704898Y766165D01*
X1701698Y762254D01*
X1698650Y757834D01*
X1695907Y752906D01*
X1693570Y747369D01*
X1691741Y741273D01*
X1690522Y734568D01*
X1690116Y727202D01*
X1690319Y721360D01*
X1690979Y715721D01*
X1692046Y710285D01*
X1693519Y705053D01*
X1695450Y700024D01*
X1697736Y695248D01*
X1700377Y690676D01*
X1703476Y686409D01*
X1706880Y682396D01*
X1710689Y678637D01*
X1714855Y675233D01*
X1719376Y672084D01*
X1724202Y669290D01*
X1729384Y666800D01*
X1734921Y664667D01*
X1740712Y662889D01*
X1746859Y661466D01*
X1753311Y660450D01*
X1760067Y659841D01*
X1767078Y659638D01*
X1774189Y659841D01*
X1780946Y660450D01*
X1787448Y661416D01*
X1793595Y662787D01*
X1799437Y664514D01*
X1804974Y666597D01*
X1810156Y669036D01*
X1815033Y671779D01*
X1819503Y674827D01*
X1823669Y678230D01*
X1827428Y681888D01*
X1830832Y685800D01*
X1833880Y690016D01*
X1836521Y694486D01*
X1838807Y699160D01*
X1840687Y704138D01*
X1842109Y709269D01*
X1843176Y714654D01*
X1843836Y720191D01*
X1844039Y725932D01*
X1843735Y733196D01*
X1842770Y740054D01*
X1841246Y746556D01*
X1839264Y752551D01*
X1836775Y758088D01*
X1833880Y763117D01*
X1830578Y767537D01*
X1827022Y771398D01*
G37*
G36*
X2934970Y1084834D02*
G01*
X2928112Y1084630D01*
X2921558Y1084122D01*
X2915259Y1083208D01*
X2909316Y1081989D01*
X2903728Y1080363D01*
X2898394Y1078433D01*
X2893415Y1076147D01*
X2888742Y1073505D01*
X2884474Y1070508D01*
X2880512Y1067206D01*
X2876854Y1063498D01*
X2873603Y1059484D01*
X2870708Y1055116D01*
X2868168Y1050442D01*
X2866034Y1045413D01*
X2864256Y1040028D01*
X2862884Y1034338D01*
X2861868Y1028293D01*
X2861259Y1021943D01*
X2861056Y1015237D01*
X2861056Y995680D01*
X2875026Y995680D01*
X2875026Y1013968D01*
X2875280Y1020521D01*
X2876042Y1026617D01*
X2877312Y1032306D01*
X2879039Y1037539D01*
X2881274Y1042365D01*
X2883966Y1046784D01*
X2887116Y1050747D01*
X2890723Y1054303D01*
X2894787Y1057402D01*
X2899257Y1060094D01*
X2904185Y1062380D01*
X2909519Y1064260D01*
X2915310Y1065682D01*
X2921457Y1066749D01*
X2928010Y1067358D01*
X2934970Y1067562D01*
X2941878Y1067358D01*
X2948482Y1066749D01*
X2954680Y1065682D01*
X2960522Y1064260D01*
X2965958Y1062380D01*
X2970987Y1060094D01*
X2975610Y1057402D01*
X2979775Y1054303D01*
X2983534Y1050747D01*
X2986786Y1046784D01*
X2989630Y1042365D01*
X2991916Y1037539D01*
X2993796Y1032306D01*
X2995117Y1026617D01*
X2995930Y1020521D01*
X2996184Y1013968D01*
X2996184Y995680D01*
X2861056Y995680D01*
X2861056Y978662D01*
X3009900Y978662D01*
X3009900Y1016000D01*
X3009696Y1022603D01*
X3009087Y1028852D01*
X3008020Y1034796D01*
X3006598Y1040434D01*
X3004769Y1045718D01*
X3002534Y1050696D01*
X2999943Y1055319D01*
X2996996Y1059637D01*
X2993644Y1063650D01*
X2989986Y1067257D01*
X2985922Y1070559D01*
X2981553Y1073556D01*
X2976829Y1076198D01*
X2971749Y1078484D01*
X2966415Y1080414D01*
X2960725Y1081989D01*
X2954731Y1083208D01*
X2948432Y1084122D01*
X2941828Y1084630D01*
G37*
G36*
X2861056Y937260D02*
G01*
X2861056Y921258D01*
X2947314Y921308D01*
X2970784Y922375D01*
X2988056Y923544D01*
X2988056Y922528D01*
X2957576Y906271D01*
X2861056Y850137D01*
X2861056Y832866D01*
X3009900Y832866D01*
X3009900Y848614D01*
X2922574Y848563D01*
X2905455Y847902D01*
X2883154Y846582D01*
X2883154Y847598D01*
X2913634Y863853D01*
X3009900Y919734D01*
X3009900Y937260D01*
G37*
G36*
X2933700Y796798D02*
G01*
X2933700Y748792D01*
X2947670Y748792D01*
X2947670Y781304D01*
X2988310Y781304D01*
X2992221Y775868D01*
X2995218Y768959D01*
X2997047Y761136D01*
X2997708Y752856D01*
X2997403Y746963D01*
X2996590Y741426D01*
X2995218Y736193D01*
X2993339Y731367D01*
X2990951Y726846D01*
X2988056Y722680D01*
X2984703Y718921D01*
X2980842Y715467D01*
X2976575Y712470D01*
X2971850Y709777D01*
X2966720Y707542D01*
X2961182Y705662D01*
X2955239Y704189D01*
X2948940Y703173D01*
X2942234Y702513D01*
X2935224Y702310D01*
X2928213Y702564D01*
X2921558Y703224D01*
X2915259Y704342D01*
X2909366Y705866D01*
X2903829Y707847D01*
X2898749Y710184D01*
X2894076Y712927D01*
X2889859Y716076D01*
X2886049Y719531D01*
X2882747Y723341D01*
X2879902Y727506D01*
X2877515Y731977D01*
X2875686Y736803D01*
X2874314Y741883D01*
X2873502Y747217D01*
X2873248Y752856D01*
X2874365Y763473D01*
X2877413Y772261D01*
X2881934Y779576D01*
X2887472Y785622D01*
X2876550Y795020D01*
X2873298Y791565D01*
X2870098Y787654D01*
X2867050Y783234D01*
X2864307Y778306D01*
X2861970Y772769D01*
X2860141Y766673D01*
X2858922Y759968D01*
X2858516Y752602D01*
X2858719Y746760D01*
X2859379Y741121D01*
X2860446Y735685D01*
X2861919Y730453D01*
X2863850Y725424D01*
X2866136Y720648D01*
X2868777Y716076D01*
X2871876Y711809D01*
X2875280Y707796D01*
X2879090Y704037D01*
X2883255Y700633D01*
X2887776Y697484D01*
X2892602Y694690D01*
X2897784Y692200D01*
X2903321Y690067D01*
X2909112Y688289D01*
X2915259Y686866D01*
X2921711Y685850D01*
X2928467Y685241D01*
X2935478Y685038D01*
X2942590Y685241D01*
X2949346Y685850D01*
X2955848Y686816D01*
X2961995Y688187D01*
X2967837Y689914D01*
X2973374Y691997D01*
X2978556Y694436D01*
X2983433Y697179D01*
X2987903Y700227D01*
X2992069Y703630D01*
X2995828Y707288D01*
X2999232Y711200D01*
X3002280Y715416D01*
X3004921Y719886D01*
X3007207Y724560D01*
X3009087Y729538D01*
X3010509Y734669D01*
X3011576Y740054D01*
X3012236Y745591D01*
X3012440Y751332D01*
X3012135Y758596D01*
X3011170Y765454D01*
X3009646Y771956D01*
X3007664Y777951D01*
X3005175Y783488D01*
X3002280Y788517D01*
X2998978Y792937D01*
X2995422Y796798D01*
G37*
G36*
X3479800Y975360D02*
G01*
X3479800Y927608D01*
X3493770Y927608D01*
X3493770Y959866D01*
X3534410Y959866D01*
X3538321Y954481D01*
X3541318Y947674D01*
X3543147Y939952D01*
X3543808Y931671D01*
X3543503Y925728D01*
X3542690Y920140D01*
X3541318Y914908D01*
X3539439Y910031D01*
X3537051Y905459D01*
X3534156Y901293D01*
X3530803Y897483D01*
X3526942Y894080D01*
X3522675Y891032D01*
X3517950Y888390D01*
X3512820Y886104D01*
X3507282Y884224D01*
X3501339Y882751D01*
X3495040Y881735D01*
X3488334Y881075D01*
X3481324Y880871D01*
X3474313Y881126D01*
X3467658Y881786D01*
X3461359Y882903D01*
X3455466Y884428D01*
X3449929Y886409D01*
X3444849Y888796D01*
X3440176Y891540D01*
X3435959Y894638D01*
X3432149Y898144D01*
X3428847Y902004D01*
X3426002Y906170D01*
X3423615Y910640D01*
X3421786Y915466D01*
X3420414Y920597D01*
X3419601Y925982D01*
X3419348Y931671D01*
X3420465Y942136D01*
X3423513Y950874D01*
X3428034Y958138D01*
X3433572Y964184D01*
X3422650Y973582D01*
X3419398Y970178D01*
X3416198Y966317D01*
X3413150Y961898D01*
X3410407Y956919D01*
X3408070Y951433D01*
X3406241Y945286D01*
X3405022Y938530D01*
X3404615Y931164D01*
X3404819Y925372D01*
X3405479Y919784D01*
X3406546Y914349D01*
X3408019Y909116D01*
X3409950Y904087D01*
X3412236Y899312D01*
X3414877Y894791D01*
X3417976Y890473D01*
X3421379Y886460D01*
X3425190Y882700D01*
X3429355Y879246D01*
X3433876Y876096D01*
X3438702Y873302D01*
X3443884Y870813D01*
X3449421Y868680D01*
X3455212Y866851D01*
X3461359Y865479D01*
X3467811Y864412D01*
X3474567Y863803D01*
X3481578Y863600D01*
X3488690Y863803D01*
X3495446Y864412D01*
X3501948Y865378D01*
X3508095Y866749D01*
X3513937Y868476D01*
X3519474Y870559D01*
X3524656Y872998D01*
X3529533Y875741D01*
X3534003Y878789D01*
X3538169Y882192D01*
X3541928Y885850D01*
X3545332Y889762D01*
X3548379Y893978D01*
X3551021Y898448D01*
X3553307Y903122D01*
X3555187Y908100D01*
X3556609Y913231D01*
X3557676Y918616D01*
X3558336Y924153D01*
X3558540Y929894D01*
X3558235Y937209D01*
X3557270Y944118D01*
X3555746Y950620D01*
X3553764Y956614D01*
X3551275Y962152D01*
X3548379Y967130D01*
X3545078Y971550D01*
X3541522Y975360D01*
G37*
G36*
X3407156Y831087D02*
G01*
X3407156Y814069D01*
X3556000Y814069D01*
X3556000Y831087D01*
G37*
G36*
X3516884Y784352D02*
G01*
X3509162Y783742D01*
X3502406Y781964D01*
X3496564Y779119D01*
X3491534Y775360D01*
X3487216Y770839D01*
X3483457Y765606D01*
X3480155Y759815D01*
X3477260Y753618D01*
X3466185Y727659D01*
X3461715Y719124D01*
X3458972Y715314D01*
X3455771Y712012D01*
X3451961Y709422D01*
X3447491Y707745D01*
X3442208Y707136D01*
X3437229Y707694D01*
X3432759Y709218D01*
X3428847Y711758D01*
X3425545Y715162D01*
X3422904Y719328D01*
X3420973Y724306D01*
X3419754Y729894D01*
X3419348Y736092D01*
X3419601Y741273D01*
X3420364Y746150D01*
X3421583Y750773D01*
X3423208Y755142D01*
X3425291Y759256D01*
X3427729Y763168D01*
X3430473Y766876D01*
X3433572Y770382D01*
X3422904Y779272D01*
X3419043Y775208D01*
X3415537Y770737D01*
X3412439Y765810D01*
X3409746Y760526D01*
X3407613Y754888D01*
X3405987Y748893D01*
X3404971Y742645D01*
X3404615Y736092D01*
X3404971Y729640D01*
X3405936Y723493D01*
X3407511Y717753D01*
X3409645Y712419D01*
X3412388Y707542D01*
X3415588Y703173D01*
X3419246Y699363D01*
X3423361Y696163D01*
X3427882Y693572D01*
X3432759Y691692D01*
X3437940Y690524D01*
X3443478Y690118D01*
X3451047Y690829D01*
X3457651Y692912D01*
X3463340Y696061D01*
X3468217Y700074D01*
X3472383Y704748D01*
X3475888Y709828D01*
X3478834Y715111D01*
X3481324Y720344D01*
X3493058Y747115D01*
X3495446Y751890D01*
X3497986Y756208D01*
X3500831Y759968D01*
X3504133Y763066D01*
X3507994Y765352D01*
X3512616Y766826D01*
X3518154Y767334D01*
X3523640Y766775D01*
X3528568Y765048D01*
X3532987Y762304D01*
X3536696Y758545D01*
X3539693Y753872D01*
X3541928Y748284D01*
X3543350Y741832D01*
X3543808Y734568D01*
X3543452Y728726D01*
X3542487Y722934D01*
X3540861Y717346D01*
X3538677Y711911D01*
X3535984Y706729D01*
X3532784Y701802D01*
X3529076Y697179D01*
X3525012Y692912D01*
X3536442Y682752D01*
X3541318Y687832D01*
X3545687Y693318D01*
X3549446Y699211D01*
X3552647Y705510D01*
X3555187Y712216D01*
X3557015Y719277D01*
X3558133Y726744D01*
X3558540Y734568D01*
X3558184Y741934D01*
X3557066Y748842D01*
X3555339Y755192D01*
X3552951Y761034D01*
X3549954Y766267D01*
X3546500Y770890D01*
X3542487Y774903D01*
X3538067Y778205D01*
X3533241Y780846D01*
X3528060Y782777D01*
X3522624Y783945D01*
G37*
G36*
X2260600Y975360D02*
G01*
X2260600Y927608D01*
X2274570Y927608D01*
X2274570Y959866D01*
X2315210Y959866D01*
X2319121Y954481D01*
X2322118Y947674D01*
X2323947Y939952D01*
X2324608Y931671D01*
X2324303Y925728D01*
X2323490Y920140D01*
X2322118Y914908D01*
X2320239Y910031D01*
X2317851Y905459D01*
X2314956Y901293D01*
X2311603Y897483D01*
X2307742Y894080D01*
X2303475Y891032D01*
X2298750Y888390D01*
X2293620Y886104D01*
X2288082Y884224D01*
X2282139Y882751D01*
X2275840Y881735D01*
X2269134Y881075D01*
X2262124Y880871D01*
X2255113Y881126D01*
X2248458Y881786D01*
X2242159Y882903D01*
X2236266Y884428D01*
X2230729Y886409D01*
X2225649Y888796D01*
X2220976Y891540D01*
X2216759Y894638D01*
X2212949Y898144D01*
X2209647Y902004D01*
X2206802Y906170D01*
X2204415Y910640D01*
X2202586Y915466D01*
X2201214Y920597D01*
X2200402Y925982D01*
X2200148Y931671D01*
X2201265Y942136D01*
X2204313Y950874D01*
X2208834Y958138D01*
X2214372Y964184D01*
X2203450Y973582D01*
X2200198Y970178D01*
X2196998Y966317D01*
X2193950Y961898D01*
X2191207Y956919D01*
X2188870Y951433D01*
X2187041Y945286D01*
X2185822Y938530D01*
X2185416Y931164D01*
X2185619Y925372D01*
X2186279Y919784D01*
X2187346Y914349D01*
X2188819Y909116D01*
X2190750Y904087D01*
X2193036Y899312D01*
X2195677Y894791D01*
X2198776Y890473D01*
X2202180Y886460D01*
X2205990Y882700D01*
X2210155Y879246D01*
X2214676Y876096D01*
X2219502Y873302D01*
X2224684Y870813D01*
X2230221Y868680D01*
X2236012Y866851D01*
X2242159Y865479D01*
X2248611Y864412D01*
X2255367Y863803D01*
X2262378Y863600D01*
X2269490Y863803D01*
X2276246Y864412D01*
X2282748Y865378D01*
X2288895Y866749D01*
X2294737Y868476D01*
X2300274Y870559D01*
X2305456Y872998D01*
X2310333Y875741D01*
X2314803Y878789D01*
X2318969Y882192D01*
X2322728Y885850D01*
X2326132Y889762D01*
X2329180Y893978D01*
X2331821Y898448D01*
X2334107Y903122D01*
X2335987Y908100D01*
X2337409Y913231D01*
X2338476Y918616D01*
X2339136Y924153D01*
X2339340Y929894D01*
X2339035Y937209D01*
X2338070Y944118D01*
X2336546Y950620D01*
X2334564Y956614D01*
X2332075Y962152D01*
X2329180Y967130D01*
X2325878Y971550D01*
X2322322Y975360D01*
G37*
G36*
X2187956Y831087D02*
G01*
X2187956Y814069D01*
X2336800Y814069D01*
X2336800Y831087D01*
G37*
G36*
X2297684Y784352D02*
G01*
X2289962Y783742D01*
X2283206Y781964D01*
X2277364Y779119D01*
X2272334Y775360D01*
X2268016Y770839D01*
X2264257Y765606D01*
X2260955Y759815D01*
X2258060Y753618D01*
X2246985Y727659D01*
X2242515Y719124D01*
X2239772Y715314D01*
X2236571Y712012D01*
X2232761Y709422D01*
X2228291Y707745D01*
X2223008Y707136D01*
X2218029Y707694D01*
X2213559Y709218D01*
X2209647Y711758D01*
X2206345Y715162D01*
X2203704Y719328D01*
X2201773Y724306D01*
X2200554Y729894D01*
X2200148Y736092D01*
X2200402Y741273D01*
X2201164Y746150D01*
X2202383Y750773D01*
X2204008Y755142D01*
X2206091Y759256D01*
X2208530Y763168D01*
X2211273Y766876D01*
X2214372Y770382D01*
X2203704Y779272D01*
X2199843Y775208D01*
X2196338Y770737D01*
X2193239Y765810D01*
X2190546Y760526D01*
X2188413Y754888D01*
X2186787Y748893D01*
X2185771Y742645D01*
X2185416Y736092D01*
X2185771Y729640D01*
X2186736Y723493D01*
X2188311Y717753D01*
X2190445Y712419D01*
X2193188Y707542D01*
X2196388Y703173D01*
X2200046Y699363D01*
X2204161Y696163D01*
X2208682Y693572D01*
X2213559Y691692D01*
X2218740Y690524D01*
X2224278Y690118D01*
X2231847Y690829D01*
X2238451Y692912D01*
X2244140Y696061D01*
X2249017Y700074D01*
X2253183Y704748D01*
X2256688Y709828D01*
X2259634Y715111D01*
X2262124Y720344D01*
X2273858Y747115D01*
X2276246Y751890D01*
X2278786Y756208D01*
X2281631Y759968D01*
X2284933Y763066D01*
X2288794Y765352D01*
X2293416Y766826D01*
X2298954Y767334D01*
X2304440Y766775D01*
X2309368Y765048D01*
X2313787Y762304D01*
X2317496Y758545D01*
X2320493Y753872D01*
X2322728Y748284D01*
X2324150Y741832D01*
X2324608Y734568D01*
X2324252Y728726D01*
X2323287Y722934D01*
X2321661Y717346D01*
X2319477Y711911D01*
X2316784Y706729D01*
X2313584Y701802D01*
X2309876Y697179D01*
X2305812Y692912D01*
X2317242Y682752D01*
X2322118Y687832D01*
X2326487Y693318D01*
X2330246Y699211D01*
X2333447Y705510D01*
X2335987Y712216D01*
X2337816Y719277D01*
X2338933Y726744D01*
X2339340Y734568D01*
X2338984Y741934D01*
X2337866Y748842D01*
X2336139Y755192D01*
X2333752Y761034D01*
X2330754Y766267D01*
X2327300Y770890D01*
X2323287Y774903D01*
X2318867Y778205D01*
X2314041Y780846D01*
X2308860Y782777D01*
X2303424Y783945D01*
G37*
G36*
X4397502Y799084D02*
G01*
X4391660Y798880D01*
X4386021Y798220D01*
X4380585Y797153D01*
X4375353Y795680D01*
X4370324Y793750D01*
X4365548Y791464D01*
X4360976Y788822D01*
X4356709Y785723D01*
X4352696Y782320D01*
X4348937Y778510D01*
X4345533Y774344D01*
X4342384Y769823D01*
X4339590Y764997D01*
X4337100Y759815D01*
X4334967Y754278D01*
X4333189Y748487D01*
X4331766Y742340D01*
X4330750Y735888D01*
X4330141Y729132D01*
X4329938Y722122D01*
X4330141Y715010D01*
X4330750Y708253D01*
X4331716Y701751D01*
X4333087Y695604D01*
X4334814Y689762D01*
X4336897Y684225D01*
X4339336Y679043D01*
X4342079Y674166D01*
X4345127Y669696D01*
X4348530Y665530D01*
X4352188Y661771D01*
X4356100Y658368D01*
X4360316Y655320D01*
X4364786Y652678D01*
X4369460Y650392D01*
X4374438Y648512D01*
X4379569Y647090D01*
X4384954Y646023D01*
X4390491Y645363D01*
X4396232Y645160D01*
X4403496Y645464D01*
X4410354Y646430D01*
X4416856Y647954D01*
X4422851Y649935D01*
X4428388Y652424D01*
X4433417Y655320D01*
X4437837Y658622D01*
X4441698Y662178D01*
X4441698Y723900D01*
X4393692Y723900D01*
X4393692Y709930D01*
X4426204Y709930D01*
X4426204Y669290D01*
X4420768Y665378D01*
X4413859Y662381D01*
X4406036Y660552D01*
X4397756Y659892D01*
X4391863Y660196D01*
X4386326Y661009D01*
X4381093Y662381D01*
X4376267Y664260D01*
X4371746Y666648D01*
X4367580Y669544D01*
X4363821Y672896D01*
X4360367Y676757D01*
X4357370Y681024D01*
X4354677Y685749D01*
X4352442Y690880D01*
X4350562Y696417D01*
X4349089Y702360D01*
X4348073Y708660D01*
X4347413Y715365D01*
X4347210Y722376D01*
X4347464Y729386D01*
X4348124Y736041D01*
X4349242Y742340D01*
X4350766Y748233D01*
X4352747Y753770D01*
X4355084Y758850D01*
X4357827Y763524D01*
X4360976Y767740D01*
X4364431Y771550D01*
X4368241Y774852D01*
X4372406Y777697D01*
X4376877Y780084D01*
X4381703Y781913D01*
X4386783Y783285D01*
X4392117Y784098D01*
X4397756Y784352D01*
X4408373Y783234D01*
X4417212Y780186D01*
X4424476Y775665D01*
X4430522Y770128D01*
X4439920Y781050D01*
X4436465Y784301D01*
X4432554Y787501D01*
X4428134Y790549D01*
X4423206Y793292D01*
X4417669Y795629D01*
X4411573Y797458D01*
X4404868Y798677D01*
G37*
G36*
X4623562Y796544D02*
G01*
X4623562Y782574D01*
X4658868Y782574D01*
X4665421Y782320D01*
X4671517Y781558D01*
X4677206Y780288D01*
X4682439Y778560D01*
X4687265Y776325D01*
X4691684Y773633D01*
X4695647Y770483D01*
X4699203Y766876D01*
X4702302Y762812D01*
X4704994Y758342D01*
X4707280Y753414D01*
X4709160Y748080D01*
X4710582Y742289D01*
X4711649Y736142D01*
X4712258Y729589D01*
X4712462Y722630D01*
X4712258Y715721D01*
X4711649Y709117D01*
X4710582Y702919D01*
X4709160Y697077D01*
X4707280Y691642D01*
X4704994Y686612D01*
X4702302Y681990D01*
X4699203Y677824D01*
X4695647Y674065D01*
X4691684Y670814D01*
X4687265Y667969D01*
X4682439Y665683D01*
X4677206Y663803D01*
X4671517Y662482D01*
X4665421Y661670D01*
X4658868Y661416D01*
X4640580Y661416D01*
X4640580Y782574D01*
X4623562Y782574D01*
X4623562Y647700D01*
X4660900Y647700D01*
X4667504Y647903D01*
X4673752Y648512D01*
X4679696Y649579D01*
X4685334Y651002D01*
X4690618Y652830D01*
X4695596Y655066D01*
X4700219Y657656D01*
X4704537Y660603D01*
X4708550Y663956D01*
X4712157Y667664D01*
X4715459Y671677D01*
X4718456Y676046D01*
X4721098Y680770D01*
X4723384Y685850D01*
X4725314Y691184D01*
X4726889Y696874D01*
X4728108Y702868D01*
X4729022Y709168D01*
X4729530Y715772D01*
X4729734Y722630D01*
X4729530Y729488D01*
X4729022Y736041D01*
X4728108Y742340D01*
X4726889Y748284D01*
X4725263Y753872D01*
X4723333Y759206D01*
X4721047Y764184D01*
X4718405Y768858D01*
X4715408Y773125D01*
X4712106Y777138D01*
X4708398Y780745D01*
X4704384Y783996D01*
X4700016Y786892D01*
X4695342Y789432D01*
X4690313Y791565D01*
X4684928Y793343D01*
X4679238Y794715D01*
X4673193Y795731D01*
X4666843Y796340D01*
X4660138Y796544D01*
G37*
G36*
X4477766Y796544D02*
G01*
X4477766Y647700D01*
X4493514Y647700D01*
X4493463Y735025D01*
X4492802Y752144D01*
X4491482Y774446D01*
X4492498Y774446D01*
X4508754Y743966D01*
X4564634Y647700D01*
X4582160Y647700D01*
X4582160Y796544D01*
X4566158Y796544D01*
X4566208Y710285D01*
X4567275Y686816D01*
X4568444Y669544D01*
X4567428Y669544D01*
X4551172Y700024D01*
X4495038Y796544D01*
G37*
G36*
X4236212Y2066543D02*
G01*
X4236212Y2052574D01*
X4271264Y2052574D01*
X4277817Y2052320D01*
X4283913Y2051557D01*
X4289602Y2050288D01*
X4294835Y2048560D01*
X4299661Y2046325D01*
X4304080Y2043633D01*
X4308043Y2040483D01*
X4311599Y2036876D01*
X4314698Y2032812D01*
X4317390Y2028342D01*
X4319676Y2023414D01*
X4321556Y2018080D01*
X4322978Y2012289D01*
X4324045Y2006142D01*
X4324654Y1999589D01*
X4324858Y1992630D01*
X4324654Y1985721D01*
X4324045Y1979117D01*
X4322978Y1972919D01*
X4321556Y1967077D01*
X4319676Y1961642D01*
X4317390Y1956612D01*
X4314698Y1951989D01*
X4311599Y1947824D01*
X4308043Y1944065D01*
X4304080Y1940814D01*
X4299661Y1937969D01*
X4294835Y1935683D01*
X4289602Y1933803D01*
X4283913Y1932482D01*
X4277817Y1931670D01*
X4271264Y1931416D01*
X4252976Y1931416D01*
X4252976Y2052574D01*
X4236212Y2052574D01*
X4236212Y1917700D01*
X4273296Y1917700D01*
X4279900Y1917903D01*
X4286199Y1918512D01*
X4292193Y1919579D01*
X4297832Y1921002D01*
X4303115Y1922830D01*
X4308094Y1925066D01*
X4312767Y1927656D01*
X4317034Y1930603D01*
X4321048Y1933956D01*
X4324654Y1937664D01*
X4327956Y1941677D01*
X4330903Y1946046D01*
X4333544Y1950770D01*
X4335830Y1955850D01*
X4337710Y1961184D01*
X4339336Y1966874D01*
X4340555Y1972868D01*
X4341418Y1979168D01*
X4341977Y1985772D01*
X4342130Y1992630D01*
X4341977Y1999488D01*
X4341418Y2006041D01*
X4340555Y2012340D01*
X4339285Y2018284D01*
X4337710Y2023872D01*
X4335780Y2029206D01*
X4333494Y2034184D01*
X4330903Y2038857D01*
X4327906Y2043125D01*
X4324604Y2047138D01*
X4320946Y2050745D01*
X4316933Y2053996D01*
X4312615Y2056892D01*
X4307941Y2059432D01*
X4302912Y2061565D01*
X4297578Y2063343D01*
X4291888Y2064715D01*
X4285843Y2065731D01*
X4279493Y2066340D01*
X4272788Y2066543D01*
G37*
G36*
X4117340Y2066543D02*
G01*
X4117340Y1917700D01*
X4204462Y1917700D01*
X4204462Y1931924D01*
X4134358Y1931924D01*
X4134358Y1989074D01*
X4191508Y1989074D01*
X4191508Y2003298D01*
X4134358Y2003298D01*
X4134358Y2052320D01*
X4202176Y2052320D01*
X4202176Y2066543D01*
G37*
G36*
X4008628Y2066543D02*
G01*
X4008628Y1917700D01*
X4091178Y1917700D01*
X4091178Y1931924D01*
X4025392Y1931924D01*
X4025392Y2066543D01*
G37*
G36*
X4347210Y1548384D02*
G01*
X4341418Y1548180D01*
X4335830Y1547520D01*
X4330395Y1546453D01*
X4325213Y1544980D01*
X4320184Y1543050D01*
X4315409Y1540764D01*
X4310888Y1538122D01*
X4306620Y1535023D01*
X4302607Y1531620D01*
X4298899Y1527810D01*
X4295444Y1523644D01*
X4292346Y1519123D01*
X4289501Y1514297D01*
X4287062Y1509115D01*
X4284929Y1503578D01*
X4283151Y1497787D01*
X4281728Y1491640D01*
X4280712Y1485188D01*
X4280103Y1478432D01*
X4279900Y1471422D01*
X4280103Y1464310D01*
X4280712Y1457553D01*
X4281678Y1451051D01*
X4283049Y1444904D01*
X4284776Y1439062D01*
X4286859Y1433525D01*
X4289298Y1428343D01*
X4292041Y1423466D01*
X4295089Y1418996D01*
X4298442Y1414830D01*
X4302099Y1411071D01*
X4306011Y1407668D01*
X4310227Y1404620D01*
X4314647Y1401978D01*
X4319320Y1399692D01*
X4324248Y1397812D01*
X4329379Y1396390D01*
X4334713Y1395323D01*
X4340250Y1394663D01*
X4345940Y1394460D01*
X4353255Y1394764D01*
X4360214Y1395730D01*
X4366666Y1397254D01*
X4372711Y1399235D01*
X4378248Y1401724D01*
X4383278Y1404620D01*
X4387748Y1407922D01*
X4391660Y1411478D01*
X4391660Y1473200D01*
X4343654Y1473200D01*
X4343654Y1459230D01*
X4375912Y1459230D01*
X4375912Y1418590D01*
X4370527Y1414678D01*
X4363720Y1411681D01*
X4355998Y1409852D01*
X4347718Y1409192D01*
X4341825Y1409496D01*
X4336288Y1410309D01*
X4331055Y1411681D01*
X4326229Y1413560D01*
X4321708Y1415948D01*
X4317542Y1418844D01*
X4313783Y1422196D01*
X4310329Y1426057D01*
X4307332Y1430324D01*
X4304639Y1435049D01*
X4302404Y1440180D01*
X4300524Y1445717D01*
X4299051Y1451660D01*
X4298035Y1457960D01*
X4297375Y1464665D01*
X4297172Y1471676D01*
X4297375Y1478686D01*
X4298086Y1485341D01*
X4299204Y1491640D01*
X4300728Y1497533D01*
X4302658Y1503070D01*
X4304995Y1508150D01*
X4307738Y1512824D01*
X4310837Y1517040D01*
X4314291Y1520850D01*
X4318101Y1524152D01*
X4322267Y1526997D01*
X4326737Y1529384D01*
X4331563Y1531213D01*
X4336643Y1532585D01*
X4342028Y1533398D01*
X4347718Y1533652D01*
X4358284Y1532534D01*
X4367072Y1529486D01*
X4374337Y1524965D01*
X4380484Y1519428D01*
X4389628Y1530350D01*
X4386224Y1533601D01*
X4382363Y1536801D01*
X4377944Y1539849D01*
X4372965Y1542592D01*
X4367479Y1544929D01*
X4361332Y1546758D01*
X4354576Y1547977D01*
G37*
G36*
X4161028Y1545844D02*
G01*
X4161028Y1532128D01*
X4203954Y1532128D01*
X4212488Y1531772D01*
X4219956Y1530654D01*
X4226356Y1528724D01*
X4231690Y1525930D01*
X4235856Y1522120D01*
X4238853Y1517345D01*
X4240682Y1511452D01*
X4241292Y1504442D01*
X4240682Y1497482D01*
X4238853Y1491488D01*
X4235856Y1486408D01*
X4231690Y1482293D01*
X4226356Y1479092D01*
X4219956Y1476806D01*
X4212488Y1475435D01*
X4203954Y1474978D01*
X4178046Y1474978D01*
X4178046Y1532128D01*
X4161028Y1532128D01*
X4161028Y1397000D01*
X4178046Y1397000D01*
X4178046Y1461262D01*
X4205732Y1461262D01*
X4243070Y1397000D01*
X4261866Y1397000D01*
X4223512Y1462786D01*
X4228592Y1464157D01*
X4233316Y1465935D01*
X4237685Y1468069D01*
X4241749Y1470558D01*
X4245356Y1473403D01*
X4248607Y1476654D01*
X4251401Y1480312D01*
X4253738Y1484325D01*
X4255566Y1488744D01*
X4256938Y1493570D01*
X4257751Y1498803D01*
X4258056Y1504442D01*
X4257598Y1511655D01*
X4256379Y1518107D01*
X4254296Y1523746D01*
X4251452Y1528724D01*
X4247946Y1532991D01*
X4243730Y1536547D01*
X4238904Y1539544D01*
X4233468Y1541881D01*
X4227525Y1543659D01*
X4221022Y1544878D01*
X4214114Y1545590D01*
X4206748Y1545844D01*
G37*
G36*
X4034028Y1545844D02*
G01*
X4034028Y1532128D01*
X4072636Y1532128D01*
X4079189Y1531975D01*
X4085234Y1531518D01*
X4090619Y1530654D01*
X4095496Y1529435D01*
X4099763Y1527860D01*
X4103522Y1525778D01*
X4106621Y1523238D01*
X4109212Y1520240D01*
X4111193Y1516684D01*
X4112666Y1512620D01*
X4113479Y1507947D01*
X4113784Y1502664D01*
X4113529Y1497380D01*
X4112717Y1492656D01*
X4111345Y1488389D01*
X4109415Y1484630D01*
X4106926Y1481328D01*
X4103928Y1478483D01*
X4100322Y1476146D01*
X4096156Y1474216D01*
X4091381Y1472742D01*
X4086047Y1471726D01*
X4080154Y1471117D01*
X4073651Y1470914D01*
X4050792Y1470914D01*
X4050792Y1532128D01*
X4034028Y1532128D01*
X4034028Y1397000D01*
X4050792Y1397000D01*
X4050792Y1457198D01*
X4081983Y1457350D01*
X4087774Y1457858D01*
X4093260Y1458722D01*
X4098391Y1459941D01*
X4103217Y1461516D01*
X4107738Y1463395D01*
X4111853Y1465681D01*
X4115612Y1468323D01*
X4119016Y1471320D01*
X4121962Y1474673D01*
X4124553Y1478381D01*
X4126636Y1482496D01*
X4128312Y1486966D01*
X4129532Y1491792D01*
X4130294Y1497025D01*
X4130548Y1502664D01*
X4130294Y1508404D01*
X4129532Y1513687D01*
X4128312Y1518513D01*
X4126636Y1522933D01*
X4124451Y1526844D01*
X4121861Y1530400D01*
X4118864Y1533499D01*
X4115460Y1536242D01*
X4111599Y1538630D01*
X4107434Y1540611D01*
X4102862Y1542288D01*
X4097985Y1543608D01*
X4092752Y1544624D01*
X4087164Y1545285D01*
X4081322Y1545691D01*
X4075176Y1545844D01*
G37*
G36*
X4268216Y1291844D02*
G01*
X4268216Y1278128D01*
X4307078Y1278128D01*
X4313580Y1277975D01*
X4319574Y1277518D01*
X4324959Y1276654D01*
X4329836Y1275435D01*
X4334103Y1273860D01*
X4337862Y1271778D01*
X4341012Y1269238D01*
X4343603Y1266240D01*
X4345635Y1262684D01*
X4347057Y1258620D01*
X4347921Y1253947D01*
X4348226Y1248664D01*
X4347972Y1243380D01*
X4347159Y1238656D01*
X4345787Y1234389D01*
X4343857Y1230630D01*
X4341368Y1227328D01*
X4338320Y1224483D01*
X4334713Y1222146D01*
X4330496Y1220216D01*
X4325721Y1218742D01*
X4320336Y1217726D01*
X4314393Y1217117D01*
X4307840Y1216914D01*
X4285234Y1216914D01*
X4285234Y1278128D01*
X4268216Y1278128D01*
X4268216Y1143000D01*
X4285234Y1143000D01*
X4285234Y1203198D01*
X4316425Y1203350D01*
X4322216Y1203858D01*
X4327652Y1204722D01*
X4332782Y1205941D01*
X4337608Y1207516D01*
X4342079Y1209395D01*
X4346194Y1211681D01*
X4349953Y1214323D01*
X4353306Y1217320D01*
X4356252Y1220673D01*
X4358792Y1224381D01*
X4360875Y1228496D01*
X4362551Y1232966D01*
X4363770Y1237792D01*
X4364482Y1243025D01*
X4364736Y1248664D01*
X4364482Y1254404D01*
X4363720Y1259687D01*
X4362500Y1264513D01*
X4360824Y1268933D01*
X4358690Y1272844D01*
X4356150Y1276400D01*
X4353153Y1279499D01*
X4349750Y1282242D01*
X4345940Y1284630D01*
X4341774Y1286611D01*
X4337253Y1288288D01*
X4332376Y1289608D01*
X4327144Y1290624D01*
X4321606Y1291285D01*
X4315764Y1291691D01*
X4309618Y1291844D01*
G37*
G36*
X4122165Y1291844D02*
G01*
X4122165Y1203452D01*
X4122420Y1194917D01*
X4123232Y1187094D01*
X4124502Y1179982D01*
X4126280Y1173581D01*
X4128465Y1167790D01*
X4131106Y1162659D01*
X4134104Y1158087D01*
X4137507Y1154125D01*
X4141215Y1150721D01*
X4145279Y1147876D01*
X4149598Y1145489D01*
X4154220Y1143609D01*
X4159046Y1142187D01*
X4164076Y1141222D01*
X4169359Y1140663D01*
X4174744Y1140460D01*
X4180179Y1140663D01*
X4185462Y1141222D01*
X4190542Y1142187D01*
X4195419Y1143609D01*
X4200042Y1145489D01*
X4204411Y1147876D01*
X4208475Y1150721D01*
X4212234Y1154125D01*
X4215587Y1158087D01*
X4218635Y1162659D01*
X4221276Y1167790D01*
X4223461Y1173581D01*
X4225239Y1179982D01*
X4226509Y1187094D01*
X4227322Y1194917D01*
X4227576Y1203452D01*
X4227576Y1291844D01*
X4211320Y1291844D01*
X4211320Y1203198D01*
X4210964Y1194562D01*
X4209999Y1186942D01*
X4208475Y1180287D01*
X4206341Y1174496D01*
X4203750Y1169568D01*
X4200652Y1165453D01*
X4197146Y1162151D01*
X4193235Y1159510D01*
X4189018Y1157528D01*
X4184497Y1156208D01*
X4179722Y1155446D01*
X4174744Y1155192D01*
X4169918Y1155446D01*
X4165295Y1156208D01*
X4160926Y1157528D01*
X4156811Y1159510D01*
X4153052Y1162151D01*
X4149648Y1165453D01*
X4146600Y1169568D01*
X4144060Y1174496D01*
X4141978Y1180287D01*
X4140454Y1186942D01*
X4139488Y1194562D01*
X4139184Y1203198D01*
X4139184Y1291844D01*
G37*
G36*
X4248912Y1812543D02*
G01*
X4248912Y1663700D01*
X4264660Y1663700D01*
X4264609Y1751025D01*
X4264304Y1762455D01*
X4262628Y1790446D01*
X4263644Y1790446D01*
X4279900Y1759966D01*
X4335780Y1663700D01*
X4353306Y1663700D01*
X4353306Y1812543D01*
X4337304Y1812543D01*
X4337354Y1726285D01*
X4338421Y1702816D01*
X4339590Y1685543D01*
X4338574Y1685543D01*
X4322572Y1716024D01*
X4266184Y1812543D01*
G37*
G36*
X4110228Y1812543D02*
G01*
X4110228Y1798574D01*
X4145279Y1798574D01*
X4151833Y1798320D01*
X4157929Y1797557D01*
X4163618Y1796288D01*
X4168851Y1794560D01*
X4173677Y1792325D01*
X4178096Y1789633D01*
X4182059Y1786483D01*
X4185615Y1782876D01*
X4188714Y1778812D01*
X4191406Y1774342D01*
X4193692Y1769414D01*
X4195572Y1764080D01*
X4196994Y1758289D01*
X4198061Y1752142D01*
X4198670Y1745589D01*
X4198874Y1738630D01*
X4198670Y1731721D01*
X4198061Y1725117D01*
X4196994Y1718919D01*
X4195572Y1713077D01*
X4193692Y1707642D01*
X4191406Y1702612D01*
X4188714Y1697989D01*
X4185615Y1693824D01*
X4182059Y1690065D01*
X4178096Y1686814D01*
X4173677Y1683969D01*
X4168851Y1681683D01*
X4163618Y1679803D01*
X4157929Y1678482D01*
X4151833Y1677670D01*
X4145279Y1677416D01*
X4126992Y1677416D01*
X4126992Y1798574D01*
X4110228Y1798574D01*
X4110228Y1663700D01*
X4147312Y1663700D01*
X4153915Y1663903D01*
X4160215Y1664512D01*
X4166209Y1665579D01*
X4171848Y1667002D01*
X4177131Y1668830D01*
X4182110Y1671066D01*
X4186783Y1673656D01*
X4191050Y1676603D01*
X4195064Y1679956D01*
X4198670Y1683664D01*
X4201972Y1687677D01*
X4204919Y1692046D01*
X4207560Y1696770D01*
X4209846Y1701850D01*
X4211726Y1707184D01*
X4213352Y1712874D01*
X4214571Y1718868D01*
X4215434Y1725168D01*
X4215993Y1731772D01*
X4216146Y1738630D01*
X4215993Y1745488D01*
X4215434Y1752041D01*
X4214571Y1758340D01*
X4213301Y1764284D01*
X4211726Y1769872D01*
X4209796Y1775206D01*
X4207510Y1780184D01*
X4204919Y1784857D01*
X4201922Y1789125D01*
X4198620Y1793138D01*
X4194962Y1796745D01*
X4190949Y1799996D01*
X4186631Y1802892D01*
X4181957Y1805432D01*
X4176928Y1807565D01*
X4171594Y1809343D01*
X4165904Y1810715D01*
X4159859Y1811731D01*
X4153509Y1812340D01*
X4146804Y1812543D01*
G37*
G36*
X1406906Y3897884D02*
G01*
X1401470Y3897680D01*
X1396187Y3897020D01*
X1391107Y3895953D01*
X1386230Y3894480D01*
X1381556Y3892600D01*
X1377137Y3890365D01*
X1372870Y3887673D01*
X1368907Y3884676D01*
X1365199Y3881221D01*
X1361744Y3877462D01*
X1358544Y3873347D01*
X1355648Y3868877D01*
X1353058Y3864051D01*
X1350772Y3858869D01*
X1348790Y3853434D01*
X1347165Y3847642D01*
X1345844Y3841496D01*
X1344930Y3835095D01*
X1344371Y3828389D01*
X1344168Y3821429D01*
X1361440Y3821429D01*
X1361643Y3828389D01*
X1362252Y3835044D01*
X1363268Y3841292D01*
X1364691Y3847134D01*
X1366469Y3852621D01*
X1368602Y3857701D01*
X1371092Y3862374D01*
X1373886Y3866591D01*
X1377035Y3870350D01*
X1380490Y3873652D01*
X1384198Y3876497D01*
X1388211Y3878884D01*
X1392529Y3880713D01*
X1397101Y3882085D01*
X1401876Y3882898D01*
X1406906Y3883151D01*
X1411986Y3882898D01*
X1416812Y3882085D01*
X1421384Y3880713D01*
X1425752Y3878884D01*
X1429766Y3876497D01*
X1433525Y3873652D01*
X1436979Y3870350D01*
X1440129Y3866591D01*
X1442974Y3862374D01*
X1445463Y3857701D01*
X1447596Y3852621D01*
X1449374Y3847134D01*
X1450797Y3841292D01*
X1451813Y3835044D01*
X1452422Y3828389D01*
X1452626Y3821429D01*
X1452422Y3814470D01*
X1451813Y3807815D01*
X1450797Y3801516D01*
X1449374Y3795572D01*
X1447596Y3789984D01*
X1445463Y3784854D01*
X1442974Y3780078D01*
X1440129Y3775760D01*
X1436979Y3771900D01*
X1433525Y3768496D01*
X1429766Y3765550D01*
X1425752Y3763162D01*
X1421384Y3761232D01*
X1416812Y3759809D01*
X1411986Y3758996D01*
X1406906Y3758692D01*
X1401876Y3758996D01*
X1397101Y3759809D01*
X1392529Y3761232D01*
X1388211Y3763162D01*
X1384198Y3765550D01*
X1380490Y3768496D01*
X1377035Y3771900D01*
X1373886Y3775760D01*
X1371092Y3780078D01*
X1368602Y3784854D01*
X1366469Y3789984D01*
X1364691Y3795572D01*
X1363268Y3801516D01*
X1362252Y3807815D01*
X1361643Y3814470D01*
X1361440Y3821429D01*
X1344168Y3821429D01*
X1344371Y3814419D01*
X1344930Y3807714D01*
X1345844Y3801262D01*
X1347165Y3795115D01*
X1348790Y3789273D01*
X1350772Y3783736D01*
X1353058Y3778554D01*
X1355648Y3773627D01*
X1358544Y3769106D01*
X1361744Y3764889D01*
X1365199Y3761028D01*
X1368907Y3757574D01*
X1372870Y3754424D01*
X1377137Y3751732D01*
X1381556Y3749395D01*
X1386230Y3747465D01*
X1391107Y3745941D01*
X1396187Y3744823D01*
X1401470Y3744163D01*
X1406906Y3743960D01*
X1412341Y3744163D01*
X1417624Y3744823D01*
X1422704Y3745941D01*
X1427581Y3747465D01*
X1432306Y3749395D01*
X1436776Y3751732D01*
X1440992Y3754424D01*
X1445006Y3757574D01*
X1448714Y3761028D01*
X1452219Y3764889D01*
X1455420Y3769106D01*
X1458315Y3773627D01*
X1460957Y3778554D01*
X1463243Y3783736D01*
X1465224Y3789273D01*
X1466900Y3795115D01*
X1468170Y3801262D01*
X1469136Y3807714D01*
X1469694Y3814419D01*
X1469898Y3821429D01*
X1469694Y3828389D01*
X1469136Y3835095D01*
X1468170Y3841496D01*
X1466900Y3847642D01*
X1465224Y3853434D01*
X1463243Y3858869D01*
X1460957Y3864051D01*
X1458315Y3868877D01*
X1455420Y3873347D01*
X1452219Y3877462D01*
X1448714Y3881221D01*
X1445006Y3884676D01*
X1440992Y3887673D01*
X1436776Y3890365D01*
X1432306Y3892600D01*
X1427581Y3894480D01*
X1422704Y3895953D01*
X1417624Y3897020D01*
X1412341Y3897680D01*
G37*
G36*
X913892Y3897884D02*
G01*
X907440Y3897528D01*
X901293Y3896563D01*
X895553Y3894988D01*
X890219Y3892854D01*
X885342Y3890111D01*
X880973Y3886911D01*
X877163Y3883253D01*
X873963Y3879138D01*
X871372Y3874617D01*
X869492Y3869740D01*
X868324Y3864559D01*
X867918Y3859022D01*
X868629Y3851452D01*
X870712Y3844848D01*
X873861Y3839159D01*
X877874Y3834282D01*
X882548Y3830116D01*
X887628Y3826611D01*
X892911Y3823665D01*
X898144Y3821176D01*
X924915Y3809441D01*
X929690Y3807053D01*
X934008Y3804513D01*
X937768Y3801668D01*
X940866Y3798366D01*
X943152Y3794506D01*
X944626Y3789883D01*
X945134Y3784346D01*
X944575Y3778859D01*
X942848Y3773932D01*
X940104Y3769512D01*
X936345Y3765804D01*
X931671Y3762806D01*
X926084Y3760571D01*
X919632Y3759149D01*
X912368Y3758692D01*
X906526Y3759047D01*
X900734Y3760012D01*
X895146Y3761638D01*
X889711Y3763822D01*
X884529Y3766515D01*
X879602Y3769715D01*
X874979Y3773424D01*
X870712Y3777487D01*
X860552Y3766058D01*
X865632Y3761181D01*
X871118Y3756812D01*
X877011Y3753053D01*
X883310Y3749852D01*
X890016Y3747312D01*
X897077Y3745484D01*
X904544Y3744366D01*
X912368Y3743960D01*
X919734Y3744315D01*
X926642Y3745433D01*
X932992Y3747160D01*
X938834Y3749548D01*
X944067Y3752545D01*
X948690Y3756050D01*
X952703Y3760012D01*
X956005Y3764432D01*
X958646Y3769258D01*
X960577Y3774440D01*
X961745Y3779875D01*
X962152Y3785615D01*
X961542Y3793337D01*
X959764Y3800094D01*
X956919Y3805936D01*
X953160Y3810965D01*
X948639Y3815283D01*
X943406Y3819042D01*
X937615Y3822344D01*
X931418Y3825240D01*
X905459Y3836314D01*
X896924Y3840784D01*
X893114Y3843528D01*
X889812Y3846728D01*
X887221Y3850538D01*
X885545Y3855008D01*
X884936Y3860292D01*
X885494Y3865270D01*
X887018Y3869740D01*
X889558Y3873652D01*
X892962Y3876954D01*
X897128Y3879596D01*
X902106Y3881526D01*
X907694Y3882745D01*
X913892Y3883151D01*
X919073Y3882898D01*
X923950Y3882136D01*
X928573Y3880916D01*
X932942Y3879291D01*
X937056Y3877208D01*
X940968Y3874770D01*
X944676Y3872026D01*
X948182Y3868928D01*
X957071Y3879596D01*
X953008Y3883456D01*
X948537Y3886962D01*
X943610Y3890060D01*
X938326Y3892753D01*
X932687Y3894886D01*
X926693Y3896512D01*
X920445Y3897528D01*
G37*
G36*
X1990343Y3895344D02*
G01*
X1990343Y3881120D01*
X2035810Y3881120D01*
X2035810Y3746500D01*
X2052828Y3746500D01*
X2052828Y3881120D01*
X2098294Y3881120D01*
X2098294Y3895344D01*
G37*
G36*
X1946402Y3895344D02*
G01*
X1946402Y3746500D01*
X1963166Y3746500D01*
X1963166Y3895344D01*
G37*
G36*
X1783080Y3895344D02*
G01*
X1783080Y3746500D01*
X1798320Y3746500D01*
X1798269Y3837330D01*
X1797253Y3859529D01*
X1796288Y3875532D01*
X1797050Y3875532D01*
X1808734Y3841750D01*
X1837943Y3761740D01*
X1849628Y3761740D01*
X1878584Y3841750D01*
X1890522Y3875532D01*
X1891284Y3875532D01*
X1889455Y3842613D01*
X1889252Y3832351D01*
X1889252Y3746500D01*
X1905000Y3746500D01*
X1905000Y3895344D01*
X1884172Y3895344D01*
X1855216Y3814064D01*
X1844802Y3782314D01*
X1843786Y3782314D01*
X1832864Y3814064D01*
X1803654Y3895344D01*
G37*
G36*
X1724660Y3895344D02*
G01*
X1724660Y3746500D01*
X1741424Y3746500D01*
X1741424Y3895344D01*
G37*
G36*
X1615694Y3895344D02*
G01*
X1615694Y3746500D01*
X1698498Y3746500D01*
X1698498Y3760724D01*
X1632712Y3760724D01*
X1632712Y3895344D01*
G37*
G36*
X1219454Y3895344D02*
G01*
X1267206Y3746500D01*
X1286510Y3746500D01*
X1334008Y3895344D01*
X1316990Y3895344D01*
X1277620Y3764026D01*
X1276858Y3764026D01*
X1269288Y3788511D01*
X1262126Y3813048D01*
X1237234Y3895344D01*
G37*
G36*
X1110488Y3895344D02*
G01*
X1110488Y3881628D01*
X1153414Y3881628D01*
X1161948Y3881272D01*
X1169416Y3880154D01*
X1175816Y3878224D01*
X1181150Y3875430D01*
X1185316Y3871620D01*
X1188313Y3866845D01*
X1190142Y3860952D01*
X1190752Y3853942D01*
X1190142Y3846982D01*
X1188313Y3840987D01*
X1185316Y3835908D01*
X1181150Y3831793D01*
X1175816Y3828592D01*
X1169416Y3826306D01*
X1161948Y3824935D01*
X1153414Y3824478D01*
X1127506Y3824478D01*
X1127506Y3881628D01*
X1110488Y3881628D01*
X1110488Y3746500D01*
X1127506Y3746500D01*
X1127506Y3810762D01*
X1155192Y3810762D01*
X1192530Y3746500D01*
X1211326Y3746500D01*
X1172972Y3812286D01*
X1178052Y3813657D01*
X1182776Y3815435D01*
X1187145Y3817569D01*
X1191209Y3820058D01*
X1194816Y3822903D01*
X1198067Y3826154D01*
X1200861Y3829812D01*
X1203198Y3833825D01*
X1205026Y3838244D01*
X1206398Y3843070D01*
X1207211Y3848303D01*
X1207516Y3853942D01*
X1207058Y3861155D01*
X1205839Y3867607D01*
X1203756Y3873246D01*
X1200912Y3878224D01*
X1197406Y3882491D01*
X1193190Y3886047D01*
X1188364Y3889044D01*
X1182928Y3891381D01*
X1176985Y3893159D01*
X1170482Y3894378D01*
X1163574Y3895090D01*
X1156208Y3895344D01*
G37*
G36*
X991869Y3895344D02*
G01*
X991869Y3746500D01*
X1078992Y3746500D01*
X1078992Y3760724D01*
X1008887Y3760724D01*
X1008887Y3817874D01*
X1065784Y3817874D01*
X1065784Y3832098D01*
X1008887Y3832098D01*
X1008887Y3881120D01*
X1076706Y3881120D01*
X1076706Y3895344D01*
G37*
G36*
X1484376Y3729990D02*
G01*
X1484376Y3718560D01*
X1592326Y3718560D01*
X1592326Y3729990D01*
G37*
G36*
X3310128Y3912362D02*
G01*
X3299968Y3907536D01*
X3303168Y3902049D01*
X3308908Y3890721D01*
X3313785Y3878986D01*
X3317900Y3866896D01*
X3321151Y3854450D01*
X3323590Y3841800D01*
X3325215Y3828999D01*
X3326028Y3815994D01*
X3326028Y3802989D01*
X3325215Y3789984D01*
X3323590Y3777183D01*
X3321151Y3764534D01*
X3317900Y3752087D01*
X3313785Y3739997D01*
X3308908Y3728262D01*
X3303168Y3716934D01*
X3299968Y3711448D01*
X3310128Y3706622D01*
X3316833Y3718051D01*
X3322726Y3729786D01*
X3325418Y3735781D01*
X3330143Y3748074D01*
X3334004Y3760724D01*
X3336950Y3773932D01*
X3338068Y3780739D01*
X3339592Y3794810D01*
X3340100Y3809492D01*
X3339592Y3824122D01*
X3338068Y3838143D01*
X3336950Y3844950D01*
X3334004Y3858107D01*
X3330143Y3870858D01*
X3325418Y3883151D01*
X3319881Y3895039D01*
X3313582Y3906672D01*
G37*
G36*
X2556002Y3912362D02*
G01*
X2549398Y3900881D01*
X2543556Y3889146D01*
X2538476Y3877056D01*
X2536190Y3870858D01*
X2532380Y3858107D01*
X2529433Y3844950D01*
X2528316Y3838143D01*
X2526792Y3824122D01*
X2526284Y3809492D01*
X2526792Y3794810D01*
X2528316Y3780739D01*
X2529433Y3773932D01*
X2532380Y3760724D01*
X2536190Y3748074D01*
X2540914Y3735781D01*
X2546350Y3723894D01*
X2552598Y3712311D01*
X2556002Y3706622D01*
X2566162Y3711448D01*
X2562961Y3716934D01*
X2557221Y3728262D01*
X2552344Y3739997D01*
X2548229Y3752087D01*
X2544978Y3764534D01*
X2542540Y3777183D01*
X2540914Y3789984D01*
X2540101Y3802989D01*
X2540101Y3815994D01*
X2540914Y3828999D01*
X2542540Y3841800D01*
X2544978Y3854450D01*
X2548229Y3866896D01*
X2552344Y3878986D01*
X2557221Y3890721D01*
X2562961Y3902049D01*
X2566162Y3907536D01*
G37*
G36*
X3053842Y3907536D02*
G01*
X2991104Y3710432D01*
X3003296Y3710432D01*
X3066034Y3907536D01*
G37*
G36*
X2751074Y3907536D02*
G01*
X2688336Y3710432D01*
X2700528Y3710432D01*
X2763266Y3907536D01*
G37*
G36*
X3119882Y3897884D02*
G01*
X3113176Y3897477D01*
X3106978Y3896309D01*
X3101238Y3894429D01*
X3095802Y3891889D01*
X3090722Y3888740D01*
X3085896Y3885031D01*
X3081223Y3880764D01*
X3076702Y3876040D01*
X3086354Y3866896D01*
X3089706Y3870502D01*
X3093212Y3873804D01*
X3096920Y3876801D01*
X3100781Y3879392D01*
X3104845Y3881475D01*
X3109112Y3883101D01*
X3113532Y3884066D01*
X3118104Y3884422D01*
X3124860Y3883812D01*
X3130651Y3882085D01*
X3135528Y3879342D01*
X3139440Y3875633D01*
X3142488Y3871112D01*
X3144621Y3865879D01*
X3145891Y3860037D01*
X3146298Y3853687D01*
X3146145Y3849827D01*
X3144875Y3841800D01*
X3142284Y3833469D01*
X3138322Y3824782D01*
X3135833Y3820261D01*
X3129838Y3810965D01*
X3122371Y3801160D01*
X3113481Y3790848D01*
X3103067Y3779977D01*
X3091180Y3768496D01*
X3077718Y3756406D01*
X3077718Y3746500D01*
X3169666Y3746500D01*
X3169666Y3760724D01*
X3121202Y3760622D01*
X3102610Y3759454D01*
X3113125Y3769614D01*
X3122777Y3779621D01*
X3131566Y3789375D01*
X3139389Y3798976D01*
X3146196Y3808476D01*
X3151936Y3817823D01*
X3156458Y3827068D01*
X3158286Y3831691D01*
X3159810Y3836263D01*
X3160979Y3840835D01*
X3161842Y3845356D01*
X3162401Y3849928D01*
X3162554Y3854450D01*
X3162198Y3860850D01*
X3161233Y3866845D01*
X3159607Y3872382D01*
X3157372Y3877462D01*
X3154527Y3882034D01*
X3151124Y3886047D01*
X3147161Y3889552D01*
X3142691Y3892499D01*
X3137712Y3894836D01*
X3132226Y3896512D01*
X3126282Y3897528D01*
G37*
G36*
X3235452Y3895344D02*
G01*
X3229203Y3891991D01*
X3222244Y3889197D01*
X3214319Y3886962D01*
X3205226Y3885184D01*
X3205226Y3874262D01*
X3231388Y3874262D01*
X3231388Y3760215D01*
X3198114Y3760215D01*
X3198114Y3746500D01*
X3278124Y3746500D01*
X3278124Y3760215D01*
X3247898Y3760215D01*
X3247898Y3895344D01*
G37*
G36*
X2887218Y3895344D02*
G01*
X2887218Y3881120D01*
X2960116Y3881120D01*
X2953207Y3871010D01*
X2947009Y3861003D01*
X2941574Y3850995D01*
X2936748Y3840937D01*
X2932582Y3830624D01*
X2929026Y3820109D01*
X2926029Y3809187D01*
X2923540Y3797858D01*
X2921508Y3786022D01*
X2919933Y3773576D01*
X2918764Y3760419D01*
X2917952Y3746500D01*
X2935224Y3746500D01*
X2935935Y3760571D01*
X2936951Y3773830D01*
X2938221Y3786378D01*
X2939948Y3798315D01*
X2942183Y3809746D01*
X2945028Y3820769D01*
X2948533Y3831590D01*
X2952851Y3842156D01*
X2957982Y3852722D01*
X2964078Y3863340D01*
X2967482Y3868724D01*
X2975152Y3879596D01*
X2979420Y3885184D01*
X2979420Y3895344D01*
G37*
G36*
X2820924Y3895344D02*
G01*
X2814828Y3891991D01*
X2807868Y3889197D01*
X2799943Y3886962D01*
X2790952Y3885184D01*
X2790952Y3874262D01*
X2817114Y3874262D01*
X2817114Y3760215D01*
X2783840Y3760215D01*
X2783840Y3746500D01*
X2863850Y3746500D01*
X2863850Y3760215D01*
X2833624Y3760215D01*
X2833624Y3895344D01*
G37*
G36*
X2596896Y3895344D02*
G01*
X2592324Y3826256D01*
X2601468Y3820414D01*
X2607513Y3824274D01*
X2613355Y3827068D01*
X2619552Y3828745D01*
X2626614Y3829304D01*
X2633522Y3828694D01*
X2639720Y3826916D01*
X2645156Y3823970D01*
X2649728Y3819956D01*
X2653385Y3814927D01*
X2656128Y3808933D01*
X2657805Y3802024D01*
X2658364Y3794251D01*
X2657703Y3786276D01*
X2655773Y3779113D01*
X2652776Y3772865D01*
X2648762Y3767582D01*
X2643936Y3763365D01*
X2638450Y3760266D01*
X2632354Y3758336D01*
X2625852Y3757676D01*
X2619502Y3758031D01*
X2613710Y3759098D01*
X2608478Y3760724D01*
X2603754Y3762806D01*
X2599436Y3765346D01*
X2595473Y3768191D01*
X2591866Y3771239D01*
X2588514Y3774440D01*
X2580132Y3763518D01*
X2584145Y3759809D01*
X2588514Y3756304D01*
X2593390Y3752951D01*
X2598775Y3750005D01*
X2604770Y3747515D01*
X2611475Y3745636D01*
X2618892Y3744417D01*
X2627122Y3743960D01*
X2633218Y3744315D01*
X2639212Y3745484D01*
X2645003Y3747312D01*
X2650540Y3749903D01*
X2655671Y3753205D01*
X2660345Y3757168D01*
X2664561Y3761841D01*
X2668168Y3767124D01*
X2671114Y3773119D01*
X2673299Y3779723D01*
X2674670Y3786936D01*
X2675128Y3794760D01*
X2674721Y3802583D01*
X2673553Y3809644D01*
X2671622Y3815994D01*
X2669082Y3821633D01*
X2665882Y3826560D01*
X2662123Y3830777D01*
X2657856Y3834333D01*
X2653131Y3837228D01*
X2648000Y3839464D01*
X2642514Y3841038D01*
X2636723Y3841953D01*
X2630678Y3842258D01*
X2624074Y3841800D01*
X2618181Y3840530D01*
X2612745Y3838498D01*
X2607564Y3835908D01*
X2611628Y3881120D01*
X2668016Y3881120D01*
X2668016Y3895344D01*
G37*
G36*
X2405634Y3895344D02*
G01*
X2399538Y3891991D01*
X2392527Y3889197D01*
X2384653Y3886962D01*
X2375662Y3885184D01*
X2375662Y3874262D01*
X2401824Y3874262D01*
X2401824Y3760215D01*
X2368550Y3760215D01*
X2368550Y3746500D01*
X2448560Y3746500D01*
X2448560Y3760215D01*
X2418334Y3760215D01*
X2418334Y3895344D01*
G37*
G36*
X2235708Y3895344D02*
G01*
X2283460Y3746500D01*
X2302764Y3746500D01*
X2350262Y3895344D01*
X2333244Y3895344D01*
X2295702Y3770426D01*
X2293620Y3764026D01*
X2292858Y3764026D01*
X2285441Y3788511D01*
X2278380Y3813048D01*
X2253234Y3895344D01*
G37*
G36*
X346456Y1321054D02*
G01*
X346456Y1304036D01*
X477774Y1264666D01*
X477774Y1263904D01*
X453288Y1256334D01*
X428751Y1249172D01*
X346456Y1224280D01*
X346456Y1206500D01*
X495300Y1254252D01*
X495300Y1273556D01*
G37*
G36*
X511809Y1203452D02*
G01*
X511809Y1095502D01*
X523240Y1095502D01*
X523240Y1203452D01*
G37*
G36*
X346456Y1086612D02*
G01*
X346456Y978662D01*
X360680Y978662D01*
X360680Y1024128D01*
X495300Y1024128D01*
X495300Y1041146D01*
X360680Y1041146D01*
X360680Y1086612D01*
G37*
G36*
X346456Y951992D02*
G01*
X346456Y935990D01*
X435101Y935990D01*
X443738Y935634D01*
X451358Y934669D01*
X458012Y933094D01*
X463804Y930960D01*
X468731Y928319D01*
X472846Y925220D01*
X476148Y921715D01*
X478790Y917803D01*
X480771Y913587D01*
X482092Y909066D01*
X482854Y904341D01*
X483108Y899414D01*
X482854Y894587D01*
X482092Y889965D01*
X480771Y885545D01*
X478790Y881430D01*
X476148Y877620D01*
X472846Y874166D01*
X468731Y871118D01*
X463804Y868527D01*
X458012Y866444D01*
X451358Y864869D01*
X443738Y863955D01*
X435101Y863600D01*
X346456Y863600D01*
X346456Y846836D01*
X434848Y846836D01*
X443382Y847090D01*
X451205Y847902D01*
X458317Y849172D01*
X464718Y850950D01*
X470509Y853135D01*
X475640Y855776D01*
X480212Y858774D01*
X484174Y862177D01*
X487578Y865886D01*
X490423Y869950D01*
X492810Y874268D01*
X494690Y878890D01*
X496112Y883716D01*
X497078Y888746D01*
X497636Y894029D01*
X497840Y899414D01*
X497636Y904798D01*
X497078Y910082D01*
X496112Y915111D01*
X494690Y919937D01*
X492810Y924560D01*
X490423Y928878D01*
X487578Y932942D01*
X484174Y936650D01*
X480212Y940053D01*
X475640Y943051D01*
X470509Y945692D01*
X464718Y947877D01*
X458317Y949655D01*
X451205Y950925D01*
X443382Y951737D01*
X434848Y951992D01*
G37*
G36*
X389636Y816864D02*
G01*
X383895Y816610D01*
X378612Y815848D01*
X373786Y814628D01*
X369366Y812952D01*
X365455Y810768D01*
X361899Y808177D01*
X358800Y805180D01*
X356057Y801776D01*
X353669Y797915D01*
X351688Y793750D01*
X350012Y789178D01*
X348691Y784301D01*
X347675Y779068D01*
X347014Y773480D01*
X346608Y767638D01*
X346456Y737108D01*
X360172Y737108D01*
X360324Y765505D01*
X360781Y771499D01*
X361645Y776935D01*
X362864Y781812D01*
X364439Y786079D01*
X366522Y789838D01*
X369062Y792937D01*
X372059Y795528D01*
X375615Y797509D01*
X379679Y798931D01*
X384352Y799795D01*
X389636Y800100D01*
X394919Y799846D01*
X399643Y799033D01*
X403910Y797661D01*
X407670Y795731D01*
X410972Y793242D01*
X413816Y790244D01*
X416153Y786638D01*
X418084Y782472D01*
X419557Y777697D01*
X420573Y772363D01*
X421182Y766470D01*
X421385Y759968D01*
X421385Y737108D01*
X346456Y737108D01*
X346456Y720344D01*
X495300Y720344D01*
X495300Y737108D01*
X435101Y737108D01*
X434949Y768299D01*
X434441Y774090D01*
X433578Y779576D01*
X432358Y784707D01*
X430784Y789533D01*
X428904Y794054D01*
X426618Y798169D01*
X423976Y801928D01*
X420979Y805332D01*
X417626Y808278D01*
X413918Y810869D01*
X409803Y812952D01*
X405333Y814628D01*
X400507Y815848D01*
X395274Y816610D01*
G37*
G36*
X346456Y678688D02*
G01*
X346456Y662686D01*
X432714Y662736D01*
X456184Y663803D01*
X473456Y664972D01*
X473456Y663956D01*
X442976Y647954D01*
X346456Y591566D01*
X346456Y574294D01*
X495300Y574294D01*
X495300Y590296D01*
X407974Y590245D01*
X390855Y589584D01*
X368554Y588264D01*
X368554Y589280D01*
X399034Y605536D01*
X495300Y661416D01*
X495300Y678688D01*
G37*
G36*
X346456Y532892D02*
G01*
X346456Y516128D01*
X495300Y516128D01*
X495300Y532892D01*
G37*
G36*
X723900Y1236980D02*
G01*
X647954Y1193292D01*
X575056Y1234186D01*
X575056Y1216660D01*
X619607Y1193038D01*
X636016Y1185164D01*
X636016Y1184148D01*
X624586Y1177899D01*
X614680Y1172210D01*
X575056Y1151128D01*
X575056Y1132332D01*
X647192Y1173226D01*
X723900Y1129792D01*
X723900Y1147318D01*
X682498Y1169924D01*
X658368Y1182116D01*
X658368Y1182878D01*
X682498Y1195832D01*
X723900Y1218692D01*
G37*
G36*
X723900Y1124204D02*
G01*
X575056Y1073150D01*
X575056Y1063244D01*
X589280Y1063244D01*
X589280Y1064006D01*
X627075Y1075334D01*
X639572Y1079500D01*
X663702Y1087120D01*
X663702Y1040130D01*
X633323Y1049985D01*
X589280Y1063244D01*
X575056Y1063244D01*
X575056Y1054608D01*
X723900Y1003808D01*
X723900Y1020571D01*
X676910Y1035812D01*
X676910Y1091438D01*
X723900Y1106170D01*
G37*
G36*
X575056Y981964D02*
G01*
X575056Y961390D01*
X656336Y932180D01*
X688086Y922019D01*
X688086Y921003D01*
X656336Y910082D01*
X575056Y880871D01*
X575056Y860044D01*
X723900Y860044D01*
X723900Y875284D01*
X633069Y875233D01*
X622198Y874928D01*
X594868Y873252D01*
X594868Y874268D01*
X628650Y885952D01*
X708660Y915162D01*
X708660Y926846D01*
X628650Y955802D01*
X594868Y967740D01*
X594868Y968502D01*
X627786Y966673D01*
X638048Y966469D01*
X723900Y966469D01*
X723900Y981964D01*
G37*
G36*
X575056Y794004D02*
G01*
X575056Y776732D01*
X699973Y739444D01*
X706374Y737362D01*
X706374Y736600D01*
X575056Y696976D01*
X575056Y679196D01*
X723900Y726948D01*
X723900Y746252D01*
G37*
G36*
X675640Y622554D02*
G01*
X667816Y622147D01*
X660755Y620979D01*
X654405Y619048D01*
X648766Y616508D01*
X643839Y613308D01*
X639622Y609549D01*
X636066Y605282D01*
X633171Y600557D01*
X630936Y595426D01*
X629361Y589940D01*
X628446Y584149D01*
X628142Y578104D01*
X628599Y571500D01*
X629869Y565607D01*
X631901Y560171D01*
X634492Y554990D01*
X589280Y559054D01*
X589280Y615442D01*
X575056Y615442D01*
X575056Y544322D01*
X644144Y539750D01*
X649986Y548894D01*
X646125Y554939D01*
X643331Y560781D01*
X641654Y566978D01*
X641096Y574040D01*
X641705Y580948D01*
X643483Y587197D01*
X646430Y592632D01*
X650443Y597306D01*
X655472Y601014D01*
X661466Y603758D01*
X668375Y605485D01*
X676148Y606044D01*
X684123Y605383D01*
X691286Y603402D01*
X697534Y600354D01*
X702818Y596341D01*
X707034Y591464D01*
X710133Y585876D01*
X712063Y579780D01*
X712724Y573278D01*
X712368Y566928D01*
X711301Y561136D01*
X709676Y555904D01*
X707593Y551180D01*
X705053Y546862D01*
X702208Y542899D01*
X699160Y539292D01*
X695960Y535940D01*
X706882Y527812D01*
X710590Y531723D01*
X714095Y536041D01*
X717448Y540867D01*
X720394Y546252D01*
X722884Y552196D01*
X724763Y558901D01*
X725982Y566318D01*
X726440Y574548D01*
X726084Y580644D01*
X724916Y586638D01*
X723087Y592429D01*
X720496Y597966D01*
X717194Y603097D01*
X713232Y607771D01*
X708558Y611987D01*
X703275Y615594D01*
X697280Y618540D01*
X690676Y620725D01*
X683463Y622096D01*
G37*
G36*
X713486Y506984D02*
G01*
X707948Y506018D01*
X703732Y503275D01*
X700989Y499262D01*
X700024Y494284D01*
X700989Y489610D01*
X703681Y485698D01*
X707948Y483057D01*
X713486Y482092D01*
X718820Y483057D01*
X722934Y485698D01*
X725525Y489610D01*
X726440Y494284D01*
X725525Y499262D01*
X722934Y503326D01*
X718820Y506018D01*
G37*
G36*
X675640Y456184D02*
G01*
X667816Y455777D01*
X660755Y454609D01*
X654405Y452678D01*
X648766Y450138D01*
X643839Y446938D01*
X639622Y443179D01*
X636066Y438912D01*
X633171Y434187D01*
X630936Y429056D01*
X629361Y423570D01*
X628446Y417779D01*
X628142Y411734D01*
X628599Y405130D01*
X629869Y399237D01*
X631901Y393801D01*
X634492Y388620D01*
X589280Y392684D01*
X589280Y449072D01*
X575056Y449072D01*
X575056Y377952D01*
X644144Y373380D01*
X649986Y382524D01*
X646125Y388569D01*
X643331Y394411D01*
X641654Y400608D01*
X641096Y407670D01*
X641705Y414578D01*
X643483Y420776D01*
X646430Y426212D01*
X650443Y430784D01*
X655472Y434441D01*
X661466Y437184D01*
X668375Y438861D01*
X676148Y439420D01*
X684123Y438759D01*
X691286Y436829D01*
X697534Y433832D01*
X702818Y429818D01*
X707034Y424992D01*
X710133Y419506D01*
X712063Y413410D01*
X712724Y406908D01*
X712368Y400558D01*
X711301Y394766D01*
X709676Y389534D01*
X707593Y384810D01*
X705053Y380492D01*
X702208Y376529D01*
X699160Y372922D01*
X695960Y369570D01*
X706882Y361188D01*
X710590Y365201D01*
X714095Y369570D01*
X717448Y374446D01*
X720394Y379831D01*
X722884Y385826D01*
X724763Y392531D01*
X725982Y399948D01*
X726440Y408178D01*
X726084Y414274D01*
X724916Y420268D01*
X723087Y426059D01*
X720496Y431596D01*
X717194Y436727D01*
X713232Y441401D01*
X708558Y445617D01*
X703275Y449224D01*
X697280Y452170D01*
X690676Y454355D01*
X683463Y455726D01*
G37*
G36*
X1166876Y1484884D02*
G01*
X1161491Y1484680D01*
X1156208Y1484020D01*
X1151178Y1482953D01*
X1146302Y1481480D01*
X1141628Y1479600D01*
X1137208Y1477365D01*
X1132992Y1474673D01*
X1128979Y1471676D01*
X1125270Y1468221D01*
X1121765Y1464462D01*
X1118616Y1460347D01*
X1115669Y1455877D01*
X1113078Y1451051D01*
X1110792Y1445869D01*
X1108811Y1440434D01*
X1107135Y1434642D01*
X1105865Y1428496D01*
X1104900Y1422095D01*
X1104341Y1415389D01*
X1104138Y1408430D01*
X1121410Y1408430D01*
X1121613Y1415389D01*
X1122222Y1422044D01*
X1123238Y1428292D01*
X1124661Y1434134D01*
X1126439Y1439621D01*
X1128572Y1444701D01*
X1131062Y1449374D01*
X1133856Y1453591D01*
X1137005Y1457350D01*
X1140460Y1460652D01*
X1144168Y1463497D01*
X1148181Y1465884D01*
X1152499Y1467713D01*
X1157071Y1469085D01*
X1161846Y1469898D01*
X1166876Y1470152D01*
X1171956Y1469898D01*
X1176782Y1469085D01*
X1181354Y1467713D01*
X1185722Y1465884D01*
X1189736Y1463497D01*
X1193495Y1460652D01*
X1196949Y1457350D01*
X1200099Y1453591D01*
X1202944Y1449374D01*
X1205433Y1444701D01*
X1207566Y1439621D01*
X1209344Y1434134D01*
X1210767Y1428292D01*
X1211783Y1422044D01*
X1212392Y1415389D01*
X1212596Y1408430D01*
X1212392Y1401470D01*
X1211783Y1394815D01*
X1210767Y1388516D01*
X1209344Y1382572D01*
X1207566Y1376984D01*
X1205433Y1371854D01*
X1202944Y1367078D01*
X1200099Y1362760D01*
X1196949Y1358900D01*
X1193495Y1355496D01*
X1189736Y1352550D01*
X1185722Y1350162D01*
X1181354Y1348232D01*
X1176782Y1346809D01*
X1171956Y1345996D01*
X1166876Y1345692D01*
X1161846Y1345996D01*
X1157071Y1346809D01*
X1152499Y1348232D01*
X1148181Y1350162D01*
X1144168Y1352550D01*
X1140460Y1355496D01*
X1137005Y1358900D01*
X1133856Y1362760D01*
X1131062Y1367078D01*
X1128572Y1371854D01*
X1126439Y1376984D01*
X1124661Y1382572D01*
X1123238Y1388516D01*
X1122222Y1394815D01*
X1121613Y1401470D01*
X1121410Y1408430D01*
X1104138Y1408430D01*
X1104341Y1401419D01*
X1104900Y1394714D01*
X1105865Y1388262D01*
X1107135Y1382115D01*
X1108811Y1376273D01*
X1110792Y1370736D01*
X1113078Y1365554D01*
X1115669Y1360627D01*
X1118616Y1356106D01*
X1121765Y1351889D01*
X1125270Y1348028D01*
X1128979Y1344574D01*
X1132992Y1341424D01*
X1137208Y1338732D01*
X1141628Y1336395D01*
X1146302Y1334465D01*
X1151178Y1332941D01*
X1156208Y1331823D01*
X1161491Y1331163D01*
X1166876Y1330960D01*
X1172362Y1331163D01*
X1177645Y1331823D01*
X1182776Y1332941D01*
X1187653Y1334465D01*
X1192377Y1336395D01*
X1196848Y1338732D01*
X1201064Y1341424D01*
X1205077Y1344574D01*
X1208786Y1348028D01*
X1212291Y1351889D01*
X1215491Y1356106D01*
X1218387Y1360627D01*
X1220978Y1365554D01*
X1223264Y1370736D01*
X1225245Y1376273D01*
X1226870Y1382115D01*
X1228191Y1388262D01*
X1229106Y1394714D01*
X1229664Y1401419D01*
X1229868Y1408430D01*
X1229664Y1415389D01*
X1229106Y1422095D01*
X1228191Y1428496D01*
X1226870Y1434642D01*
X1225245Y1440434D01*
X1223264Y1445869D01*
X1220978Y1451051D01*
X1218387Y1455877D01*
X1215491Y1460347D01*
X1212291Y1464462D01*
X1208786Y1468221D01*
X1205077Y1471676D01*
X1201064Y1474673D01*
X1196848Y1477365D01*
X1192377Y1479600D01*
X1187653Y1481480D01*
X1182776Y1482953D01*
X1177645Y1484020D01*
X1172362Y1484680D01*
G37*
G36*
X1262634Y1482344D02*
G01*
X1262634Y1333500D01*
X1278636Y1333500D01*
X1278585Y1420825D01*
X1277924Y1437944D01*
X1276604Y1460246D01*
X1277620Y1460246D01*
X1293876Y1429766D01*
X1349756Y1333500D01*
X1367028Y1333500D01*
X1367028Y1482344D01*
X1351026Y1482344D01*
X1351076Y1396085D01*
X1352143Y1372616D01*
X1353312Y1355344D01*
X1352296Y1355344D01*
X1336294Y1385824D01*
X1279906Y1482344D01*
G37*
G36*
X1141476Y1891284D02*
G01*
X1136091Y1891080D01*
X1130808Y1890420D01*
X1125778Y1889353D01*
X1120902Y1887880D01*
X1116228Y1886000D01*
X1111808Y1883765D01*
X1107592Y1881073D01*
X1103579Y1878075D01*
X1099870Y1874621D01*
X1096365Y1870862D01*
X1093216Y1866747D01*
X1090269Y1862277D01*
X1087678Y1857451D01*
X1085392Y1852269D01*
X1083411Y1846834D01*
X1081735Y1841042D01*
X1080465Y1834896D01*
X1079500Y1828495D01*
X1078941Y1821789D01*
X1078738Y1814830D01*
X1096010Y1814830D01*
X1096213Y1821789D01*
X1096822Y1828444D01*
X1097838Y1834692D01*
X1099261Y1840534D01*
X1101039Y1846021D01*
X1103172Y1851101D01*
X1105662Y1855774D01*
X1108456Y1859991D01*
X1111605Y1863750D01*
X1115060Y1867052D01*
X1118768Y1869897D01*
X1122781Y1872284D01*
X1127099Y1874113D01*
X1131671Y1875485D01*
X1136446Y1876298D01*
X1141476Y1876552D01*
X1146556Y1876298D01*
X1151382Y1875485D01*
X1155954Y1874113D01*
X1160322Y1872284D01*
X1164336Y1869897D01*
X1168095Y1867052D01*
X1171549Y1863750D01*
X1174699Y1859991D01*
X1177544Y1855774D01*
X1180033Y1851101D01*
X1182166Y1846021D01*
X1183944Y1840534D01*
X1185367Y1834692D01*
X1186383Y1828444D01*
X1186992Y1821789D01*
X1187196Y1814830D01*
X1186992Y1807870D01*
X1186383Y1801215D01*
X1185367Y1794916D01*
X1183944Y1788972D01*
X1182166Y1783384D01*
X1180033Y1778254D01*
X1177544Y1773478D01*
X1174699Y1769160D01*
X1171549Y1765300D01*
X1168095Y1761896D01*
X1164336Y1758950D01*
X1160322Y1756562D01*
X1155954Y1754632D01*
X1151382Y1753209D01*
X1146556Y1752396D01*
X1141476Y1752092D01*
X1136446Y1752396D01*
X1131671Y1753209D01*
X1127099Y1754632D01*
X1122781Y1756562D01*
X1118768Y1758950D01*
X1115060Y1761896D01*
X1111605Y1765300D01*
X1108456Y1769160D01*
X1105662Y1773478D01*
X1103172Y1778254D01*
X1101039Y1783384D01*
X1099261Y1788972D01*
X1097838Y1794916D01*
X1096822Y1801215D01*
X1096213Y1807870D01*
X1096010Y1814830D01*
X1078738Y1814830D01*
X1078941Y1807819D01*
X1079500Y1801114D01*
X1080465Y1794662D01*
X1081735Y1788515D01*
X1083411Y1782673D01*
X1085392Y1777136D01*
X1087678Y1771954D01*
X1090269Y1767027D01*
X1093216Y1762506D01*
X1096365Y1758289D01*
X1099870Y1754428D01*
X1103579Y1750974D01*
X1107592Y1747824D01*
X1111808Y1745132D01*
X1116228Y1742795D01*
X1120902Y1740865D01*
X1125778Y1739341D01*
X1130808Y1738223D01*
X1136091Y1737563D01*
X1141476Y1737360D01*
X1146962Y1737563D01*
X1152245Y1738223D01*
X1157376Y1739341D01*
X1162253Y1740865D01*
X1166977Y1742795D01*
X1171448Y1745132D01*
X1175664Y1747824D01*
X1179677Y1750974D01*
X1183386Y1754428D01*
X1186891Y1758289D01*
X1190091Y1762506D01*
X1192987Y1767027D01*
X1195578Y1771954D01*
X1197864Y1777136D01*
X1199845Y1782673D01*
X1201470Y1788515D01*
X1202791Y1794662D01*
X1203706Y1801114D01*
X1204264Y1807819D01*
X1204468Y1814830D01*
X1204264Y1821789D01*
X1203706Y1828495D01*
X1202791Y1834896D01*
X1201470Y1841042D01*
X1199845Y1846834D01*
X1197864Y1852269D01*
X1195578Y1857451D01*
X1192987Y1862277D01*
X1190091Y1866747D01*
X1186891Y1870862D01*
X1183386Y1874621D01*
X1179677Y1878075D01*
X1175664Y1881073D01*
X1171448Y1883765D01*
X1166977Y1886000D01*
X1162253Y1887880D01*
X1157376Y1889353D01*
X1152245Y1890420D01*
X1146962Y1891080D01*
G37*
G36*
X1348232Y1888743D02*
G01*
X1348232Y1739900D01*
X1364996Y1739900D01*
X1364996Y1807718D01*
X1422400Y1807718D01*
X1422400Y1821942D01*
X1364996Y1821942D01*
X1364996Y1874520D01*
X1432814Y1874520D01*
X1432814Y1888743D01*
G37*
G36*
X1237234Y1888743D02*
G01*
X1237234Y1739900D01*
X1254252Y1739900D01*
X1254252Y1807718D01*
X1311402Y1807718D01*
X1311402Y1821942D01*
X1254252Y1821942D01*
X1254252Y1874520D01*
X1321816Y1874520D01*
X1321816Y1888743D01*
G37*
G36*
X661670Y3489198D02*
G01*
X654710Y3488994D01*
X648004Y3488436D01*
X641604Y3487470D01*
X635457Y3486200D01*
X629666Y3484524D01*
X624230Y3482543D01*
X619048Y3480257D01*
X614222Y3477615D01*
X609752Y3474720D01*
X605637Y3471519D01*
X601878Y3468014D01*
X598424Y3464306D01*
X595426Y3460292D01*
X592734Y3456076D01*
X590499Y3451606D01*
X588619Y3446881D01*
X587146Y3442004D01*
X586079Y3436924D01*
X585419Y3431641D01*
X585216Y3426206D01*
X599948Y3426206D01*
X600202Y3431286D01*
X601014Y3436112D01*
X602386Y3440684D01*
X604215Y3445052D01*
X606602Y3449065D01*
X609447Y3452825D01*
X612749Y3456279D01*
X616508Y3459429D01*
X620725Y3462274D01*
X625398Y3464763D01*
X630478Y3466896D01*
X635965Y3468674D01*
X641807Y3470097D01*
X648055Y3471113D01*
X654710Y3471722D01*
X661670Y3471926D01*
X668629Y3471722D01*
X675284Y3471113D01*
X681583Y3470097D01*
X687527Y3468674D01*
X693115Y3466896D01*
X698246Y3464763D01*
X703021Y3462274D01*
X707339Y3459429D01*
X711200Y3456279D01*
X714603Y3452825D01*
X717550Y3449065D01*
X719988Y3445052D01*
X721868Y3440684D01*
X723290Y3436112D01*
X724103Y3431286D01*
X724408Y3426206D01*
X724103Y3421176D01*
X723290Y3416401D01*
X721868Y3411829D01*
X719937Y3407511D01*
X717550Y3403498D01*
X714603Y3399790D01*
X711200Y3396335D01*
X707339Y3393186D01*
X703021Y3390392D01*
X698246Y3387902D01*
X693115Y3385769D01*
X687527Y3383991D01*
X681583Y3382568D01*
X675284Y3381552D01*
X668629Y3380943D01*
X661670Y3380740D01*
X654710Y3380943D01*
X648055Y3381552D01*
X641807Y3382568D01*
X635965Y3383991D01*
X630478Y3385769D01*
X625398Y3387902D01*
X620725Y3390392D01*
X616508Y3393186D01*
X612749Y3396335D01*
X609447Y3399790D01*
X606602Y3403498D01*
X604215Y3407511D01*
X602386Y3411829D01*
X601014Y3416401D01*
X600202Y3421176D01*
X599948Y3426206D01*
X585216Y3426206D01*
X585419Y3420770D01*
X586079Y3415487D01*
X587146Y3410407D01*
X588619Y3405530D01*
X590499Y3400856D01*
X592734Y3396437D01*
X595426Y3392170D01*
X598424Y3388207D01*
X601878Y3384499D01*
X605637Y3381044D01*
X609752Y3377844D01*
X614222Y3374948D01*
X619048Y3372358D01*
X624230Y3370072D01*
X629666Y3368090D01*
X635457Y3366465D01*
X641604Y3365144D01*
X648004Y3364229D01*
X654710Y3363671D01*
X661670Y3363468D01*
X668680Y3363671D01*
X675386Y3364229D01*
X681837Y3365144D01*
X687984Y3366465D01*
X693826Y3368090D01*
X699363Y3370072D01*
X704545Y3372358D01*
X709472Y3374948D01*
X713994Y3377844D01*
X718210Y3381044D01*
X722071Y3384499D01*
X725525Y3388207D01*
X728675Y3392170D01*
X731367Y3396437D01*
X733704Y3400856D01*
X735634Y3405530D01*
X737158Y3410407D01*
X738276Y3415487D01*
X738936Y3420770D01*
X739140Y3426206D01*
X738936Y3431641D01*
X738276Y3436924D01*
X737158Y3442004D01*
X735634Y3446881D01*
X733704Y3451606D01*
X731367Y3456076D01*
X728675Y3460292D01*
X725525Y3464306D01*
X722071Y3468014D01*
X718210Y3471519D01*
X713994Y3474720D01*
X709472Y3477615D01*
X704545Y3480257D01*
X699363Y3482543D01*
X693826Y3484524D01*
X687984Y3486200D01*
X681837Y3487470D01*
X675386Y3488436D01*
X668680Y3488994D01*
G37*
G36*
X587756Y3353308D02*
G01*
X587756Y3336290D01*
X719074Y3296920D01*
X719074Y3296158D01*
X694588Y3288588D01*
X670052Y3281426D01*
X587756Y3256534D01*
X587756Y3238754D01*
X736600Y3286506D01*
X736600Y3305810D01*
G37*
G36*
X736600Y3230626D02*
G01*
X670814Y3192272D01*
X669442Y3197352D01*
X667664Y3202076D01*
X665530Y3206445D01*
X663041Y3210509D01*
X660196Y3214116D01*
X656945Y3217367D01*
X653288Y3220161D01*
X649274Y3222498D01*
X644855Y3224326D01*
X640029Y3225698D01*
X634796Y3226511D01*
X629158Y3226816D01*
X621944Y3226358D01*
X615492Y3225139D01*
X609854Y3223056D01*
X604875Y3220212D01*
X600608Y3216706D01*
X597052Y3212490D01*
X594055Y3207664D01*
X591718Y3202228D01*
X589940Y3196285D01*
X588721Y3189782D01*
X588010Y3182874D01*
X587756Y3175508D01*
X587756Y3146806D01*
X601472Y3146806D01*
X601472Y3172714D01*
X601827Y3181248D01*
X602945Y3188716D01*
X604875Y3195116D01*
X607669Y3200450D01*
X611479Y3204616D01*
X616254Y3207613D01*
X622147Y3209442D01*
X629158Y3210052D01*
X636117Y3209442D01*
X642112Y3207613D01*
X647192Y3204616D01*
X651306Y3200450D01*
X654507Y3195116D01*
X656793Y3188716D01*
X658164Y3181248D01*
X658622Y3172714D01*
X658622Y3146806D01*
X587756Y3146806D01*
X587756Y3129788D01*
X736600Y3129788D01*
X736600Y3146806D01*
X672338Y3146806D01*
X672338Y3174492D01*
X736600Y3211830D01*
G37*
G36*
X722376Y3098292D02*
G01*
X722376Y3028188D01*
X665226Y3028188D01*
X665226Y3085084D01*
X651002Y3085084D01*
X651002Y3028188D01*
X601980Y3028188D01*
X601980Y3096006D01*
X587756Y3096006D01*
X587756Y3011170D01*
X736600Y3011170D01*
X736600Y3098292D01*
G37*
G36*
X697484Y2981452D02*
G01*
X689762Y2980842D01*
X683006Y2979064D01*
X677164Y2976219D01*
X672134Y2972460D01*
X667816Y2967939D01*
X664057Y2962706D01*
X660755Y2956915D01*
X657860Y2950718D01*
X646785Y2924759D01*
X642315Y2916224D01*
X639572Y2912414D01*
X636371Y2909112D01*
X632561Y2906522D01*
X628091Y2904845D01*
X622808Y2904236D01*
X617829Y2904794D01*
X613359Y2906318D01*
X609447Y2908858D01*
X606145Y2912262D01*
X603504Y2916428D01*
X601573Y2921406D01*
X600354Y2926994D01*
X599948Y2933192D01*
X600202Y2938373D01*
X600964Y2943250D01*
X602183Y2947873D01*
X603808Y2952242D01*
X605891Y2956356D01*
X608330Y2960268D01*
X611073Y2963976D01*
X614172Y2967482D01*
X603504Y2976372D01*
X599643Y2972308D01*
X596138Y2967837D01*
X593039Y2962910D01*
X590346Y2957626D01*
X588213Y2951988D01*
X586587Y2945993D01*
X585571Y2939745D01*
X585216Y2933192D01*
X585571Y2926740D01*
X586536Y2920593D01*
X588111Y2914853D01*
X590245Y2909519D01*
X592988Y2904642D01*
X596188Y2900273D01*
X599846Y2896463D01*
X603961Y2893263D01*
X608482Y2890672D01*
X613359Y2888792D01*
X618540Y2887624D01*
X624078Y2887218D01*
X631647Y2887929D01*
X638251Y2890012D01*
X643940Y2893161D01*
X648817Y2897174D01*
X652983Y2901848D01*
X656488Y2906928D01*
X659434Y2912211D01*
X661924Y2917444D01*
X673658Y2944215D01*
X676046Y2948990D01*
X678586Y2953308D01*
X681431Y2957068D01*
X684733Y2960166D01*
X688594Y2962452D01*
X693216Y2963926D01*
X698754Y2964434D01*
X704240Y2963875D01*
X709168Y2962148D01*
X713587Y2959404D01*
X717296Y2955645D01*
X720293Y2950972D01*
X722528Y2945384D01*
X723950Y2938932D01*
X724408Y2931668D01*
X724052Y2925826D01*
X723087Y2920034D01*
X721461Y2914446D01*
X719277Y2909011D01*
X716584Y2903829D01*
X713384Y2898902D01*
X709676Y2894279D01*
X705612Y2890012D01*
X717042Y2879852D01*
X721918Y2884932D01*
X726287Y2890418D01*
X730046Y2896311D01*
X733247Y2902610D01*
X735787Y2909316D01*
X737616Y2916377D01*
X738733Y2923844D01*
X739140Y2931668D01*
X738784Y2939034D01*
X737666Y2945942D01*
X735939Y2952292D01*
X733552Y2958134D01*
X730554Y2963367D01*
X727100Y2967990D01*
X723087Y2972003D01*
X718667Y2975305D01*
X713841Y2977946D01*
X708660Y2979877D01*
X703224Y2981045D01*
G37*
G36*
X3443732Y313944D02*
G01*
X3443732Y300228D01*
X3482594Y300228D01*
X3489096Y300075D01*
X3495040Y299618D01*
X3500424Y298754D01*
X3505250Y297535D01*
X3509518Y295960D01*
X3513226Y293878D01*
X3516376Y291338D01*
X3518915Y288340D01*
X3520897Y284784D01*
X3522370Y280720D01*
X3523183Y276047D01*
X3523487Y270764D01*
X3523234Y265480D01*
X3522421Y260756D01*
X3521049Y256489D01*
X3519119Y252729D01*
X3516629Y249428D01*
X3513632Y246583D01*
X3510026Y244246D01*
X3505860Y242316D01*
X3501085Y240842D01*
X3495751Y239826D01*
X3489858Y239217D01*
X3483356Y239014D01*
X3460496Y239014D01*
X3460496Y300228D01*
X3443732Y300228D01*
X3443732Y165100D01*
X3460496Y165100D01*
X3460496Y225298D01*
X3491890Y225450D01*
X3497630Y225958D01*
X3503066Y226821D01*
X3508197Y228041D01*
X3513023Y229616D01*
X3517493Y231495D01*
X3521608Y233781D01*
X3525367Y236423D01*
X3528720Y239420D01*
X3531717Y242773D01*
X3534257Y246481D01*
X3536391Y250596D01*
X3538067Y255066D01*
X3539236Y259892D01*
X3539998Y265125D01*
X3540251Y270764D01*
X3539998Y276504D01*
X3539236Y281787D01*
X3538016Y286613D01*
X3536340Y291033D01*
X3534156Y294944D01*
X3531565Y298500D01*
X3528568Y301599D01*
X3525113Y304342D01*
X3521303Y306730D01*
X3517137Y308711D01*
X3512565Y310388D01*
X3507689Y311708D01*
X3502456Y312724D01*
X3496868Y313385D01*
X3491026Y313791D01*
X3484879Y313944D01*
G37*
G36*
X3297682Y313944D02*
G01*
X3297682Y225552D01*
X3297936Y217017D01*
X3298748Y209194D01*
X3300018Y202082D01*
X3301796Y195681D01*
X3303981Y189890D01*
X3306622Y184759D01*
X3309620Y180187D01*
X3313023Y176225D01*
X3316732Y172821D01*
X3320796Y169976D01*
X3325114Y167589D01*
X3329736Y165709D01*
X3334562Y164287D01*
X3339592Y163322D01*
X3344875Y162763D01*
X3350260Y162560D01*
X3355644Y162763D01*
X3360928Y163322D01*
X3365957Y164287D01*
X3370783Y165709D01*
X3375406Y167589D01*
X3379724Y169976D01*
X3383787Y172821D01*
X3387496Y176225D01*
X3390900Y180187D01*
X3393897Y184759D01*
X3396538Y189890D01*
X3398723Y195681D01*
X3400501Y202082D01*
X3401771Y209194D01*
X3402584Y217017D01*
X3402837Y225552D01*
X3402837Y313944D01*
X3386836Y313944D01*
X3386836Y225298D01*
X3386480Y216662D01*
X3385515Y209042D01*
X3383940Y202387D01*
X3381806Y196596D01*
X3379165Y191668D01*
X3376066Y187553D01*
X3372561Y184251D01*
X3368649Y181610D01*
X3364433Y179628D01*
X3359912Y178308D01*
X3355187Y177546D01*
X3350260Y177292D01*
X3345383Y177546D01*
X3340709Y178308D01*
X3336290Y179628D01*
X3332175Y181610D01*
X3328365Y184251D01*
X3324910Y187553D01*
X3321913Y191668D01*
X3319322Y196596D01*
X3317240Y202387D01*
X3315715Y209042D01*
X3314750Y216662D01*
X3314446Y225298D01*
X3314446Y313944D01*
G37*
G36*
X3118104Y313944D02*
G01*
X3118104Y299720D01*
X3163316Y299720D01*
X3163316Y165100D01*
X3180334Y165100D01*
X3180334Y299720D01*
X3225800Y299720D01*
X3225800Y313944D01*
G37*
G36*
X3007868Y313944D02*
G01*
X3048762Y241808D01*
X3005328Y165100D01*
X3022600Y165100D01*
X3048101Y212090D01*
X3057398Y230632D01*
X3058160Y230632D01*
X3093974Y165100D01*
X3112516Y165100D01*
X3068828Y241046D01*
X3109722Y313944D01*
X3092196Y313944D01*
X3068421Y269392D01*
X3060446Y252984D01*
X3059430Y252984D01*
X3053384Y264414D01*
X3047746Y274320D01*
X3026664Y313944D01*
G37*
G36*
X2903728Y313944D02*
G01*
X2903728Y165100D01*
X2990596Y165100D01*
X2990596Y179324D01*
X2920492Y179324D01*
X2920492Y236474D01*
X2977642Y236474D01*
X2977642Y250698D01*
X2920492Y250698D01*
X2920492Y299720D01*
X2988310Y299720D01*
X2988310Y313944D01*
G37*
G36*
X2230628Y301244D02*
G01*
X2230628Y152400D01*
X2246376Y152400D01*
X2246325Y239725D01*
X2245664Y256844D01*
X2244344Y279146D01*
X2245360Y279146D01*
X2261616Y248666D01*
X2317496Y152400D01*
X2335022Y152400D01*
X2335022Y301244D01*
X2319020Y301244D01*
X2319070Y214985D01*
X2319375Y203250D01*
X2321052Y174244D01*
X2320036Y174244D01*
X2304034Y204724D01*
X2247900Y301244D01*
G37*
G36*
X2091689Y301244D02*
G01*
X2091689Y287274D01*
X2126996Y287274D01*
X2133549Y287020D01*
X2139645Y286258D01*
X2145334Y284988D01*
X2150567Y283260D01*
X2155393Y281025D01*
X2159812Y278333D01*
X2163775Y275183D01*
X2167331Y271576D01*
X2170430Y267512D01*
X2173122Y263042D01*
X2175408Y258114D01*
X2177288Y252780D01*
X2178710Y246989D01*
X2179777Y240842D01*
X2180386Y234289D01*
X2180590Y227329D01*
X2180386Y220421D01*
X2179777Y213817D01*
X2178710Y207619D01*
X2177288Y201777D01*
X2175408Y196342D01*
X2173122Y191312D01*
X2170430Y186690D01*
X2167331Y182524D01*
X2163775Y178765D01*
X2159812Y175514D01*
X2155393Y172669D01*
X2150567Y170383D01*
X2145334Y168503D01*
X2139645Y167182D01*
X2133549Y166370D01*
X2126996Y166116D01*
X2108708Y166116D01*
X2108708Y287274D01*
X2091689Y287274D01*
X2091689Y152400D01*
X2129028Y152400D01*
X2135632Y152603D01*
X2141880Y153212D01*
X2147824Y154279D01*
X2153462Y155702D01*
X2158746Y157530D01*
X2163724Y159766D01*
X2168347Y162356D01*
X2172665Y165303D01*
X2176678Y168656D01*
X2180285Y172364D01*
X2183587Y176377D01*
X2186584Y180746D01*
X2189226Y185470D01*
X2191512Y190550D01*
X2193442Y195884D01*
X2195017Y201574D01*
X2196236Y207568D01*
X2197150Y213867D01*
X2197658Y220471D01*
X2197862Y227329D01*
X2197658Y234188D01*
X2197150Y240741D01*
X2196236Y247040D01*
X2195017Y252984D01*
X2193391Y258571D01*
X2191461Y263906D01*
X2189175Y268884D01*
X2186533Y273558D01*
X2183536Y277825D01*
X2180234Y281838D01*
X2176526Y285445D01*
X2172512Y288696D01*
X2168144Y291592D01*
X2163470Y294132D01*
X2158441Y296265D01*
X2153056Y298043D01*
X2147366Y299415D01*
X2141321Y300431D01*
X2134971Y301040D01*
X2128266Y301244D01*
G37*
G36*
X1911604Y301244D02*
G01*
X1911604Y287020D01*
X1956816Y287020D01*
X1956816Y152400D01*
X1973834Y152400D01*
X1973834Y287020D01*
X2019300Y287020D01*
X2019300Y301244D01*
G37*
G36*
X1801368Y301244D02*
G01*
X1842262Y229108D01*
X1798828Y152400D01*
X1816100Y152400D01*
X1841601Y199390D01*
X1850898Y217932D01*
X1851660Y217932D01*
X1887474Y152400D01*
X1906016Y152400D01*
X1862328Y228346D01*
X1903222Y301244D01*
X1885696Y301244D01*
X1861921Y256692D01*
X1853946Y240284D01*
X1852930Y240284D01*
X1846884Y251714D01*
X1841246Y261620D01*
X1820164Y301244D01*
G37*
G36*
X1697228Y301244D02*
G01*
X1697228Y152400D01*
X1784096Y152400D01*
X1784096Y166624D01*
X1713992Y166624D01*
X1713992Y223774D01*
X1771142Y223774D01*
X1771142Y237998D01*
X1713992Y237998D01*
X1713992Y287020D01*
X1781810Y287020D01*
X1781810Y301244D01*
G37*
G36*
X4824476Y2151380D02*
G01*
X4824476Y2085593D01*
X4689856Y2085593D01*
X4689856Y2068830D01*
X4838700Y2068830D01*
X4838700Y2151380D01*
G37*
G36*
X4824476Y2037080D02*
G01*
X4824476Y1966975D01*
X4767326Y1966975D01*
X4767326Y2024125D01*
X4753102Y2024125D01*
X4753102Y1966975D01*
X4704080Y1966975D01*
X4704080Y2034793D01*
X4689856Y2034793D01*
X4689856Y1950212D01*
X4838700Y1950212D01*
X4838700Y2037080D01*
G37*
G36*
X4689856Y1908556D02*
G01*
X4689856Y1892554D01*
X4776114Y1892604D01*
X4799584Y1893671D01*
X4816856Y1894839D01*
X4816856Y1893824D01*
X4786376Y1877822D01*
X4689856Y1821434D01*
X4689856Y1804162D01*
X4838700Y1804162D01*
X4838700Y1820164D01*
X4751374Y1820113D01*
X4734255Y1819452D01*
X4711954Y1818132D01*
X4711954Y1819148D01*
X4742434Y1835404D01*
X4838700Y1891284D01*
X4838700Y1908556D01*
G37*
G36*
X4838700Y1782572D02*
G01*
X4689856Y1731772D01*
X4689856Y1721612D01*
X4704080Y1721612D01*
X4704080Y1722628D01*
X4729429Y1730044D01*
X4754372Y1737868D01*
X4778502Y1745742D01*
X4778502Y1698752D01*
X4729530Y1714296D01*
X4704080Y1721612D01*
X4689856Y1721612D01*
X4689856Y1713230D01*
X4838700Y1662430D01*
X4838700Y1679193D01*
X4791710Y1694434D01*
X4791710Y1750060D01*
X4838700Y1764792D01*
G37*
G36*
X4733036Y1662684D02*
G01*
X4727295Y1662430D01*
X4722012Y1661668D01*
X4717186Y1660448D01*
X4712766Y1658772D01*
X4708855Y1656638D01*
X4705299Y1654098D01*
X4702200Y1651101D01*
X4699457Y1647698D01*
X4697069Y1643888D01*
X4695088Y1639722D01*
X4693412Y1635201D01*
X4692091Y1630324D01*
X4691075Y1625092D01*
X4690414Y1619554D01*
X4690008Y1613712D01*
X4689856Y1583182D01*
X4703572Y1583182D01*
X4703724Y1611528D01*
X4704181Y1617522D01*
X4705045Y1622907D01*
X4706264Y1627784D01*
X4707839Y1632051D01*
X4709922Y1635810D01*
X4712462Y1638960D01*
X4715459Y1641551D01*
X4719015Y1643583D01*
X4723079Y1645005D01*
X4727752Y1645869D01*
X4733036Y1646174D01*
X4738319Y1645920D01*
X4743043Y1645107D01*
X4747310Y1643735D01*
X4751070Y1641805D01*
X4754372Y1639316D01*
X4757216Y1636268D01*
X4759553Y1632661D01*
X4761484Y1628444D01*
X4762957Y1623669D01*
X4763973Y1618284D01*
X4764582Y1612341D01*
X4764786Y1605788D01*
X4764786Y1583182D01*
X4689856Y1583182D01*
X4689856Y1566164D01*
X4838700Y1566164D01*
X4838700Y1583182D01*
X4778502Y1583182D01*
X4778349Y1614373D01*
X4777841Y1620164D01*
X4776978Y1625600D01*
X4775758Y1630730D01*
X4774184Y1635556D01*
X4772304Y1640027D01*
X4770018Y1644142D01*
X4767376Y1647901D01*
X4764379Y1651254D01*
X4761026Y1654200D01*
X4757318Y1656740D01*
X4753203Y1658823D01*
X4748733Y1660499D01*
X4743907Y1661718D01*
X4738674Y1662430D01*
G37*
G36*
X4838700Y1494282D02*
G01*
X4772914Y1455928D01*
X4771542Y1461008D01*
X4769764Y1465732D01*
X4767630Y1470101D01*
X4765141Y1474165D01*
X4762296Y1477772D01*
X4759045Y1481023D01*
X4755388Y1483817D01*
X4751374Y1486154D01*
X4746955Y1487982D01*
X4742129Y1489354D01*
X4736896Y1490167D01*
X4731258Y1490472D01*
X4724044Y1490014D01*
X4717592Y1488795D01*
X4711954Y1486712D01*
X4706975Y1483868D01*
X4702708Y1480362D01*
X4699152Y1476146D01*
X4696155Y1471320D01*
X4693818Y1465884D01*
X4692040Y1459941D01*
X4690821Y1453438D01*
X4690110Y1446530D01*
X4689856Y1439164D01*
X4689856Y1410462D01*
X4703572Y1410462D01*
X4703572Y1436370D01*
X4703927Y1444904D01*
X4705045Y1452372D01*
X4706975Y1458772D01*
X4709820Y1464106D01*
X4713579Y1468272D01*
X4718354Y1471269D01*
X4724247Y1473098D01*
X4731258Y1473708D01*
X4738217Y1473098D01*
X4744212Y1471269D01*
X4749292Y1468272D01*
X4753406Y1464106D01*
X4756607Y1458772D01*
X4758893Y1452372D01*
X4760264Y1444904D01*
X4760722Y1436370D01*
X4760722Y1410462D01*
X4689856Y1410462D01*
X4689856Y1393444D01*
X4838700Y1393444D01*
X4838700Y1410462D01*
X4774438Y1410462D01*
X4774438Y1438148D01*
X4838700Y1475486D01*
G37*
G36*
X4824476Y1361948D02*
G01*
X4824476Y1291844D01*
X4767326Y1291844D01*
X4767326Y1348740D01*
X4753102Y1348740D01*
X4753102Y1291844D01*
X4704080Y1291844D01*
X4704080Y1359662D01*
X4689856Y1359662D01*
X4689856Y1274826D01*
X4838700Y1274826D01*
X4838700Y1361948D01*
G37*
G36*
X4799584Y1245108D02*
G01*
X4791862Y1244498D01*
X4785106Y1242720D01*
X4779264Y1239875D01*
X4774234Y1236116D01*
X4769916Y1231595D01*
X4766157Y1226362D01*
X4762855Y1220571D01*
X4759960Y1214374D01*
X4748885Y1188415D01*
X4744415Y1179880D01*
X4741672Y1176070D01*
X4738471Y1172768D01*
X4734661Y1170178D01*
X4730191Y1168501D01*
X4724908Y1167892D01*
X4719929Y1168450D01*
X4715459Y1169974D01*
X4711547Y1172514D01*
X4708245Y1175867D01*
X4705604Y1180084D01*
X4703673Y1185011D01*
X4702454Y1190650D01*
X4702048Y1196848D01*
X4702302Y1202029D01*
X4703064Y1206906D01*
X4704283Y1211529D01*
X4705908Y1215898D01*
X4707991Y1220012D01*
X4710430Y1223924D01*
X4713173Y1227632D01*
X4716272Y1231138D01*
X4705604Y1240028D01*
X4701743Y1235964D01*
X4698238Y1231493D01*
X4695139Y1226566D01*
X4692446Y1221282D01*
X4690313Y1215644D01*
X4688687Y1209649D01*
X4687671Y1203401D01*
X4687316Y1196848D01*
X4687671Y1190396D01*
X4688636Y1184249D01*
X4690211Y1178509D01*
X4692345Y1173175D01*
X4695088Y1168298D01*
X4698288Y1163980D01*
X4701946Y1160119D01*
X4706061Y1156919D01*
X4710582Y1154328D01*
X4715459Y1152448D01*
X4720640Y1151280D01*
X4726178Y1150874D01*
X4733747Y1151585D01*
X4740351Y1153668D01*
X4746040Y1156817D01*
X4750917Y1160830D01*
X4755083Y1165504D01*
X4758588Y1170584D01*
X4761534Y1175867D01*
X4764024Y1181100D01*
X4775758Y1207871D01*
X4778146Y1212646D01*
X4780686Y1216964D01*
X4783531Y1220724D01*
X4786833Y1223822D01*
X4790694Y1226108D01*
X4795316Y1227582D01*
X4800854Y1228090D01*
X4806340Y1227531D01*
X4811268Y1225804D01*
X4815687Y1223060D01*
X4819396Y1219352D01*
X4822393Y1214628D01*
X4824628Y1209040D01*
X4826050Y1202588D01*
X4826508Y1195324D01*
X4826152Y1189482D01*
X4825187Y1183690D01*
X4823561Y1178102D01*
X4821377Y1172667D01*
X4818684Y1167485D01*
X4815484Y1162558D01*
X4811776Y1157935D01*
X4807712Y1153668D01*
X4819142Y1143508D01*
X4824018Y1148588D01*
X4828387Y1154074D01*
X4832146Y1159967D01*
X4835347Y1166266D01*
X4837887Y1172972D01*
X4839716Y1180033D01*
X4840833Y1187500D01*
X4841240Y1195324D01*
X4840884Y1202690D01*
X4839766Y1209598D01*
X4838039Y1215948D01*
X4835652Y1221790D01*
X4832654Y1227023D01*
X4829200Y1231646D01*
X4825187Y1235659D01*
X4820767Y1238961D01*
X4815941Y1241602D01*
X4810760Y1243533D01*
X4805324Y1244701D01*
G37*
G36*
X4689856Y1116076D02*
G01*
X4689856Y1099820D01*
X4778502Y1099820D01*
X4787138Y1099464D01*
X4794758Y1098499D01*
X4801412Y1096975D01*
X4807204Y1094841D01*
X4812131Y1092250D01*
X4816195Y1089152D01*
X4819548Y1085646D01*
X4822190Y1081735D01*
X4824171Y1077518D01*
X4825492Y1072997D01*
X4826254Y1068222D01*
X4826508Y1063244D01*
X4826254Y1058418D01*
X4825492Y1053795D01*
X4824171Y1049426D01*
X4822190Y1045311D01*
X4819548Y1041552D01*
X4816195Y1038148D01*
X4812131Y1035100D01*
X4807204Y1032560D01*
X4801412Y1030478D01*
X4794758Y1028953D01*
X4787138Y1027988D01*
X4778502Y1027684D01*
X4689856Y1027684D01*
X4689856Y1010666D01*
X4778248Y1010666D01*
X4786782Y1010919D01*
X4794605Y1011732D01*
X4801717Y1013002D01*
X4808118Y1014780D01*
X4813909Y1016965D01*
X4819040Y1019606D01*
X4823612Y1022603D01*
X4827574Y1026007D01*
X4830978Y1029716D01*
X4833823Y1033780D01*
X4836210Y1038098D01*
X4838090Y1042720D01*
X4839512Y1047546D01*
X4840478Y1052576D01*
X4841036Y1057859D01*
X4841240Y1063244D01*
X4841036Y1068679D01*
X4840478Y1073962D01*
X4839512Y1079042D01*
X4838090Y1083919D01*
X4836210Y1088542D01*
X4833823Y1092911D01*
X4830978Y1096975D01*
X4827574Y1100683D01*
X4823612Y1104087D01*
X4819040Y1107135D01*
X4813909Y1109776D01*
X4808118Y1111961D01*
X4801717Y1113739D01*
X4794605Y1115009D01*
X4786782Y1115822D01*
X4778248Y1116076D01*
G37*
D23*
X4522470Y2299715D02*
G01*
X4522470Y2216657D01*
X4517136Y2200910D01*
X4512056Y2195829D01*
X4501641Y2190750D01*
X4491227Y2190750D01*
X4480813Y2195829D01*
X4475479Y2200910D01*
X4470400Y2216657D01*
X4470400Y2227071D01*
X4618990Y2299715D02*
G01*
X4566920Y2299715D01*
X4561840Y2252979D01*
X4566920Y2258060D01*
X4582668Y2263394D01*
X4598161Y2263394D01*
X4613909Y2258060D01*
X4624070Y2247900D01*
X4629404Y2232152D01*
X4629404Y2221737D01*
X4624070Y2206244D01*
X4613909Y2195829D01*
X4598161Y2190750D01*
X4582668Y2190750D01*
X4566920Y2195829D01*
X4561840Y2200910D01*
X4556759Y2211323D01*
X2424684Y458470D02*
G01*
X2507741Y458470D01*
X2523490Y453136D01*
X2528570Y448055D01*
X2533650Y437642D01*
X2533650Y427228D01*
X2528570Y416813D01*
X2523490Y411479D01*
X2507741Y406400D01*
X2497327Y406400D01*
X2424684Y502920D02*
G01*
X2424684Y560070D01*
X2466340Y529081D01*
X2466340Y544576D01*
X2471420Y554989D01*
X2476500Y560070D01*
X2492247Y565404D01*
X2502661Y565404D01*
X2518156Y560070D01*
X2528570Y549910D01*
X2533650Y534162D01*
X2533650Y518668D01*
X2528570Y502920D01*
X2523490Y497839D01*
X2513075Y492760D01*
X3631184Y483870D02*
G01*
X3714241Y483870D01*
X3729990Y478536D01*
X3735070Y473455D01*
X3740150Y463042D01*
X3740150Y452628D01*
X3735070Y442213D01*
X3729990Y436879D01*
X3714241Y431800D01*
X3703827Y431800D01*
X3631184Y569976D02*
G01*
X3703827Y518160D01*
X3703827Y595884D01*
X3631184Y569976D02*
G01*
X3740150Y569976D01*
X456184Y3201670D02*
G01*
X539242Y3201670D01*
X554989Y3196336D01*
X560070Y3191255D01*
X565150Y3180842D01*
X565150Y3170428D01*
X560070Y3160013D01*
X554989Y3154679D01*
X539242Y3149600D01*
X528828Y3149600D01*
X477012Y3235960D02*
G01*
X471678Y3246120D01*
X456184Y3261868D01*
X565150Y3261868D01*
X877570Y432815D02*
G01*
X877570Y349757D01*
X872236Y334010D01*
X867155Y328929D01*
X856742Y323850D01*
X846328Y323850D01*
X835913Y328929D01*
X830579Y334010D01*
X825500Y349757D01*
X825500Y360171D01*
X916939Y406907D02*
G01*
X916939Y411987D01*
X922020Y422402D01*
X927354Y427736D01*
X937768Y432815D01*
X958595Y432815D01*
X969010Y427736D01*
X974089Y422402D01*
X979170Y411987D01*
X979170Y401573D01*
X974089Y391160D01*
X963676Y375665D01*
X911860Y323850D01*
X984504Y323850D01*
X3060700Y1004315D02*
G01*
X3060700Y895350D01*
X3060700Y1004315D02*
G01*
X3107436Y1004315D01*
X3122929Y999236D01*
X3128263Y993902D01*
X3133343Y983487D01*
X3133343Y973073D01*
X3128263Y962660D01*
X3122929Y957579D01*
X3107436Y952500D01*
X3060700Y952500D01*
X3097022Y952500D02*
G01*
X3133343Y895350D01*
X3230118Y988821D02*
G01*
X3224784Y999236D01*
X3209290Y1004315D01*
X3198875Y1004315D01*
X3183381Y999236D01*
X3172968Y983487D01*
X3167634Y957579D01*
X3167634Y931671D01*
X3172968Y910844D01*
X3183381Y900429D01*
X3198875Y895350D01*
X3204209Y895350D01*
X3219704Y900429D01*
X3230118Y910844D01*
X3235197Y926337D01*
X3235197Y931671D01*
X3230118Y947165D01*
X3219704Y957579D01*
X3204209Y962660D01*
X3198875Y962660D01*
X3183381Y957579D01*
X3172968Y947165D01*
X3167634Y931671D01*
X4153915Y1041400D02*
G01*
X4044950Y1041400D01*
X4153915Y1041400D02*
G01*
X4153915Y994663D01*
X4148836Y979170D01*
X4143502Y973836D01*
X4133088Y968755D01*
X4122674Y968755D01*
X4112259Y973836D01*
X4107179Y979170D01*
X4102100Y994663D01*
X4102100Y1041400D01*
X4102100Y1005078D02*
G01*
X4044950Y968755D01*
X4153915Y861568D02*
G01*
X4044950Y913637D01*
X4153915Y934465D02*
G01*
X4153915Y861568D01*
X662178Y1660144D02*
G01*
X651763Y1649729D01*
X646684Y1634236D01*
X646684Y1613407D01*
X651763Y1597913D01*
X662178Y1587500D01*
X672592Y1587500D01*
X683005Y1592579D01*
X688339Y1597913D01*
X693420Y1608328D01*
X703834Y1639570D01*
X708913Y1649729D01*
X714247Y1655063D01*
X724662Y1660144D01*
X740155Y1660144D01*
X750570Y1649729D01*
X755650Y1634236D01*
X755650Y1613407D01*
X750570Y1597913D01*
X740155Y1587500D01*
X667512Y1694434D02*
G01*
X662178Y1704847D01*
X646684Y1720595D01*
X755650Y1720595D01*
X2351277Y1753107D02*
G01*
X2345943Y1763521D01*
X2335529Y1773936D01*
X2325370Y1779015D01*
X2304541Y1779015D01*
X2294127Y1773936D01*
X2283713Y1763521D01*
X2278379Y1753107D01*
X2273300Y1737360D01*
X2273300Y1711452D01*
X2278379Y1695957D01*
X2283713Y1685544D01*
X2294127Y1675129D01*
X2304541Y1670050D01*
X2325370Y1670050D01*
X2335529Y1675129D01*
X2345943Y1685544D01*
X2351277Y1695957D01*
X2385568Y1758187D02*
G01*
X2395981Y1763521D01*
X2411475Y1779015D01*
X2411475Y1670050D01*
X2451102Y2236215D02*
G01*
X2451102Y2158237D01*
X2456182Y2142744D01*
X2466596Y2132329D01*
X2482344Y2127250D01*
X2492758Y2127250D01*
X2508252Y2132329D01*
X2518666Y2142744D01*
X2523746Y2158237D01*
X2523746Y2236215D01*
X2558036Y2215387D02*
G01*
X2568450Y2220721D01*
X2584198Y2236215D01*
X2584198Y2127250D01*
X4559300Y2680715D02*
G01*
X4559300Y2571750D01*
X4559300Y2680715D02*
G01*
X4606036Y2680715D01*
X4621529Y2675636D01*
X4626863Y2670302D01*
X4631943Y2659887D01*
X4631943Y2649473D01*
X4626863Y2639060D01*
X4621529Y2633979D01*
X4606036Y2628900D01*
X4559300Y2628900D01*
X4595622Y2628900D02*
G01*
X4631943Y2571750D01*
X4666234Y2659887D02*
G01*
X4676647Y2665221D01*
X4692395Y2680715D01*
X4692395Y2571750D01*
X4559300Y3049015D02*
G01*
X4559300Y2940050D01*
X4559300Y3049015D02*
G01*
X4606036Y3049015D01*
X4621529Y3043936D01*
X4626863Y3038602D01*
X4631943Y3028187D01*
X4631943Y3017773D01*
X4626863Y3007360D01*
X4621529Y3002279D01*
X4606036Y2997200D01*
X4559300Y2997200D01*
X4595622Y2997200D02*
G01*
X4631943Y2940050D01*
X4671568Y3023107D02*
G01*
X4671568Y3028187D01*
X4676647Y3038602D01*
X4681981Y3043936D01*
X4692395Y3049015D01*
X4712970Y3049015D01*
X4723384Y3043936D01*
X4728718Y3038602D01*
X4733797Y3028187D01*
X4733797Y3017773D01*
X4728718Y3007360D01*
X4718304Y2991865D01*
X4666234Y2940050D01*
X4739131Y2940050D01*
X4559300Y3417315D02*
G01*
X4559300Y3308350D01*
X4559300Y3417315D02*
G01*
X4606036Y3417315D01*
X4621529Y3412236D01*
X4626863Y3406902D01*
X4631943Y3396487D01*
X4631943Y3386073D01*
X4626863Y3375660D01*
X4621529Y3370579D01*
X4606036Y3365500D01*
X4559300Y3365500D01*
X4595622Y3365500D02*
G01*
X4631943Y3308350D01*
X4676647Y3417315D02*
G01*
X4733797Y3417315D01*
X4702809Y3375660D01*
X4718304Y3375660D01*
X4728718Y3370579D01*
X4733797Y3365500D01*
X4739131Y3349752D01*
X4739131Y3339337D01*
X4733797Y3323844D01*
X4723384Y3313429D01*
X4707890Y3308350D01*
X4692395Y3308350D01*
X4676647Y3313429D01*
X4671568Y3318510D01*
X4666234Y3328923D01*
X1492250Y2470962D02*
G01*
X1383284Y2470962D01*
X1492250Y2470962D02*
G01*
X1492250Y2424226D01*
X1487170Y2408732D01*
X1481836Y2403398D01*
X1471421Y2398318D01*
X1461007Y2398318D01*
X1450594Y2403398D01*
X1445513Y2408732D01*
X1440434Y2424226D01*
X1440434Y2470962D01*
X1440434Y2434640D02*
G01*
X1383284Y2398318D01*
X1492250Y2311958D02*
G01*
X1419605Y2364028D01*
X1419605Y2286050D01*
X1492250Y2311958D02*
G01*
X1383284Y2311958D01*
X1701800Y3620515D02*
G01*
X1701800Y3511550D01*
X1701800Y3620515D02*
G01*
X1748536Y3620515D01*
X1764029Y3615436D01*
X1769363Y3610102D01*
X1774444Y3599687D01*
X1774444Y3589273D01*
X1769363Y3578860D01*
X1764029Y3573779D01*
X1748536Y3568700D01*
X1701800Y3568700D01*
X1738121Y3568700D02*
G01*
X1774444Y3511550D01*
X1871218Y3620515D02*
G01*
X1819147Y3620515D01*
X1814068Y3573779D01*
X1819147Y3578860D01*
X1834895Y3584194D01*
X1850389Y3584194D01*
X1865884Y3578860D01*
X1876297Y3568700D01*
X1881631Y3552952D01*
X1881631Y3542537D01*
X1876297Y3527044D01*
X1865884Y3516629D01*
X1850389Y3511550D01*
X1834895Y3511550D01*
X1819147Y3516629D01*
X1814068Y3521710D01*
X1808734Y3532123D01*
X331978Y2388107D02*
G01*
X326644Y2398521D01*
X316229Y2408936D01*
X306070Y2414015D01*
X285242Y2414015D01*
X274828Y2408936D01*
X264413Y2398521D01*
X259079Y2388107D01*
X254000Y2372360D01*
X254000Y2346452D01*
X259079Y2330957D01*
X264413Y2320544D01*
X274828Y2310129D01*
X285242Y2305050D01*
X306070Y2305050D01*
X316229Y2310129D01*
X326644Y2320544D01*
X331978Y2330957D01*
X371347Y2388107D02*
G01*
X371347Y2393187D01*
X376681Y2403602D01*
X381762Y2408936D01*
X392176Y2414015D01*
X413004Y2414015D01*
X423418Y2408936D01*
X428497Y2403602D01*
X433831Y2393187D01*
X433831Y2382773D01*
X428497Y2372360D01*
X418084Y2356865D01*
X366268Y2305050D01*
X438912Y2305050D01*
G36*
X1041400Y2565400D02*
G01*
X1041400Y2108200D01*
X1052880Y2119122D01*
X1063802Y2130602D01*
X1074115Y2142642D01*
X1083767Y2155240D01*
X1092809Y2168245D01*
X1101140Y2181758D01*
X1108760Y2195626D01*
X1115669Y2209901D01*
X1121816Y2224532D01*
X1127201Y2239416D01*
X1131824Y2254605D01*
X1135684Y2269947D01*
X1138682Y2285542D01*
X1140917Y2301189D01*
X1142339Y2316988D01*
X1142949Y2332837D01*
X1142746Y2348687D01*
X1141730Y2364486D01*
X1139901Y2380234D01*
X1137259Y2395880D01*
X1135684Y2403652D01*
X1131824Y2418994D01*
X1127201Y2434183D01*
X1121816Y2449068D01*
X1115669Y2463698D01*
X1108760Y2477973D01*
X1101140Y2491841D01*
X1092809Y2505354D01*
X1083767Y2518359D01*
X1074115Y2530957D01*
X1063802Y2542997D01*
X1052880Y2554478D01*
G37*
D20*
X4406900Y1041400D02*
G01*
X4406900Y850900D01*
X4660900Y850900D01*
X4660900Y2120900D01*
X4406900Y2120900D01*
D21*
X4406900Y2120900D02*
G01*
X4406900Y1041400D01*
D20*
X1828800Y635000D02*
G01*
X1638300Y635000D01*
X1638300Y381000D01*
X2400300Y381000D01*
X2400300Y635000D01*
D21*
X2400300Y635000D02*
G01*
X1828800Y635000D01*
D20*
X3022600Y647700D02*
G01*
X2832100Y647700D01*
X2832100Y393700D01*
X3594100Y393700D01*
X3594100Y647700D01*
D21*
X3594100Y647700D02*
G01*
X3022600Y647700D01*
D20*
X787400Y3009900D02*
G01*
X787400Y2819400D01*
X1041400Y2819400D01*
X1041400Y3581400D01*
X787400Y3581400D01*
D21*
X787400Y3581400D02*
G01*
X787400Y3009900D01*
X787400Y1028700D02*
G01*
X787400Y711200D01*
D20*
X787400Y1028700D02*
G01*
X1041400Y1028700D01*
X1041400Y520700D01*
X787400Y520700D01*
X787400Y711200D01*
D10*
X3451859Y1287779D02*
G01*
X3451859Y1049020D01*
X3451859Y1049020D02*
G01*
X2821940Y1049020D01*
X2821940Y1049020D02*
G01*
X2821940Y1287779D01*
X2821940Y1287779D02*
G01*
X3451859Y1287779D01*
X3766820Y1356360D02*
G01*
X4005579Y1356360D01*
X4005579Y1356360D02*
G01*
X4005579Y726439D01*
X4005579Y726439D02*
G01*
X3766820Y726439D01*
X3766820Y726439D02*
G01*
X3766820Y1356360D01*
D20*
X787400Y1397000D02*
G01*
X787400Y1206500D01*
X1041400Y1206500D01*
X1041400Y1968500D01*
X787400Y1968500D01*
D21*
X787400Y1968500D02*
G01*
X787400Y1397000D01*
D22*
X2577845Y2069845D02*
G01*
X2069845Y2069845D01*
X2069845Y1815845D01*
X2577845Y1815845D01*
X2577845Y2069845D01*
D10*
X3035300Y3314697D02*
G01*
X3035300Y2298697D01*
X2019300Y2298697D01*
X2019300Y3314697D01*
X3035300Y3314697D01*
X3571240Y2496820D02*
G01*
X3571240Y2735579D01*
X3571240Y2735579D02*
G01*
X4201159Y2735579D01*
X4201159Y2735579D02*
G01*
X4201159Y2496820D01*
X4201159Y2496820D02*
G01*
X3571240Y2496820D01*
X3583940Y2877820D02*
G01*
X3583940Y3116579D01*
X3583940Y3116579D02*
G01*
X4213859Y3116579D01*
X4213859Y3116579D02*
G01*
X4213859Y2877820D01*
X4213859Y2877820D02*
G01*
X3583940Y2877820D01*
X3571240Y3271520D02*
G01*
X3571240Y3510279D01*
X3571240Y3510279D02*
G01*
X4201159Y3510279D01*
X4201159Y3510279D02*
G01*
X4201159Y3271520D01*
X4201159Y3271520D02*
G01*
X3571240Y3271520D01*
X1770379Y1971039D02*
G01*
X1531620Y1971039D01*
X1531620Y1971039D02*
G01*
X1531620Y2600960D01*
X1531620Y2600960D02*
G01*
X1770379Y2600960D01*
X1770379Y2600960D02*
G01*
X1770379Y1971039D01*
X2212340Y3411220D02*
G01*
X2212340Y3649979D01*
X2212340Y3649979D02*
G01*
X2842259Y3649979D01*
X2842259Y3649979D02*
G01*
X2842259Y3411220D01*
X2842259Y3411220D02*
G01*
X2212340Y3411220D01*
X647700Y2489200D02*
G01*
X749300Y2489200D01*
X698500Y2540000D02*
G01*
X698500Y2438400D01*
G75*
G01*
X2400300Y3314700D02*
G03*
X2654300Y3314700I127000J0D01*
G75*
G01
X1140460Y2336800D02*
G03X1140460Y2336800I-314960J0D01*
M02*
