G04 Layer: BottomLayer*
G04 EasyEDA v6.4.19.5, 2021-05-18T22:58:39--5:00*
G04 66efe2adf43246afbf7e92f2808a4bb2,00a5ad12733442db97615573759eb5db,10*
G04 Gerber Generator version 0.2*
G04 Scale: 100 percent, Rotated: No, Reflected: No *
G04 Dimensions in millimeters *
G04 leading zeros omitted , absolute positions ,4 integer and 5 decimal *
%FSLAX45Y45*%
%MOMM*%

%ADD11C,0.8000*%
%ADD12C,2.0000*%
%ADD13C,1.7000*%
%ADD14R,1.7000X1.7000*%
%ADD16R,1.5748X1.7000*%
%ADD17C,1.8796*%
%ADD18R,1.8000X1.7000*%

%LPD*%
G36*
X4480356Y2104034D02*
G01*
X4423765Y2047443D01*
X4449064Y1988566D01*
X4539234Y2078736D01*
G37*
G36*
X4477664Y1803654D02*
G01*
X4418177Y1779879D01*
X4418177Y1699920D01*
X4477664Y1676146D01*
G37*
G36*
X4477664Y1803654D02*
G01*
X4418177Y1779879D01*
X4418177Y1699920D01*
X4477664Y1676146D01*
G37*
G36*
X4582769Y1555445D02*
G01*
X4596790Y1428699D01*
X4653330Y1458620D01*
X4644491Y1538579D01*
G37*
G36*
X4477664Y1295654D02*
G01*
X4418177Y1271879D01*
X4418177Y1191920D01*
X4477664Y1168146D01*
G37*
G36*
X2326843Y618134D02*
G01*
X2267966Y592836D01*
X2358136Y502666D01*
X2383434Y561543D01*
G37*
G36*
X3515969Y590245D02*
G01*
X3529990Y463499D01*
X3586530Y493420D01*
X3577691Y573379D01*
G37*
G36*
X970635Y3518154D02*
G01*
X970635Y3390646D01*
X1030122Y3414420D01*
X1030122Y3494379D01*
G37*
G36*
X798677Y3285388D02*
G01*
X798677Y3115411D01*
X858164Y3136646D01*
X858164Y3264153D01*
G37*
G36*
X829411Y1017422D02*
G01*
X850646Y957935D01*
X978153Y957935D01*
X999388Y1017422D01*
G37*
G36*
X3707079Y1238910D02*
G01*
X3707079Y1097889D01*
X3772865Y1128420D01*
X3772865Y1208379D01*
G37*
G36*
X2558440Y1106220D02*
G01*
X2588920Y1040434D01*
X2668879Y1040434D01*
X2699359Y1106220D01*
G37*
G36*
X3824020Y1619910D02*
G01*
X3758234Y1589379D01*
X3758234Y1509420D01*
X3824020Y1478889D01*
G37*
G36*
X3824020Y603910D02*
G01*
X3758234Y573379D01*
X3758234Y493420D01*
X3824020Y462889D01*
G37*
G36*
X798677Y1672488D02*
G01*
X798677Y1502511D01*
X858164Y1523746D01*
X858164Y1651254D01*
G37*
G36*
X2157120Y2058822D02*
G01*
X2133346Y1999335D01*
X2260854Y1999335D01*
X2237079Y2058822D01*
G37*
G36*
X2411120Y2058822D02*
G01*
X2387346Y1999335D01*
X2514854Y1999335D01*
X2491079Y2058822D01*
G37*
G36*
X2868320Y3303422D02*
G01*
X2844546Y3243935D01*
X2972054Y3243935D01*
X2948279Y3303422D01*
G37*
G36*
X2852064Y3251453D02*
G01*
X2792577Y3227679D01*
X2792577Y3147720D01*
X2852064Y3123946D01*
G37*
G36*
X2970123Y3039414D02*
G01*
X2909570Y3018688D01*
X2992475Y2921812D01*
X3022295Y2978454D01*
G37*
G36*
X2852064Y2997454D02*
G01*
X2792577Y2973679D01*
X2792577Y2893720D01*
X2852064Y2869946D01*
G37*
G36*
X2964535Y2743454D02*
G01*
X2964535Y2615946D01*
X3024022Y2639720D01*
X3024022Y2719679D01*
G37*
G36*
X2964535Y2489454D02*
G01*
X2964535Y2361946D01*
X3024022Y2385720D01*
X3024022Y2465679D01*
G37*
G36*
X2061464Y2431034D02*
G01*
X2004364Y2403957D01*
X2124557Y2283764D01*
X2151634Y2340864D01*
G37*
G36*
X2228240Y2403144D02*
G01*
X2113686Y2347214D01*
X2157120Y2302205D01*
X2237079Y2341270D01*
G37*
G36*
X2090064Y2743454D02*
G01*
X2030577Y2719679D01*
X2030577Y2639720D01*
X2090064Y2615946D01*
G37*
G36*
X2090064Y2997454D02*
G01*
X2030577Y2973679D01*
X2030577Y2893720D01*
X2090064Y2869946D01*
G37*
G36*
X3303219Y2550058D02*
G01*
X3338220Y2480056D01*
X3418179Y2480056D01*
X3453180Y2550058D01*
G37*
G36*
X3278378Y2622448D02*
G01*
X3253638Y2548229D01*
X3310229Y2491638D01*
X3384448Y2516378D01*
G37*
G36*
X4354220Y2752344D02*
G01*
X4319219Y2682341D01*
X4469180Y2682341D01*
X4434179Y2752344D01*
G37*
G36*
X3457041Y3072180D02*
G01*
X3457041Y2922219D01*
X3527044Y2957220D01*
X3527044Y3037179D01*
G37*
G36*
X3291078Y3003448D02*
G01*
X3266338Y2929229D01*
X3322929Y2872638D01*
X3397148Y2897378D01*
G37*
G36*
X4326077Y2938322D02*
G01*
X4354220Y2865374D01*
X4434179Y2857906D01*
X4475378Y2924352D01*
G37*
G36*
X4434179Y3136493D02*
G01*
X4354220Y3129026D01*
X4326077Y3056077D01*
X4475378Y3070047D01*
G37*
G36*
X3278378Y3397148D02*
G01*
X3253638Y3322929D01*
X3310229Y3266338D01*
X3384448Y3291078D01*
G37*
G36*
X4319219Y3324758D02*
G01*
X4354220Y3254756D01*
X4434179Y3254756D01*
X4469180Y3324758D01*
G37*
G36*
X4354220Y3492500D02*
G01*
X4319219Y3457041D01*
X4469180Y3457041D01*
X4434179Y3492500D01*
G37*
G36*
X1745589Y1810359D02*
G01*
X1671269Y1680057D01*
X1748688Y1674520D01*
X1789785Y1746554D01*
G37*
G36*
X1750822Y2800248D02*
G01*
X1644751Y2694178D01*
X1718970Y2669438D01*
X1775561Y2726029D01*
G37*
G36*
X1944319Y3464458D02*
G01*
X1979320Y3394456D01*
X2059279Y3394456D01*
X2094280Y3464458D01*
G37*
G36*
X3103270Y3655161D02*
G01*
X3029051Y3630422D01*
X3135122Y3524351D01*
X3159861Y3598570D01*
G37*
G36*
X2935478Y3536848D02*
G01*
X2910738Y3462629D01*
X2967329Y3406038D01*
X3041548Y3430778D01*
G37*
G36*
X582777Y2421788D02*
G01*
X582777Y2251811D01*
X642264Y2273046D01*
X642264Y2400554D01*
G37*
G36*
X1068222Y2421788D02*
G01*
X1008735Y2400554D01*
X1008735Y2273046D01*
X1068222Y2251811D01*
G37*
G36*
X867511Y2452522D02*
G01*
X888746Y2393035D01*
X1016253Y2393035D01*
X1037488Y2452522D01*
G37*
G36*
X1811629Y1724761D02*
G01*
X1755038Y1668170D01*
X1779778Y1593951D01*
X1885848Y1700022D01*
G37*
G36*
X4003141Y2233980D02*
G01*
X4003141Y2084019D01*
X4073144Y2119020D01*
X4073144Y2198979D01*
G37*
G36*
X4448911Y1034287D02*
G01*
X4406442Y907034D01*
X4463034Y850493D01*
X4590338Y892911D01*
G37*
G36*
X999388Y732688D02*
G01*
X999388Y562711D01*
X1143000Y562711D01*
X1143000Y732688D01*
G37*
G36*
X999388Y732688D02*
G01*
X829411Y562711D01*
X994003Y447903D01*
X1114196Y568096D01*
G37*
G36*
X824382Y1248511D02*
G01*
X829411Y993495D01*
X999388Y993495D01*
X1004417Y1248511D01*
G37*
G36*
X2080463Y3309975D02*
G01*
X2023872Y3253384D01*
X2066289Y3126130D01*
X2207717Y3267557D01*
G37*
D12*
X3213100Y520700D02*
G01*
X3213100Y190500D01*
X2006600Y190500D01*
X520700Y1587500D02*
G01*
X520700Y571500D01*
X901700Y190500D01*
X2019300Y190500D01*
X2019300Y508000D01*
X520700Y3200400D02*
G01*
X520700Y3454400D01*
X876300Y3810000D01*
X2692400Y3810000D01*
X2908300Y3594100D01*
X2908300Y3187697D01*
D13*
X952500Y2336800D02*
G01*
X2057400Y2336800D01*
X2146300Y2425700D01*
D11*
X3937000Y2159000D02*
G01*
X4368800Y2159000D01*
X4533900Y1993900D01*
X1651000Y1778000D02*
G01*
X1701800Y1778000D01*
X1879600Y1600200D01*
X3378200Y3390900D02*
G01*
X2921000Y2933700D01*
X2908300Y2933700D01*
X4533900Y1231900D02*
G01*
X4178300Y1231900D01*
X3886200Y939800D01*
X3441700Y939800D01*
X3302000Y1079500D01*
X3302000Y1549400D01*
X3886200Y1549400D01*
X2908300Y2933697D02*
G01*
X2717800Y2933700D01*
X2654300Y2870200D01*
X2654300Y2184400D01*
X3289300Y1549400D01*
X3302000Y1549400D01*
D12*
X520700Y3200400D02*
G01*
X520700Y1587500D01*
D11*
X4533900Y977900D02*
G01*
X4343400Y787400D01*
X2971800Y787400D01*
D13*
X1765300Y508000D02*
G01*
X1765300Y965200D01*
X2247900Y1447800D01*
X2908300Y1447800D01*
X2959100Y1397000D01*
X2959100Y520700D01*
X914400Y647700D02*
G01*
X1143000Y647700D01*
X1282700Y787400D01*
X1282700Y2336800D01*
X698500Y2336800D02*
G01*
X515571Y2336800D01*
D11*
X4533900Y1739900D02*
G01*
X4203700Y1739900D01*
X4000500Y1943100D01*
X3619500Y1943100D01*
X3378200Y2184400D01*
X3378200Y2616200D01*
X3390900Y2997200D02*
G01*
X3835400Y2997200D01*
X4025900Y2806700D01*
X4025900Y2489200D01*
X4178300Y2336800D01*
X4673600Y2336800D01*
X4800600Y2209800D01*
X4800600Y1600200D01*
X4699000Y1498600D01*
X4546600Y1498600D01*
X4533900Y1485900D01*
X3644900Y1168400D02*
G01*
X3810000Y1168400D01*
X4381500Y1739900D01*
X4533900Y1739900D01*
X2908300Y2425700D02*
G01*
X3187700Y2425700D01*
X3378200Y2616200D01*
X2908300Y2679700D02*
G01*
X3073400Y2679700D01*
X3390900Y2997200D01*
X4406900Y2997200D02*
G01*
X4394200Y2984500D01*
X4394200Y2616200D01*
X4394200Y3390900D02*
G01*
X4394200Y3009900D01*
X4406900Y2997200D01*
X4394200Y3390900D02*
G01*
X4394200Y3492500D01*
X4216400Y3670300D01*
X3175000Y3670300D01*
X3035300Y3530600D01*
X2908300Y3187700D02*
G01*
X2908300Y3403600D01*
X3035300Y3530600D01*
X2451100Y1943100D02*
G01*
X2451100Y2997200D01*
X2641600Y3187700D01*
X2908300Y3187700D01*
X2197100Y1943100D02*
G01*
X2197100Y2374900D01*
X2146300Y2425700D01*
X2146300Y3187545D02*
G01*
X2019300Y3314545D01*
X2019300Y3530600D01*
D13*
X1765300Y508000D02*
G01*
X1054100Y508000D01*
X914400Y647700D01*
X914400Y901700D02*
G01*
X914400Y1333500D01*
D11*
X2146300Y2679700D02*
G01*
X1765300Y2679700D01*
X1651000Y2794000D01*
X2146300Y2933700D02*
G01*
X1930400Y2933700D01*
X1409700Y3454400D01*
X914400Y3454400D01*
D13*
X914400Y1587500D02*
G01*
X520700Y1587500D01*
X914400Y3200400D02*
G01*
X520700Y3200400D01*
X952500Y2336800D02*
G01*
X952500Y2908300D01*
X914400Y2946400D01*
D11*
X2273300Y508000D02*
G01*
X2628900Y863600D01*
X2628900Y1168400D01*
X3467100Y520700D02*
G01*
X3479800Y533400D01*
X3886200Y533400D01*
D13*
G01*
X4533900Y1993900D03*
G01*
X4533900Y1739900D03*
G01*
X4533900Y1485900D03*
G01*
X4533900Y1231900D03*
D14*
G01*
X4533900Y977900D03*
D13*
G01*
X2273300Y508000D03*
G01*
X2019300Y508000D03*
G36*
X1686560Y586739D02*
G01*
X1844039Y586739D01*
X1844039Y429260D01*
X1686560Y429260D01*
G37*
G01*
X3467100Y520700D03*
G01*
X3213100Y520700D03*
G36*
X2880359Y599439D02*
G01*
X3037840Y599439D01*
X3037840Y441960D01*
X2880359Y441960D01*
G37*
G01*
X914400Y3454400D03*
G01*
X914400Y3200400D03*
D16*
G01*
X914400Y2946400D03*
D14*
G01*
X914400Y647700D03*
D13*
G01*
X914400Y901700D03*
D17*
G01*
X3644900Y1168400D03*
G01*
X2628900Y1168400D03*
G01*
X3886200Y1549400D03*
G01*
X3886200Y533400D03*
D13*
G01*
X914400Y1841500D03*
G01*
X914400Y1587500D03*
D18*
G01*
X914400Y1333500D03*
D13*
G01*
X2197100Y1943100D03*
G01*
X2451100Y1943100D03*
G01*
X2908300Y3187700D03*
G01*
X2908300Y2933700D03*
G01*
X2908300Y2679700D03*
G01*
X2908300Y2425700D03*
G01*
X2146300Y2425700D03*
G01*
X2146300Y2679700D03*
G01*
X2146300Y2933700D03*
G36*
X2066300Y3267547D02*
G01*
X2226299Y3267547D01*
X2226299Y3107547D01*
X2066300Y3107547D01*
G37*
D12*
G01*
X3378200Y2616200D03*
G01*
X4394200Y2616200D03*
G01*
X3390900Y2997200D03*
G01*
X4406900Y2997200D03*
G01*
X3378200Y3390900D03*
G01*
X4394200Y3390900D03*
G01*
X1651000Y1778000D03*
G01*
X1651000Y2794000D03*
G01*
X2019300Y3530600D03*
G01*
X3035300Y3530600D03*
D13*
G01*
X698500Y2336800D03*
G01*
X952500Y2336800D03*
D12*
G01*
X1879600Y1600200D03*
G01*
X3937000Y2159000D03*
M02*
