G04 Layer: TopSolderMaskLayer*
G04 EasyEDA v6.4.19.5, 2021-05-18T22:58:39--5:00*
G04 66efe2adf43246afbf7e92f2808a4bb2,00a5ad12733442db97615573759eb5db,10*
G04 Gerber Generator version 0.2*
G04 Scale: 100 percent, Rotated: No, Reflected: No *
G04 Dimensions in millimeters *
G04 leading zeros omitted , absolute positions ,4 integer and 5 decimal *
%FSLAX45Y45*%
%MOMM*%

%ADD24C,1.8016*%
%ADD28C,1.9812*%
%ADD31C,2.1016*%
%ADD32C,1.9032*%

%LPD*%
D24*
G01*
X4533900Y1993900D03*
G01*
X4533900Y1739900D03*
G01*
X4533900Y1485900D03*
G01*
X4533900Y1231900D03*
G36*
X4443729Y887729D02*
G01*
X4443729Y1068070D01*
X4624070Y1068070D01*
X4624070Y887729D01*
G37*
G01*
X2273300Y508000D03*
G01*
X2019300Y508000D03*
G36*
X1681479Y424179D02*
G01*
X1681479Y591820D01*
X1849120Y591820D01*
X1849120Y424179D01*
G37*
G01*
X3467100Y520700D03*
G01*
X3213100Y520700D03*
G36*
X2875279Y436879D02*
G01*
X2875279Y604520D01*
X3042920Y604520D01*
X3042920Y436879D01*
G37*
G01*
X914400Y3454400D03*
G01*
X914400Y3200400D03*
G36*
X830579Y2856229D02*
G01*
X830579Y3036570D01*
X998220Y3036570D01*
X998220Y2856229D01*
G37*
G36*
X824229Y557529D02*
G01*
X824229Y737870D01*
X1004570Y737870D01*
X1004570Y557529D01*
G37*
G01*
X914400Y901700D03*
D28*
G01*
X3644900Y1168400D03*
G01*
X2628900Y1168400D03*
G01*
X3886200Y1549400D03*
G01*
X3886200Y533400D03*
D24*
G01*
X914400Y1841500D03*
G01*
X914400Y1587500D03*
G36*
X819404Y1243329D02*
G01*
X819404Y1423670D01*
X1009395Y1423670D01*
X1009395Y1243329D01*
G37*
G01*
X2197100Y1943100D03*
G01*
X2451100Y1943100D03*
G01*
X2908300Y3187700D03*
G01*
X2908300Y2933700D03*
G01*
X2908300Y2679700D03*
G01*
X2908300Y2425700D03*
G01*
X2146300Y2425700D03*
G01*
X2146300Y2679700D03*
G01*
X2146300Y2933700D03*
G36*
X2061209Y3102355D02*
G01*
X2061209Y3272536D01*
X2231390Y3272536D01*
X2231390Y3102355D01*
G37*
D31*
G01*
X3378200Y2616200D03*
G01*
X4394200Y2616200D03*
G01*
X3390900Y2997200D03*
G01*
X4406900Y2997200D03*
G01*
X3378200Y3390900D03*
G01*
X4394200Y3390900D03*
G01*
X1651000Y1778000D03*
G01*
X1651000Y2794000D03*
G01*
X2019300Y3530600D03*
G01*
X3035300Y3530600D03*
D32*
G01*
X698500Y2336800D03*
G01*
X952500Y2336800D03*
M02*
