G04 Layer: TopSilkLayer*
G04 EasyEDA v6.4.19.5, 2021-05-18T22:58:39--5:00*
G04 4dc87e2bd6d7430eaf2060c118457cdd,00a5ad12733442db97615573759eb5db,10*
G04 Gerber Generator version 0.2*
G04 Scale: 100 percent, Rotated: No, Reflected: No *
G04 Dimensions in millimeters *
G04 leading zeros omitted , absolute positions ,4 integer and 5 decimal *
%FSLAX45Y45*%
%MOMM*%

%ADD10C,0.2540*%
%ADD17C,0.2032*%
%ADD18C,0.2030*%
%ADD19C,0.1524*%

%LPD*%
G36*
X1449070Y1656334D02*
G01*
X1442212Y1656130D01*
X1435658Y1655622D01*
X1429359Y1654708D01*
X1423416Y1653489D01*
X1417828Y1651863D01*
X1412494Y1649933D01*
X1407515Y1647647D01*
X1402842Y1645005D01*
X1398574Y1642008D01*
X1394561Y1638706D01*
X1390954Y1634998D01*
X1387703Y1630984D01*
X1384808Y1626616D01*
X1382268Y1621942D01*
X1380134Y1616913D01*
X1378356Y1611528D01*
X1376984Y1605838D01*
X1375968Y1599793D01*
X1375359Y1593443D01*
X1375156Y1586738D01*
X1375156Y1567180D01*
X1389126Y1567180D01*
X1389126Y1585468D01*
X1389380Y1592021D01*
X1390142Y1598117D01*
X1391412Y1603806D01*
X1393139Y1609039D01*
X1395374Y1613865D01*
X1398066Y1618284D01*
X1401216Y1622247D01*
X1404823Y1625803D01*
X1408887Y1628901D01*
X1413357Y1631594D01*
X1418285Y1633880D01*
X1423619Y1635760D01*
X1429410Y1637182D01*
X1435557Y1638249D01*
X1442110Y1638858D01*
X1449070Y1639062D01*
X1455978Y1638858D01*
X1462582Y1638249D01*
X1468780Y1637182D01*
X1474622Y1635760D01*
X1480058Y1633880D01*
X1485087Y1631594D01*
X1489710Y1628901D01*
X1493875Y1625803D01*
X1497634Y1622247D01*
X1500886Y1618284D01*
X1503730Y1613865D01*
X1506016Y1609039D01*
X1507896Y1603806D01*
X1509217Y1598117D01*
X1510030Y1592021D01*
X1510284Y1585468D01*
X1510284Y1567180D01*
X1375156Y1567180D01*
X1375156Y1550162D01*
X1524000Y1550162D01*
X1524000Y1587500D01*
X1523796Y1594104D01*
X1523187Y1600352D01*
X1522120Y1606296D01*
X1520698Y1611934D01*
X1518869Y1617218D01*
X1516634Y1622196D01*
X1514043Y1626819D01*
X1511096Y1631137D01*
X1507744Y1635150D01*
X1504035Y1638757D01*
X1500022Y1642059D01*
X1495653Y1645056D01*
X1490929Y1647698D01*
X1485849Y1649984D01*
X1480515Y1651914D01*
X1474825Y1653489D01*
X1468831Y1654708D01*
X1462532Y1655622D01*
X1455928Y1656130D01*
G37*
G36*
X1375156Y1508760D02*
G01*
X1375156Y1492758D01*
X1461414Y1492808D01*
X1484884Y1493875D01*
X1502156Y1495044D01*
X1502156Y1494028D01*
X1471676Y1477772D01*
X1375156Y1421638D01*
X1375156Y1404366D01*
X1524000Y1404366D01*
X1524000Y1420114D01*
X1436674Y1420063D01*
X1419555Y1419402D01*
X1397254Y1418082D01*
X1397254Y1419098D01*
X1427734Y1435354D01*
X1524000Y1491234D01*
X1524000Y1508760D01*
G37*
G36*
X1447800Y1368298D02*
G01*
X1447800Y1320292D01*
X1461770Y1320292D01*
X1461770Y1352804D01*
X1502410Y1352804D01*
X1506321Y1347368D01*
X1509318Y1340459D01*
X1511147Y1332636D01*
X1511808Y1324356D01*
X1511503Y1318463D01*
X1510690Y1312926D01*
X1509318Y1307693D01*
X1507439Y1302867D01*
X1505051Y1298346D01*
X1502156Y1294180D01*
X1498803Y1290421D01*
X1494942Y1286967D01*
X1490675Y1283970D01*
X1485950Y1281277D01*
X1480820Y1279042D01*
X1475282Y1277162D01*
X1469339Y1275689D01*
X1463040Y1274673D01*
X1456334Y1274013D01*
X1449324Y1273810D01*
X1442313Y1274064D01*
X1435658Y1274724D01*
X1429359Y1275842D01*
X1423466Y1277366D01*
X1417929Y1279347D01*
X1412849Y1281684D01*
X1408176Y1284427D01*
X1403959Y1287576D01*
X1400149Y1291031D01*
X1396847Y1294841D01*
X1394002Y1299006D01*
X1391615Y1303477D01*
X1389786Y1308303D01*
X1388414Y1313383D01*
X1387602Y1318717D01*
X1387348Y1324356D01*
X1388465Y1334973D01*
X1391513Y1343761D01*
X1396034Y1351076D01*
X1401572Y1357122D01*
X1390650Y1366520D01*
X1387398Y1363065D01*
X1384198Y1359154D01*
X1381150Y1354734D01*
X1378407Y1349806D01*
X1376070Y1344269D01*
X1374241Y1338173D01*
X1373022Y1331468D01*
X1372616Y1324102D01*
X1372819Y1318260D01*
X1373479Y1312621D01*
X1374546Y1307185D01*
X1376019Y1301953D01*
X1377950Y1296924D01*
X1380236Y1292148D01*
X1382877Y1287576D01*
X1385976Y1283309D01*
X1389380Y1279296D01*
X1393190Y1275537D01*
X1397355Y1272133D01*
X1401876Y1268984D01*
X1406702Y1266190D01*
X1411884Y1263700D01*
X1417421Y1261567D01*
X1423212Y1259789D01*
X1429359Y1258366D01*
X1435811Y1257350D01*
X1442567Y1256741D01*
X1449578Y1256538D01*
X1456690Y1256741D01*
X1463446Y1257350D01*
X1469948Y1258316D01*
X1476095Y1259687D01*
X1481937Y1261414D01*
X1487474Y1263497D01*
X1492656Y1265936D01*
X1497533Y1268679D01*
X1502003Y1271727D01*
X1506169Y1275130D01*
X1509928Y1278788D01*
X1513332Y1282700D01*
X1516380Y1286916D01*
X1519021Y1291386D01*
X1521307Y1296060D01*
X1523187Y1301038D01*
X1524609Y1306169D01*
X1525676Y1311554D01*
X1526336Y1317091D01*
X1526540Y1322832D01*
X1526235Y1330096D01*
X1525270Y1336954D01*
X1523746Y1343456D01*
X1521764Y1349451D01*
X1519275Y1354988D01*
X1516380Y1360017D01*
X1513078Y1364437D01*
X1509522Y1368298D01*
G37*
G36*
X1685036Y1621536D02*
G01*
X1679295Y1621282D01*
X1674012Y1620520D01*
X1669186Y1619300D01*
X1664766Y1617624D01*
X1660855Y1615490D01*
X1657299Y1612950D01*
X1654200Y1609953D01*
X1651457Y1606550D01*
X1649069Y1602740D01*
X1647088Y1598574D01*
X1645412Y1594053D01*
X1644091Y1589176D01*
X1643075Y1583944D01*
X1642414Y1578406D01*
X1642008Y1572564D01*
X1641856Y1542034D01*
X1655572Y1542034D01*
X1655724Y1570380D01*
X1656181Y1576374D01*
X1657045Y1581759D01*
X1658264Y1586636D01*
X1659839Y1590903D01*
X1661922Y1594662D01*
X1664462Y1597812D01*
X1667459Y1600403D01*
X1671015Y1602435D01*
X1675079Y1603857D01*
X1679752Y1604721D01*
X1685036Y1605026D01*
X1690319Y1604772D01*
X1695043Y1603959D01*
X1699310Y1602587D01*
X1703070Y1600657D01*
X1706372Y1598168D01*
X1709216Y1595120D01*
X1711553Y1591513D01*
X1713484Y1587296D01*
X1714957Y1582521D01*
X1715973Y1577136D01*
X1716582Y1571193D01*
X1716786Y1564640D01*
X1716786Y1542034D01*
X1641856Y1542034D01*
X1641856Y1525016D01*
X1790700Y1525016D01*
X1790700Y1542034D01*
X1730502Y1542034D01*
X1730349Y1573225D01*
X1729841Y1579016D01*
X1728978Y1584452D01*
X1727758Y1589582D01*
X1726184Y1594408D01*
X1724304Y1598879D01*
X1722018Y1602994D01*
X1719376Y1606753D01*
X1716379Y1610106D01*
X1713026Y1613052D01*
X1709318Y1615592D01*
X1705203Y1617675D01*
X1700733Y1619351D01*
X1695907Y1620570D01*
X1690674Y1621282D01*
G37*
G36*
X1641856Y1484376D02*
G01*
X1641856Y1468120D01*
X1730502Y1468120D01*
X1739138Y1467764D01*
X1746757Y1466799D01*
X1753412Y1465275D01*
X1759204Y1463141D01*
X1764131Y1460550D01*
X1768246Y1457452D01*
X1771548Y1453946D01*
X1774189Y1450035D01*
X1776171Y1445818D01*
X1777492Y1441297D01*
X1778254Y1436522D01*
X1778507Y1431544D01*
X1778254Y1426718D01*
X1777492Y1422095D01*
X1776171Y1417726D01*
X1774189Y1413611D01*
X1771548Y1409852D01*
X1768246Y1406448D01*
X1764131Y1403400D01*
X1759204Y1400860D01*
X1753412Y1398778D01*
X1746757Y1397254D01*
X1739138Y1396288D01*
X1730502Y1395984D01*
X1641856Y1395984D01*
X1641856Y1378966D01*
X1730248Y1378966D01*
X1738782Y1379220D01*
X1746605Y1380032D01*
X1753717Y1381302D01*
X1760118Y1383080D01*
X1765909Y1385265D01*
X1771040Y1387906D01*
X1775612Y1390904D01*
X1779574Y1394307D01*
X1782978Y1398016D01*
X1785823Y1402080D01*
X1788210Y1406398D01*
X1790090Y1411020D01*
X1791512Y1415846D01*
X1792478Y1420876D01*
X1793036Y1426159D01*
X1793239Y1431544D01*
X1793036Y1436979D01*
X1792478Y1442262D01*
X1791512Y1447342D01*
X1790090Y1452219D01*
X1788210Y1456842D01*
X1785823Y1461211D01*
X1782978Y1465275D01*
X1779574Y1468983D01*
X1775612Y1472387D01*
X1771040Y1475435D01*
X1765909Y1478076D01*
X1760118Y1480261D01*
X1753717Y1482039D01*
X1746605Y1483309D01*
X1738782Y1484122D01*
X1730248Y1484376D01*
G37*
G36*
X1993900Y1683766D02*
G01*
X1993900Y1635760D01*
X2007870Y1635760D01*
X2007870Y1668272D01*
X2048510Y1668272D01*
X2052421Y1662836D01*
X2055418Y1655978D01*
X2057247Y1648104D01*
X2057907Y1639824D01*
X2057603Y1633931D01*
X2056790Y1628394D01*
X2055418Y1623161D01*
X2053539Y1618335D01*
X2051151Y1613814D01*
X2048256Y1609648D01*
X2044903Y1605889D01*
X2041042Y1602435D01*
X2036775Y1599438D01*
X2032050Y1596745D01*
X2026920Y1594510D01*
X2021382Y1592630D01*
X2015439Y1591157D01*
X2009139Y1590141D01*
X2002434Y1589481D01*
X1995424Y1589278D01*
X1988413Y1589532D01*
X1981758Y1590192D01*
X1975459Y1591310D01*
X1969566Y1592834D01*
X1964029Y1594815D01*
X1958949Y1597152D01*
X1954275Y1599895D01*
X1950059Y1603044D01*
X1946249Y1606499D01*
X1942947Y1610309D01*
X1940102Y1614474D01*
X1937715Y1618945D01*
X1935886Y1623771D01*
X1934514Y1628851D01*
X1933702Y1634185D01*
X1933448Y1639824D01*
X1934565Y1650441D01*
X1937613Y1659229D01*
X1942134Y1666544D01*
X1947672Y1672589D01*
X1936750Y1681988D01*
X1933498Y1678533D01*
X1930298Y1674622D01*
X1927250Y1670202D01*
X1924507Y1665274D01*
X1922170Y1659737D01*
X1920341Y1653641D01*
X1919122Y1646936D01*
X1918716Y1639570D01*
X1918919Y1633728D01*
X1919579Y1628089D01*
X1920646Y1622653D01*
X1922119Y1617421D01*
X1924050Y1612392D01*
X1926336Y1607616D01*
X1928977Y1603044D01*
X1932076Y1598777D01*
X1935480Y1594764D01*
X1939289Y1591005D01*
X1943455Y1587601D01*
X1947976Y1584452D01*
X1952802Y1581658D01*
X1957984Y1579168D01*
X1963521Y1577035D01*
X1969312Y1575257D01*
X1975459Y1573834D01*
X1981911Y1572818D01*
X1988667Y1572209D01*
X1995678Y1572006D01*
X2002789Y1572209D01*
X2009546Y1572818D01*
X2016048Y1573784D01*
X2022195Y1575155D01*
X2028037Y1576882D01*
X2033574Y1578965D01*
X2038756Y1581404D01*
X2043633Y1584147D01*
X2048103Y1587195D01*
X2052269Y1590598D01*
X2056028Y1594256D01*
X2059432Y1598168D01*
X2062480Y1602384D01*
X2065121Y1606854D01*
X2067407Y1611528D01*
X2069287Y1616506D01*
X2070709Y1621637D01*
X2071776Y1627022D01*
X2072436Y1632559D01*
X2072639Y1638300D01*
X2072335Y1645564D01*
X2071370Y1652422D01*
X2069846Y1658924D01*
X2067864Y1664919D01*
X2065375Y1670456D01*
X2062480Y1675485D01*
X2059178Y1679905D01*
X2055622Y1683766D01*
G37*
G36*
X1995170Y1548130D02*
G01*
X1988210Y1547926D01*
X1981504Y1547368D01*
X1975104Y1546402D01*
X1968957Y1545132D01*
X1963166Y1543456D01*
X1957730Y1541475D01*
X1952548Y1539189D01*
X1947722Y1536547D01*
X1943252Y1533652D01*
X1939137Y1530451D01*
X1935378Y1526946D01*
X1931924Y1523238D01*
X1928926Y1519224D01*
X1926234Y1515008D01*
X1923999Y1510538D01*
X1922119Y1505813D01*
X1920646Y1500936D01*
X1919579Y1495856D01*
X1918919Y1490573D01*
X1918716Y1485138D01*
X1933448Y1485138D01*
X1933702Y1490218D01*
X1934514Y1495044D01*
X1935886Y1499616D01*
X1937715Y1503984D01*
X1940102Y1507998D01*
X1942947Y1511757D01*
X1946249Y1515211D01*
X1950008Y1518361D01*
X1954225Y1521206D01*
X1958898Y1523695D01*
X1963978Y1525828D01*
X1969465Y1527606D01*
X1975307Y1529029D01*
X1981555Y1530045D01*
X1988210Y1530654D01*
X1995170Y1530858D01*
X2002129Y1530654D01*
X2008784Y1530045D01*
X2015083Y1529029D01*
X2021027Y1527606D01*
X2026615Y1525828D01*
X2031746Y1523695D01*
X2036521Y1521206D01*
X2040839Y1518361D01*
X2044700Y1515211D01*
X2048103Y1511757D01*
X2051050Y1507998D01*
X2053488Y1503984D01*
X2055368Y1499616D01*
X2056790Y1495044D01*
X2057603Y1490218D01*
X2057907Y1485138D01*
X2057603Y1480108D01*
X2056790Y1475333D01*
X2055368Y1470761D01*
X2053488Y1466443D01*
X2051050Y1462430D01*
X2048103Y1458722D01*
X2044700Y1455267D01*
X2040839Y1452118D01*
X2036521Y1449324D01*
X2031746Y1446834D01*
X2026615Y1444701D01*
X2021027Y1442923D01*
X2015083Y1441500D01*
X2008784Y1440484D01*
X2002129Y1439875D01*
X1995170Y1439672D01*
X1988210Y1439875D01*
X1981555Y1440484D01*
X1975307Y1441500D01*
X1969465Y1442923D01*
X1963978Y1444701D01*
X1958898Y1446834D01*
X1954225Y1449324D01*
X1950008Y1452118D01*
X1946249Y1455267D01*
X1942947Y1458722D01*
X1940102Y1462430D01*
X1937715Y1466443D01*
X1935886Y1470761D01*
X1934514Y1475333D01*
X1933702Y1480108D01*
X1933448Y1485138D01*
X1918716Y1485138D01*
X1918919Y1479702D01*
X1919579Y1474419D01*
X1920646Y1469339D01*
X1922119Y1464462D01*
X1923999Y1459788D01*
X1926234Y1455369D01*
X1928926Y1451102D01*
X1931924Y1447139D01*
X1935378Y1443431D01*
X1939137Y1439976D01*
X1943252Y1436776D01*
X1947722Y1433880D01*
X1952548Y1431290D01*
X1957730Y1429004D01*
X1963166Y1427022D01*
X1968957Y1425397D01*
X1975104Y1424076D01*
X1981504Y1423162D01*
X1988210Y1422603D01*
X1995170Y1422400D01*
X2002180Y1422603D01*
X2008886Y1423162D01*
X2015337Y1424076D01*
X2021484Y1425397D01*
X2027326Y1427022D01*
X2032863Y1429004D01*
X2038045Y1431290D01*
X2042972Y1433880D01*
X2047493Y1436776D01*
X2051710Y1439976D01*
X2055571Y1443431D01*
X2059025Y1447139D01*
X2062175Y1451102D01*
X2064867Y1455369D01*
X2067204Y1459788D01*
X2069134Y1464462D01*
X2070658Y1469339D01*
X2071776Y1474419D01*
X2072436Y1479702D01*
X2072639Y1485138D01*
X2072436Y1490573D01*
X2071776Y1495856D01*
X2070658Y1500936D01*
X2069134Y1505813D01*
X2067204Y1510538D01*
X2064867Y1515008D01*
X2062175Y1519224D01*
X2059025Y1523238D01*
X2055571Y1526946D01*
X2051710Y1530451D01*
X2047493Y1533652D01*
X2042972Y1536547D01*
X2038045Y1539189D01*
X2032863Y1541475D01*
X2027326Y1543456D01*
X2021484Y1545132D01*
X2015337Y1546402D01*
X2008886Y1547368D01*
X2002180Y1547926D01*
G37*
G36*
X2070100Y1404366D02*
G01*
X2004314Y1366012D01*
X2002942Y1371092D01*
X2001164Y1375816D01*
X1999030Y1380185D01*
X1996541Y1384249D01*
X1993696Y1387856D01*
X1990445Y1391107D01*
X1986788Y1393901D01*
X1982774Y1396238D01*
X1978355Y1398066D01*
X1973529Y1399438D01*
X1968296Y1400251D01*
X1962657Y1400556D01*
X1955444Y1400098D01*
X1948992Y1398879D01*
X1943354Y1396796D01*
X1938375Y1393952D01*
X1934108Y1390446D01*
X1930552Y1386230D01*
X1927555Y1381404D01*
X1925218Y1375968D01*
X1923440Y1370025D01*
X1922221Y1363522D01*
X1921510Y1356614D01*
X1921256Y1349248D01*
X1921256Y1320546D01*
X1934972Y1320546D01*
X1934972Y1346454D01*
X1935327Y1354988D01*
X1936445Y1362456D01*
X1938375Y1368856D01*
X1941220Y1374190D01*
X1944979Y1378356D01*
X1949754Y1381353D01*
X1955647Y1383182D01*
X1962657Y1383792D01*
X1969617Y1383182D01*
X1975612Y1381353D01*
X1980692Y1378356D01*
X1984806Y1374190D01*
X1988007Y1368856D01*
X1990293Y1362456D01*
X1991664Y1354988D01*
X1992122Y1346454D01*
X1992122Y1320546D01*
X1921256Y1320546D01*
X1921256Y1303528D01*
X2070100Y1303528D01*
X2070100Y1320546D01*
X2005838Y1320546D01*
X2005838Y1348232D01*
X2070100Y1385570D01*
G37*
G36*
X1964436Y1273048D02*
G01*
X1958695Y1272794D01*
X1953412Y1272032D01*
X1948586Y1270812D01*
X1944166Y1269085D01*
X1940255Y1266952D01*
X1936699Y1264361D01*
X1933600Y1261364D01*
X1930857Y1257960D01*
X1928469Y1254099D01*
X1926488Y1249934D01*
X1924812Y1245362D01*
X1923491Y1240485D01*
X1922475Y1235252D01*
X1921814Y1229664D01*
X1921408Y1223822D01*
X1921256Y1193292D01*
X1934972Y1193292D01*
X1935124Y1221689D01*
X1935581Y1227683D01*
X1936445Y1233119D01*
X1937664Y1237996D01*
X1939239Y1242263D01*
X1941322Y1246022D01*
X1943862Y1249121D01*
X1946859Y1251712D01*
X1950415Y1253693D01*
X1954479Y1255115D01*
X1959152Y1255979D01*
X1964436Y1256284D01*
X1969719Y1256030D01*
X1974443Y1255217D01*
X1978710Y1253845D01*
X1982470Y1251915D01*
X1985772Y1249426D01*
X1988616Y1246428D01*
X1990953Y1242822D01*
X1992884Y1238656D01*
X1994357Y1233881D01*
X1995373Y1228547D01*
X1995982Y1222654D01*
X1996186Y1216152D01*
X1996186Y1193292D01*
X1921256Y1193292D01*
X1921256Y1176528D01*
X2070100Y1176528D01*
X2070100Y1193292D01*
X2009902Y1193292D01*
X2009749Y1224483D01*
X2009241Y1230274D01*
X2008378Y1235760D01*
X2007158Y1240891D01*
X2005584Y1245717D01*
X2003704Y1250238D01*
X2001418Y1254353D01*
X1998776Y1258112D01*
X1995779Y1261516D01*
X1992426Y1264462D01*
X1988718Y1267053D01*
X1984603Y1269136D01*
X1980133Y1270812D01*
X1975307Y1272032D01*
X1970074Y1272794D01*
G37*
G36*
X2162556Y1622806D02*
G01*
X2162556Y1606804D01*
X2248814Y1606854D01*
X2272284Y1607921D01*
X2289556Y1609090D01*
X2289556Y1608074D01*
X2259076Y1592072D01*
X2162556Y1535684D01*
X2162556Y1518412D01*
X2311400Y1518412D01*
X2311400Y1534160D01*
X2224074Y1534109D01*
X2212644Y1533804D01*
X2184654Y1532128D01*
X2184654Y1533144D01*
X2215134Y1549400D01*
X2311400Y1605280D01*
X2311400Y1622806D01*
G37*
G36*
X2236470Y1485646D02*
G01*
X2229612Y1485493D01*
X2223058Y1484934D01*
X2216759Y1484071D01*
X2210816Y1482801D01*
X2205228Y1481226D01*
X2199894Y1479296D01*
X2194915Y1477010D01*
X2190242Y1474419D01*
X2185974Y1471422D01*
X2182012Y1468120D01*
X2178354Y1464462D01*
X2175103Y1460449D01*
X2172208Y1456131D01*
X2169668Y1451457D01*
X2167534Y1446428D01*
X2165756Y1441094D01*
X2164384Y1435404D01*
X2163368Y1429359D01*
X2162759Y1423009D01*
X2162556Y1416304D01*
X2162556Y1396492D01*
X2176526Y1396492D01*
X2176526Y1414780D01*
X2176780Y1421333D01*
X2177542Y1427429D01*
X2178812Y1433118D01*
X2180539Y1438351D01*
X2182774Y1443177D01*
X2185466Y1447596D01*
X2188616Y1451559D01*
X2192223Y1455115D01*
X2196287Y1458214D01*
X2200757Y1460906D01*
X2205685Y1463192D01*
X2211019Y1465072D01*
X2216810Y1466494D01*
X2222957Y1467561D01*
X2229510Y1468170D01*
X2236470Y1468374D01*
X2243378Y1468170D01*
X2249982Y1467561D01*
X2256180Y1466494D01*
X2262022Y1465072D01*
X2267458Y1463192D01*
X2272487Y1460906D01*
X2277110Y1458214D01*
X2281275Y1455115D01*
X2285034Y1451559D01*
X2288286Y1447596D01*
X2291130Y1443177D01*
X2293416Y1438351D01*
X2295296Y1433118D01*
X2296617Y1427429D01*
X2297430Y1421333D01*
X2297684Y1414780D01*
X2297684Y1396492D01*
X2162556Y1396492D01*
X2162556Y1379728D01*
X2311400Y1379728D01*
X2311400Y1416812D01*
X2311196Y1423416D01*
X2310587Y1429715D01*
X2309520Y1435709D01*
X2308098Y1441348D01*
X2306269Y1446631D01*
X2304034Y1451610D01*
X2301443Y1456283D01*
X2298496Y1460550D01*
X2295144Y1464564D01*
X2291486Y1468170D01*
X2287422Y1471472D01*
X2283053Y1474419D01*
X2278329Y1477060D01*
X2273249Y1479346D01*
X2267915Y1481226D01*
X2262225Y1482852D01*
X2256231Y1484071D01*
X2249932Y1484934D01*
X2243328Y1485493D01*
G37*
G36*
X2503170Y1637030D02*
G01*
X2496312Y1636877D01*
X2489758Y1636318D01*
X2483459Y1635455D01*
X2477516Y1634185D01*
X2471928Y1632610D01*
X2466594Y1630680D01*
X2461615Y1628394D01*
X2456942Y1625803D01*
X2452674Y1622806D01*
X2448712Y1619504D01*
X2445054Y1615846D01*
X2441803Y1611833D01*
X2438908Y1607515D01*
X2436368Y1602841D01*
X2434234Y1597812D01*
X2432456Y1592478D01*
X2431084Y1586788D01*
X2430068Y1580743D01*
X2429459Y1574393D01*
X2429256Y1567688D01*
X2429256Y1547876D01*
X2443226Y1547876D01*
X2443226Y1566164D01*
X2443480Y1572717D01*
X2444242Y1578813D01*
X2445512Y1584502D01*
X2447239Y1589735D01*
X2449474Y1594561D01*
X2452166Y1598980D01*
X2455316Y1602943D01*
X2458923Y1606499D01*
X2462987Y1609598D01*
X2467457Y1612290D01*
X2472385Y1614576D01*
X2477719Y1616456D01*
X2483510Y1617878D01*
X2489657Y1618945D01*
X2496210Y1619554D01*
X2503170Y1619758D01*
X2510078Y1619554D01*
X2516682Y1618945D01*
X2522880Y1617878D01*
X2528722Y1616456D01*
X2534158Y1614576D01*
X2539187Y1612290D01*
X2543810Y1609598D01*
X2547975Y1606499D01*
X2551734Y1602943D01*
X2554986Y1598980D01*
X2557830Y1594561D01*
X2560116Y1589735D01*
X2561996Y1584502D01*
X2563317Y1578813D01*
X2564130Y1572717D01*
X2564384Y1566164D01*
X2564384Y1547876D01*
X2429256Y1547876D01*
X2429256Y1531112D01*
X2578100Y1531112D01*
X2578100Y1568196D01*
X2577896Y1574800D01*
X2577287Y1581099D01*
X2576220Y1587093D01*
X2574798Y1592732D01*
X2572969Y1598015D01*
X2570734Y1602994D01*
X2568143Y1607667D01*
X2565196Y1611934D01*
X2561844Y1615948D01*
X2558186Y1619554D01*
X2554122Y1622856D01*
X2549753Y1625803D01*
X2545029Y1628444D01*
X2539949Y1630730D01*
X2534615Y1632610D01*
X2528925Y1634236D01*
X2522931Y1635455D01*
X2516632Y1636318D01*
X2510028Y1636877D01*
G37*
G36*
X2563876Y1499362D02*
G01*
X2563876Y1429258D01*
X2506726Y1429258D01*
X2506726Y1486408D01*
X2492502Y1486408D01*
X2492502Y1429258D01*
X2443480Y1429258D01*
X2443480Y1497076D01*
X2429256Y1497076D01*
X2429256Y1412240D01*
X2578100Y1412240D01*
X2578100Y1499362D01*
G37*
G36*
X2563876Y1386078D02*
G01*
X2563876Y1320292D01*
X2429256Y1320292D01*
X2429256Y1303528D01*
X2578100Y1303528D01*
X2578100Y1386078D01*
G37*
G36*
X1358138Y2119884D02*
G01*
X1351686Y2119528D01*
X1345539Y2118563D01*
X1339799Y2116988D01*
X1334465Y2114854D01*
X1329588Y2112111D01*
X1325219Y2108911D01*
X1321409Y2105253D01*
X1318209Y2101138D01*
X1315618Y2096617D01*
X1313738Y2091740D01*
X1312570Y2086559D01*
X1312164Y2081022D01*
X1312926Y2073452D01*
X1314958Y2066848D01*
X1318107Y2061159D01*
X1322171Y2056282D01*
X1326845Y2052116D01*
X1331976Y2048611D01*
X1337310Y2045665D01*
X1363980Y2033778D01*
X1373936Y2029053D01*
X1378254Y2026513D01*
X1382014Y2023668D01*
X1385112Y2020366D01*
X1387398Y2016506D01*
X1388872Y2011883D01*
X1389380Y2006346D01*
X1388821Y2000859D01*
X1387144Y1995932D01*
X1384452Y1991512D01*
X1380744Y1987804D01*
X1376070Y1984806D01*
X1370533Y1982571D01*
X1364081Y1981149D01*
X1356868Y1980692D01*
X1350924Y1981047D01*
X1345133Y1982012D01*
X1339443Y1983638D01*
X1334058Y1985822D01*
X1328877Y1988515D01*
X1323949Y1991715D01*
X1319428Y1995424D01*
X1315212Y1999488D01*
X1305052Y1988057D01*
X1310030Y1983181D01*
X1315516Y1978812D01*
X1321409Y1975053D01*
X1327708Y1971852D01*
X1334363Y1969312D01*
X1341424Y1967484D01*
X1348841Y1966366D01*
X1356614Y1965960D01*
X1364030Y1966315D01*
X1370990Y1967433D01*
X1377391Y1969160D01*
X1383233Y1971548D01*
X1388516Y1974545D01*
X1393139Y1978050D01*
X1397152Y1982012D01*
X1400505Y1986432D01*
X1403146Y1991258D01*
X1405077Y1996439D01*
X1406245Y2001875D01*
X1406652Y2007616D01*
X1406042Y2015337D01*
X1404213Y2022093D01*
X1401318Y2027936D01*
X1397558Y2032965D01*
X1392936Y2037283D01*
X1387703Y2041042D01*
X1381861Y2044344D01*
X1375664Y2047239D01*
X1349756Y2058314D01*
X1345387Y2060448D01*
X1341272Y2062784D01*
X1337462Y2065528D01*
X1334211Y2068728D01*
X1331671Y2072538D01*
X1330045Y2077008D01*
X1329436Y2082292D01*
X1329944Y2087270D01*
X1331468Y2091740D01*
X1333957Y2095652D01*
X1337310Y2098954D01*
X1341475Y2101596D01*
X1346352Y2103526D01*
X1351940Y2104745D01*
X1358138Y2105152D01*
X1363319Y2104898D01*
X1368196Y2104136D01*
X1372819Y2102916D01*
X1377188Y2101291D01*
X1381302Y2099208D01*
X1385214Y2096770D01*
X1388922Y2094026D01*
X1392428Y2090928D01*
X1401572Y2101596D01*
X1397508Y2105456D01*
X1393037Y2108962D01*
X1388110Y2112060D01*
X1382826Y2114753D01*
X1377137Y2116886D01*
X1371092Y2118512D01*
X1364742Y2119528D01*
G37*
G36*
X606806Y2119884D02*
G01*
X601370Y2119680D01*
X596087Y2119020D01*
X591007Y2117953D01*
X586130Y2116480D01*
X581456Y2114600D01*
X577037Y2112365D01*
X572770Y2109673D01*
X568807Y2106676D01*
X565099Y2103221D01*
X561644Y2099462D01*
X558444Y2095347D01*
X555548Y2090877D01*
X552958Y2086051D01*
X550672Y2080869D01*
X548690Y2075434D01*
X547065Y2069642D01*
X545744Y2063496D01*
X544830Y2057095D01*
X544271Y2050389D01*
X544068Y2043430D01*
X561340Y2043430D01*
X561543Y2050389D01*
X562152Y2057044D01*
X563168Y2063292D01*
X564591Y2069134D01*
X566369Y2074621D01*
X568502Y2079701D01*
X570992Y2084374D01*
X573786Y2088591D01*
X576935Y2092350D01*
X580390Y2095652D01*
X584098Y2098497D01*
X588111Y2100884D01*
X592429Y2102713D01*
X597001Y2104085D01*
X601776Y2104898D01*
X606806Y2105152D01*
X611886Y2104898D01*
X616712Y2104085D01*
X621284Y2102713D01*
X625652Y2100884D01*
X629666Y2098497D01*
X633425Y2095652D01*
X636879Y2092350D01*
X640029Y2088591D01*
X642874Y2084374D01*
X645363Y2079701D01*
X647496Y2074621D01*
X649274Y2069134D01*
X650697Y2063292D01*
X651713Y2057044D01*
X652322Y2050389D01*
X652526Y2043430D01*
X652322Y2036470D01*
X651713Y2029815D01*
X650697Y2023516D01*
X649274Y2017572D01*
X647496Y2011984D01*
X645363Y2006854D01*
X642874Y2002078D01*
X640029Y1997760D01*
X636879Y1993900D01*
X633425Y1990496D01*
X629666Y1987550D01*
X625652Y1985162D01*
X621284Y1983232D01*
X616712Y1981809D01*
X611886Y1980996D01*
X606806Y1980692D01*
X601776Y1980996D01*
X597001Y1981809D01*
X592429Y1983232D01*
X588111Y1985162D01*
X584098Y1987550D01*
X580390Y1990496D01*
X576935Y1993900D01*
X573786Y1997760D01*
X570992Y2002078D01*
X568502Y2006854D01*
X566369Y2011984D01*
X564591Y2017572D01*
X563168Y2023516D01*
X562152Y2029815D01*
X561543Y2036470D01*
X561340Y2043430D01*
X544068Y2043430D01*
X544271Y2036419D01*
X544830Y2029714D01*
X545744Y2023262D01*
X547065Y2017115D01*
X548690Y2011273D01*
X550672Y2005736D01*
X552958Y2000554D01*
X555548Y1995627D01*
X558444Y1991106D01*
X561644Y1986889D01*
X565099Y1983028D01*
X568807Y1979574D01*
X572770Y1976424D01*
X577037Y1973732D01*
X581456Y1971395D01*
X586130Y1969465D01*
X591007Y1967941D01*
X596087Y1966823D01*
X601370Y1966163D01*
X606806Y1965960D01*
X612241Y1966163D01*
X617524Y1966823D01*
X622604Y1967941D01*
X627481Y1969465D01*
X632206Y1971395D01*
X636676Y1973732D01*
X640892Y1976424D01*
X644906Y1979574D01*
X648614Y1983028D01*
X652119Y1986889D01*
X655320Y1991106D01*
X658215Y1995627D01*
X660857Y2000554D01*
X663143Y2005736D01*
X665124Y2011273D01*
X666800Y2017115D01*
X668070Y2023262D01*
X669036Y2029714D01*
X669594Y2036419D01*
X669798Y2043430D01*
X669594Y2050389D01*
X669036Y2057095D01*
X668070Y2063496D01*
X666800Y2069642D01*
X665124Y2075434D01*
X663143Y2080869D01*
X660857Y2086051D01*
X658215Y2090877D01*
X655320Y2095347D01*
X652119Y2099462D01*
X648614Y2103221D01*
X644906Y2106676D01*
X640892Y2109673D01*
X636676Y2112365D01*
X632206Y2114600D01*
X627481Y2116480D01*
X622604Y2117953D01*
X617524Y2119020D01*
X612241Y2119680D01*
G37*
G36*
X113792Y2119884D02*
G01*
X107340Y2119528D01*
X101193Y2118563D01*
X95453Y2116988D01*
X90119Y2114854D01*
X85242Y2112111D01*
X80873Y2108911D01*
X77063Y2105253D01*
X73863Y2101138D01*
X71272Y2096617D01*
X69392Y2091740D01*
X68224Y2086559D01*
X67818Y2081022D01*
X68529Y2073452D01*
X70612Y2066848D01*
X73761Y2061159D01*
X77774Y2056282D01*
X82448Y2052116D01*
X87528Y2048611D01*
X92811Y2045665D01*
X98044Y2043175D01*
X124815Y2031441D01*
X129590Y2029053D01*
X133908Y2026513D01*
X137668Y2023668D01*
X140766Y2020366D01*
X143052Y2016506D01*
X144526Y2011883D01*
X145034Y2006346D01*
X144475Y2000859D01*
X142748Y1995932D01*
X140004Y1991512D01*
X136245Y1987804D01*
X131572Y1984806D01*
X125983Y1982571D01*
X119532Y1981149D01*
X112268Y1980692D01*
X106426Y1981047D01*
X100634Y1982012D01*
X95046Y1983638D01*
X89611Y1985822D01*
X84429Y1988515D01*
X79502Y1991715D01*
X74879Y1995424D01*
X70612Y1999488D01*
X60452Y1988057D01*
X65532Y1983181D01*
X71018Y1978812D01*
X76911Y1975053D01*
X83210Y1971852D01*
X89916Y1969312D01*
X96977Y1967484D01*
X104444Y1966366D01*
X112268Y1965960D01*
X119633Y1966315D01*
X126542Y1967433D01*
X132892Y1969160D01*
X138734Y1971548D01*
X143967Y1974545D01*
X148590Y1978050D01*
X152603Y1982012D01*
X155905Y1986432D01*
X158546Y1991258D01*
X160477Y1996439D01*
X161645Y2001875D01*
X162052Y2007616D01*
X161442Y2015337D01*
X159664Y2022093D01*
X156819Y2027936D01*
X153060Y2032965D01*
X148539Y2037283D01*
X143306Y2041042D01*
X137515Y2044344D01*
X131318Y2047239D01*
X105359Y2058314D01*
X96824Y2062784D01*
X93014Y2065528D01*
X89712Y2068728D01*
X87122Y2072538D01*
X85445Y2077008D01*
X84836Y2082292D01*
X85394Y2087270D01*
X86918Y2091740D01*
X89458Y2095652D01*
X92862Y2098954D01*
X97028Y2101596D01*
X102006Y2103526D01*
X107594Y2104745D01*
X113792Y2105152D01*
X118973Y2104898D01*
X123850Y2104136D01*
X128473Y2102916D01*
X132842Y2101291D01*
X136956Y2099208D01*
X140868Y2096770D01*
X144576Y2094026D01*
X148082Y2090928D01*
X156972Y2101596D01*
X152908Y2105456D01*
X148437Y2108962D01*
X143510Y2112060D01*
X138226Y2114753D01*
X132588Y2116886D01*
X126593Y2118512D01*
X120345Y2119528D01*
G37*
G36*
X1190244Y2117344D02*
G01*
X1190244Y2103120D01*
X1235710Y2103120D01*
X1235710Y1968500D01*
X1252728Y1968500D01*
X1252728Y2103120D01*
X1298194Y2103120D01*
X1298194Y2117344D01*
G37*
G36*
X1146302Y2117344D02*
G01*
X1146302Y1968500D01*
X1163066Y1968500D01*
X1163066Y2117344D01*
G37*
G36*
X982980Y2117344D02*
G01*
X982980Y1968500D01*
X998219Y1968500D01*
X998169Y2059330D01*
X997153Y2081530D01*
X996187Y2097532D01*
X996950Y2097532D01*
X1008634Y2063750D01*
X1037844Y1983739D01*
X1049528Y1983739D01*
X1078484Y2063750D01*
X1090422Y2097532D01*
X1091184Y2097532D01*
X1089355Y2064613D01*
X1089152Y2054352D01*
X1089152Y1968500D01*
X1104900Y1968500D01*
X1104900Y2117344D01*
X1084072Y2117344D01*
X1055116Y2036064D01*
X1044702Y2004314D01*
X1043686Y2004314D01*
X1032764Y2036064D01*
X1003553Y2117344D01*
G37*
G36*
X924560Y2117344D02*
G01*
X924560Y1968500D01*
X941324Y1968500D01*
X941324Y2117344D01*
G37*
G36*
X815594Y2117344D02*
G01*
X815594Y1968500D01*
X898398Y1968500D01*
X898398Y1982724D01*
X832612Y1982724D01*
X832612Y2117344D01*
G37*
G36*
X419354Y2117344D02*
G01*
X467106Y1968500D01*
X486409Y1968500D01*
X533908Y2117344D01*
X516890Y2117344D01*
X477520Y1986025D01*
X476758Y1986025D01*
X469188Y2010511D01*
X462026Y2035048D01*
X437134Y2117344D01*
G37*
G36*
X310388Y2117344D02*
G01*
X310388Y2103628D01*
X353314Y2103628D01*
X361848Y2103272D01*
X369316Y2102154D01*
X375716Y2100224D01*
X381050Y2097430D01*
X385216Y2093620D01*
X388213Y2088845D01*
X390042Y2082952D01*
X390652Y2075942D01*
X390042Y2068982D01*
X388213Y2062988D01*
X385216Y2057907D01*
X381050Y2053793D01*
X375716Y2050592D01*
X369316Y2048306D01*
X361848Y2046935D01*
X353314Y2046478D01*
X327406Y2046478D01*
X327406Y2103628D01*
X310388Y2103628D01*
X310388Y1968500D01*
X327406Y1968500D01*
X327406Y2032762D01*
X355092Y2032762D01*
X392430Y1968500D01*
X411226Y1968500D01*
X372872Y2034286D01*
X377952Y2035657D01*
X382676Y2037435D01*
X387045Y2039569D01*
X391109Y2042058D01*
X394716Y2044903D01*
X397967Y2048154D01*
X400761Y2051812D01*
X403098Y2055825D01*
X404926Y2060244D01*
X406298Y2065070D01*
X407111Y2070303D01*
X407416Y2075942D01*
X406958Y2083155D01*
X405739Y2089607D01*
X403656Y2095246D01*
X400812Y2100224D01*
X397306Y2104491D01*
X393090Y2108047D01*
X388264Y2111044D01*
X382828Y2113381D01*
X376885Y2115159D01*
X370382Y2116378D01*
X363474Y2117090D01*
X356108Y2117344D01*
G37*
G36*
X191770Y2117344D02*
G01*
X191770Y1968500D01*
X278892Y1968500D01*
X278892Y1982724D01*
X208788Y1982724D01*
X208788Y2039874D01*
X265684Y2039874D01*
X265684Y2054098D01*
X208788Y2054098D01*
X208788Y2103120D01*
X276606Y2103120D01*
X276606Y2117344D01*
G37*
G36*
X684276Y1951989D02*
G01*
X684276Y1940560D01*
X792226Y1940560D01*
X792226Y1951989D01*
G37*
G36*
X257048Y1891284D02*
G01*
X250596Y1890928D01*
X244449Y1889963D01*
X238709Y1888388D01*
X233375Y1886254D01*
X228498Y1883511D01*
X224180Y1880311D01*
X220319Y1876653D01*
X217119Y1872538D01*
X214528Y1868017D01*
X212648Y1863140D01*
X211480Y1857959D01*
X211074Y1852422D01*
X211785Y1844852D01*
X213867Y1838248D01*
X217017Y1832559D01*
X221030Y1827682D01*
X225704Y1823516D01*
X230784Y1820011D01*
X236067Y1817065D01*
X241300Y1814575D01*
X268071Y1802841D01*
X272846Y1800453D01*
X277164Y1797913D01*
X280924Y1795068D01*
X284022Y1791766D01*
X286308Y1787906D01*
X287782Y1783283D01*
X288290Y1777746D01*
X287731Y1772259D01*
X286004Y1767332D01*
X283260Y1762912D01*
X279552Y1759204D01*
X274828Y1756206D01*
X269240Y1753971D01*
X262788Y1752549D01*
X255524Y1752092D01*
X249682Y1752447D01*
X243890Y1753412D01*
X238302Y1755038D01*
X232867Y1757222D01*
X227685Y1759915D01*
X222758Y1763115D01*
X218135Y1766824D01*
X213867Y1770888D01*
X203708Y1759457D01*
X208788Y1754581D01*
X214274Y1750212D01*
X220167Y1746453D01*
X226466Y1743252D01*
X233171Y1740712D01*
X240233Y1738884D01*
X247700Y1737766D01*
X255524Y1737360D01*
X262890Y1737715D01*
X269798Y1738833D01*
X276148Y1740560D01*
X281990Y1742948D01*
X287223Y1745945D01*
X291846Y1749450D01*
X295859Y1753412D01*
X299161Y1757832D01*
X301802Y1762658D01*
X303733Y1767839D01*
X304901Y1773275D01*
X305308Y1779016D01*
X304698Y1786737D01*
X302920Y1793493D01*
X300075Y1799336D01*
X296316Y1804365D01*
X291795Y1808683D01*
X286562Y1812442D01*
X280771Y1815744D01*
X274574Y1818639D01*
X248615Y1829714D01*
X240080Y1834184D01*
X236270Y1836928D01*
X232968Y1840128D01*
X230378Y1843938D01*
X228701Y1848408D01*
X228092Y1853692D01*
X228650Y1858670D01*
X230174Y1863140D01*
X232714Y1867052D01*
X236067Y1870354D01*
X240284Y1872996D01*
X245211Y1874926D01*
X250850Y1876145D01*
X257048Y1876552D01*
X262229Y1876298D01*
X267106Y1875536D01*
X271729Y1874316D01*
X276098Y1872691D01*
X280212Y1870608D01*
X284124Y1868170D01*
X287832Y1865426D01*
X291338Y1862328D01*
X300228Y1872996D01*
X296164Y1876856D01*
X291693Y1880362D01*
X286766Y1883460D01*
X281482Y1886153D01*
X275844Y1888286D01*
X269849Y1889912D01*
X263601Y1890928D01*
G37*
G36*
X821436Y1888743D02*
G01*
X815340Y1885391D01*
X808329Y1882597D01*
X800455Y1880362D01*
X791464Y1878584D01*
X791464Y1867662D01*
X817625Y1867662D01*
X817625Y1753616D01*
X784352Y1753616D01*
X784352Y1739900D01*
X864362Y1739900D01*
X864362Y1753616D01*
X834136Y1753616D01*
X834136Y1888743D01*
G37*
G36*
X651510Y1888743D02*
G01*
X699262Y1739900D01*
X718566Y1739900D01*
X766064Y1888743D01*
X749046Y1888743D01*
X709676Y1757425D01*
X708660Y1757425D01*
X694182Y1806448D01*
X669036Y1888743D01*
G37*
G36*
X453643Y1888743D02*
G01*
X453643Y1875028D01*
X496570Y1875028D01*
X505104Y1874672D01*
X512572Y1873554D01*
X518972Y1871624D01*
X524306Y1868830D01*
X528472Y1865020D01*
X531469Y1860245D01*
X533298Y1854352D01*
X533908Y1847342D01*
X533298Y1840382D01*
X531469Y1834388D01*
X528472Y1829307D01*
X524306Y1825193D01*
X518972Y1821992D01*
X512572Y1819706D01*
X505104Y1818335D01*
X496570Y1817878D01*
X470662Y1817878D01*
X470662Y1875028D01*
X453643Y1875028D01*
X453643Y1739900D01*
X470662Y1739900D01*
X470662Y1804162D01*
X498348Y1804162D01*
X535686Y1739900D01*
X554482Y1739900D01*
X516128Y1805686D01*
X521208Y1807057D01*
X525932Y1808835D01*
X530301Y1810969D01*
X534365Y1813458D01*
X537972Y1816303D01*
X541223Y1819554D01*
X544017Y1823212D01*
X546354Y1827225D01*
X548182Y1831644D01*
X549554Y1836470D01*
X550367Y1841703D01*
X550672Y1847342D01*
X550214Y1854555D01*
X548995Y1861007D01*
X546912Y1866646D01*
X544068Y1871624D01*
X540562Y1875891D01*
X536346Y1879447D01*
X531520Y1882444D01*
X526084Y1884781D01*
X520141Y1886559D01*
X513638Y1887778D01*
X506730Y1888489D01*
X499364Y1888743D01*
G37*
G36*
X335026Y1888743D02*
G01*
X335026Y1739900D01*
X422148Y1739900D01*
X422148Y1754124D01*
X352044Y1754124D01*
X352044Y1811274D01*
X408940Y1811274D01*
X408940Y1825498D01*
X352044Y1825498D01*
X352044Y1874520D01*
X419862Y1874520D01*
X419862Y1888743D01*
G37*
G36*
X70866Y1888743D02*
G01*
X70866Y1800352D01*
X71120Y1791817D01*
X71932Y1783994D01*
X73202Y1776882D01*
X74980Y1770481D01*
X77165Y1764690D01*
X79806Y1759559D01*
X82804Y1754987D01*
X86207Y1751025D01*
X89916Y1747621D01*
X93980Y1744776D01*
X98298Y1742389D01*
X102920Y1740509D01*
X107746Y1739087D01*
X112776Y1738122D01*
X118059Y1737563D01*
X123444Y1737360D01*
X128879Y1737563D01*
X134162Y1738122D01*
X139242Y1739087D01*
X144119Y1740509D01*
X148742Y1742389D01*
X153111Y1744776D01*
X157175Y1747621D01*
X160883Y1751025D01*
X164287Y1754987D01*
X167335Y1759559D01*
X169976Y1764690D01*
X172161Y1770481D01*
X173939Y1776882D01*
X175209Y1783994D01*
X176022Y1791817D01*
X176276Y1800352D01*
X176276Y1888743D01*
X160020Y1888743D01*
X160020Y1800098D01*
X159664Y1791462D01*
X158699Y1783842D01*
X157175Y1777187D01*
X155041Y1771396D01*
X152450Y1766468D01*
X149352Y1762353D01*
X145846Y1759051D01*
X141935Y1756410D01*
X137718Y1754428D01*
X133197Y1753107D01*
X128422Y1752346D01*
X123444Y1752092D01*
X118618Y1752346D01*
X113995Y1753107D01*
X109626Y1754428D01*
X105511Y1756410D01*
X101752Y1759051D01*
X98348Y1762353D01*
X95300Y1766468D01*
X92760Y1771396D01*
X90678Y1777187D01*
X89154Y1783842D01*
X88188Y1791462D01*
X87884Y1800098D01*
X87884Y1888743D01*
G37*
G36*
X853694Y1677162D02*
G01*
X843534Y1672336D01*
X846734Y1666849D01*
X852474Y1655521D01*
X857351Y1643786D01*
X861466Y1631696D01*
X864717Y1619250D01*
X867156Y1606600D01*
X868781Y1593799D01*
X869594Y1580794D01*
X869594Y1567789D01*
X868781Y1554784D01*
X867156Y1541983D01*
X864717Y1529334D01*
X861466Y1516888D01*
X857351Y1504797D01*
X852474Y1493062D01*
X846734Y1481734D01*
X843534Y1476248D01*
X853694Y1471422D01*
X860298Y1482852D01*
X866140Y1494586D01*
X871219Y1506677D01*
X873506Y1512874D01*
X877316Y1525524D01*
X880262Y1538732D01*
X881380Y1545539D01*
X882903Y1559610D01*
X883412Y1574292D01*
X882903Y1588922D01*
X881380Y1602943D01*
X880262Y1609750D01*
X877316Y1622907D01*
X873506Y1635658D01*
X868781Y1647952D01*
X863346Y1659839D01*
X857097Y1671472D01*
G37*
G36*
X99568Y1677162D02*
G01*
X92862Y1665681D01*
X86969Y1653946D01*
X84277Y1647952D01*
X79552Y1635658D01*
X75692Y1622907D01*
X72745Y1609750D01*
X71628Y1602943D01*
X70104Y1588922D01*
X69596Y1574292D01*
X70104Y1559610D01*
X71628Y1545539D01*
X72745Y1538732D01*
X75692Y1525524D01*
X79552Y1512874D01*
X84277Y1500581D01*
X89814Y1488694D01*
X96113Y1477111D01*
X99568Y1471422D01*
X109728Y1476248D01*
X106527Y1481734D01*
X100787Y1493062D01*
X95910Y1504797D01*
X91795Y1516888D01*
X88544Y1529334D01*
X86106Y1541983D01*
X84480Y1554784D01*
X83667Y1567789D01*
X83667Y1580794D01*
X84480Y1593799D01*
X86106Y1606600D01*
X88544Y1619250D01*
X91795Y1631696D01*
X95910Y1643786D01*
X100787Y1655521D01*
X106527Y1666849D01*
X109728Y1672336D01*
G37*
G36*
X597408Y1672336D02*
G01*
X534670Y1475232D01*
X546862Y1475232D01*
X609600Y1672336D01*
G37*
G36*
X294640Y1672336D02*
G01*
X231902Y1475232D01*
X244094Y1475232D01*
X306832Y1672336D01*
G37*
G36*
X663448Y1662684D02*
G01*
X656742Y1662277D01*
X650544Y1661109D01*
X644804Y1659229D01*
X639368Y1656689D01*
X634288Y1653539D01*
X629462Y1649831D01*
X624789Y1645564D01*
X620268Y1640839D01*
X629920Y1631696D01*
X633272Y1635302D01*
X636778Y1638604D01*
X640486Y1641602D01*
X644347Y1644192D01*
X648411Y1646275D01*
X652678Y1647901D01*
X657098Y1648866D01*
X661670Y1649222D01*
X668426Y1648612D01*
X674217Y1646885D01*
X679094Y1644142D01*
X683006Y1640433D01*
X686054Y1635912D01*
X688187Y1630680D01*
X689457Y1624838D01*
X689864Y1618488D01*
X689711Y1614627D01*
X688441Y1606600D01*
X685850Y1598269D01*
X681888Y1589582D01*
X679399Y1585061D01*
X673404Y1575765D01*
X665937Y1565960D01*
X657047Y1555648D01*
X646633Y1544777D01*
X634746Y1533296D01*
X621284Y1521206D01*
X621284Y1511300D01*
X713232Y1511300D01*
X713232Y1525524D01*
X664667Y1525422D01*
X646176Y1524254D01*
X656691Y1534414D01*
X666343Y1544421D01*
X675132Y1554175D01*
X682955Y1563776D01*
X689762Y1573276D01*
X695502Y1582623D01*
X700024Y1591868D01*
X701852Y1596491D01*
X703376Y1601063D01*
X704545Y1605635D01*
X705408Y1610156D01*
X705967Y1614728D01*
X706120Y1619250D01*
X705764Y1625650D01*
X704799Y1631645D01*
X703173Y1637182D01*
X700938Y1642262D01*
X698093Y1646834D01*
X694690Y1650847D01*
X690727Y1654352D01*
X686257Y1657299D01*
X681278Y1659636D01*
X675792Y1661312D01*
X669848Y1662328D01*
G37*
G36*
X778764Y1660143D02*
G01*
X772668Y1656791D01*
X765657Y1653997D01*
X757783Y1651762D01*
X748792Y1649984D01*
X748792Y1639062D01*
X774954Y1639062D01*
X774954Y1525016D01*
X741680Y1525016D01*
X741680Y1511300D01*
X821690Y1511300D01*
X821690Y1525016D01*
X791464Y1525016D01*
X791464Y1660143D01*
G37*
G36*
X430784Y1660143D02*
G01*
X430784Y1645920D01*
X503682Y1645920D01*
X496773Y1635810D01*
X490575Y1625803D01*
X485089Y1615795D01*
X480263Y1605737D01*
X476097Y1595424D01*
X472490Y1584909D01*
X469493Y1573987D01*
X466953Y1562658D01*
X464972Y1550822D01*
X463397Y1538376D01*
X462280Y1525219D01*
X461518Y1511300D01*
X478790Y1511300D01*
X479450Y1525371D01*
X480415Y1538630D01*
X481685Y1551178D01*
X483412Y1563116D01*
X485648Y1574546D01*
X488492Y1585569D01*
X490118Y1591005D01*
X494030Y1601673D01*
X498703Y1612239D01*
X504291Y1622806D01*
X510895Y1633524D01*
X518515Y1644396D01*
X522732Y1649984D01*
X522732Y1660143D01*
G37*
G36*
X364490Y1660143D02*
G01*
X358394Y1656791D01*
X351434Y1653997D01*
X343509Y1651762D01*
X334518Y1649984D01*
X334518Y1639062D01*
X360680Y1639062D01*
X360680Y1525016D01*
X327406Y1525016D01*
X327406Y1511300D01*
X407416Y1511300D01*
X407416Y1525016D01*
X377190Y1525016D01*
X377190Y1660143D01*
G37*
G36*
X140462Y1660143D02*
G01*
X135636Y1591056D01*
X144780Y1585214D01*
X150977Y1589074D01*
X156921Y1591868D01*
X163118Y1593545D01*
X170180Y1594104D01*
X177088Y1593494D01*
X183286Y1591716D01*
X188722Y1588770D01*
X193294Y1584756D01*
X196951Y1579727D01*
X199694Y1573733D01*
X201371Y1566824D01*
X201930Y1559052D01*
X201269Y1551076D01*
X199339Y1543913D01*
X196342Y1537665D01*
X192328Y1532382D01*
X187452Y1528165D01*
X181914Y1525066D01*
X175768Y1523136D01*
X169164Y1522476D01*
X162915Y1522831D01*
X157175Y1523898D01*
X151993Y1525524D01*
X147269Y1527606D01*
X143002Y1530146D01*
X139039Y1532991D01*
X135432Y1536039D01*
X132080Y1539240D01*
X123698Y1528318D01*
X127609Y1524609D01*
X131978Y1521104D01*
X136804Y1517751D01*
X142240Y1514805D01*
X148285Y1512316D01*
X154990Y1510436D01*
X162458Y1509217D01*
X170688Y1508760D01*
X176784Y1509115D01*
X182778Y1510284D01*
X188569Y1512112D01*
X194106Y1514703D01*
X199237Y1518005D01*
X203911Y1521968D01*
X208127Y1526641D01*
X211734Y1531924D01*
X214680Y1537919D01*
X216865Y1544523D01*
X218236Y1551736D01*
X218694Y1559560D01*
X218287Y1567383D01*
X217119Y1574444D01*
X215188Y1580794D01*
X212598Y1586433D01*
X209397Y1591360D01*
X205638Y1595577D01*
X201320Y1599133D01*
X196596Y1602028D01*
X191465Y1604264D01*
X185978Y1605838D01*
X180238Y1606753D01*
X174244Y1607058D01*
X167640Y1606600D01*
X161696Y1605330D01*
X156210Y1603298D01*
X150876Y1600708D01*
X154940Y1645920D01*
X211582Y1645920D01*
X211582Y1660143D01*
G37*
D17*
X1676400Y306578D02*
G01*
X1676400Y112776D01*
X1676400Y306578D02*
G01*
X1759457Y306578D01*
X1787144Y297434D01*
X1796542Y288289D01*
X1805686Y269747D01*
X1805686Y242062D01*
X1796542Y223520D01*
X1787144Y214376D01*
X1759457Y204978D01*
X1676400Y204978D01*
X1866645Y306578D02*
G01*
X1866645Y112776D01*
X1866645Y306578D02*
G01*
X1949704Y306578D01*
X1977390Y297434D01*
X1986788Y288289D01*
X1995931Y269747D01*
X1995931Y251205D01*
X1986788Y232663D01*
X1977390Y223520D01*
X1949704Y214376D01*
X1866645Y214376D01*
X1931415Y214376D02*
G01*
X1995931Y112776D01*
X2112263Y306578D02*
G01*
X2093975Y297434D01*
X2075434Y278892D01*
X2066290Y260350D01*
X2056891Y232663D01*
X2056891Y186689D01*
X2066290Y158750D01*
X2075434Y140462D01*
X2093975Y121920D01*
X2112263Y112776D01*
X2149347Y112776D01*
X2167890Y121920D01*
X2186177Y140462D01*
X2195575Y158750D01*
X2204720Y186689D01*
X2204720Y232663D01*
X2195575Y260350D01*
X2186177Y278892D01*
X2167890Y297434D01*
X2149347Y306578D01*
X2112263Y306578D01*
X2404109Y260350D02*
G01*
X2394965Y278892D01*
X2376424Y297434D01*
X2358136Y306578D01*
X2321052Y306578D01*
X2302509Y297434D01*
X2284222Y278892D01*
X2274824Y260350D01*
X2265679Y232663D01*
X2265679Y186689D01*
X2274824Y158750D01*
X2284222Y140462D01*
X2302509Y121920D01*
X2321052Y112776D01*
X2358136Y112776D01*
X2376424Y121920D01*
X2394965Y140462D01*
X2404109Y158750D01*
X2404109Y186689D01*
X2358136Y186689D02*
G01*
X2404109Y186689D01*
X2654300Y306578D02*
G01*
X2654300Y112776D01*
X2654300Y306578D02*
G01*
X2719070Y306578D01*
X2746756Y297434D01*
X2765043Y278892D01*
X2774441Y260350D01*
X2783586Y232663D01*
X2783586Y186689D01*
X2774441Y158750D01*
X2765043Y140462D01*
X2746756Y121920D01*
X2719070Y112776D01*
X2654300Y112776D01*
X2899918Y306578D02*
G01*
X2881629Y297434D01*
X2863088Y278892D01*
X2853690Y260350D01*
X2844545Y232663D01*
X2844545Y186689D01*
X2853690Y158750D01*
X2863088Y140462D01*
X2881629Y121920D01*
X2899918Y112776D01*
X2937002Y112776D01*
X2955290Y121920D01*
X2973831Y140462D01*
X2983229Y158750D01*
X2992374Y186689D01*
X2992374Y232663D01*
X2983229Y260350D01*
X2973831Y278892D01*
X2955290Y297434D01*
X2937002Y306578D01*
X2899918Y306578D01*
X3053334Y306578D02*
G01*
X3099561Y112776D01*
X3145790Y306578D02*
G01*
X3099561Y112776D01*
X3145790Y306578D02*
G01*
X3191763Y112776D01*
X3237991Y306578D02*
G01*
X3191763Y112776D01*
X3298952Y306578D02*
G01*
X3298952Y112776D01*
X3298952Y306578D02*
G01*
X3428238Y112776D01*
X3428238Y306578D02*
G01*
X3428238Y112776D01*
X749300Y306578D02*
G01*
X749300Y168147D01*
X758444Y140462D01*
X776986Y121920D01*
X804671Y112776D01*
X823213Y112776D01*
X850900Y121920D01*
X869442Y140462D01*
X878586Y168147D01*
X878586Y306578D01*
X939545Y306578D02*
G01*
X939545Y112776D01*
X939545Y306578D02*
G01*
X1022604Y306578D01*
X1050289Y297434D01*
X1059687Y288289D01*
X1068831Y269747D01*
X1068831Y242062D01*
X1059687Y223520D01*
X1050289Y214376D01*
X1022604Y204978D01*
X939545Y204978D01*
D19*
X598678Y847344D02*
G01*
X588263Y836929D01*
X583184Y821436D01*
X583184Y800607D01*
X588263Y785113D01*
X598678Y774700D01*
X609092Y774700D01*
X619505Y779779D01*
X624839Y785113D01*
X629920Y795528D01*
X640334Y826770D01*
X645413Y836929D01*
X650747Y842263D01*
X661162Y847344D01*
X676655Y847344D01*
X687070Y836929D01*
X692150Y821436D01*
X692150Y800607D01*
X687070Y785113D01*
X676655Y774700D01*
X583184Y881634D02*
G01*
X692150Y907795D01*
X583184Y933704D02*
G01*
X692150Y907795D01*
X583184Y933704D02*
G01*
X692150Y959612D01*
X583184Y985520D02*
G01*
X692150Y959612D01*
X583184Y1030223D02*
G01*
X583184Y1087373D01*
X624839Y1056386D01*
X624839Y1071879D01*
X629920Y1082294D01*
X635000Y1087373D01*
X650747Y1092707D01*
X661162Y1092707D01*
X676655Y1087373D01*
X687070Y1076960D01*
X692150Y1061465D01*
X692150Y1045971D01*
X687070Y1030223D01*
X681989Y1025144D01*
X671576Y1019810D01*
X2554477Y847344D02*
G01*
X2544063Y836929D01*
X2538984Y821436D01*
X2538984Y800607D01*
X2544063Y785113D01*
X2554477Y774700D01*
X2564891Y774700D01*
X2575306Y779779D01*
X2580640Y785113D01*
X2585720Y795528D01*
X2596134Y826770D01*
X2601213Y836929D01*
X2606547Y842263D01*
X2616961Y847344D01*
X2632456Y847344D01*
X2642870Y836929D01*
X2647950Y821436D01*
X2647950Y800607D01*
X2642870Y785113D01*
X2632456Y774700D01*
X2538984Y881634D02*
G01*
X2647950Y907795D01*
X2538984Y933704D02*
G01*
X2647950Y907795D01*
X2538984Y933704D02*
G01*
X2647950Y959612D01*
X2538984Y985520D02*
G01*
X2647950Y959612D01*
X2559811Y1019810D02*
G01*
X2554477Y1030223D01*
X2538984Y1045971D01*
X2647950Y1045971D01*
X1576578Y847344D02*
G01*
X1566163Y836929D01*
X1561084Y821436D01*
X1561084Y800607D01*
X1566163Y785113D01*
X1576578Y774700D01*
X1586992Y774700D01*
X1597405Y779779D01*
X1602739Y785113D01*
X1607820Y795528D01*
X1618234Y826770D01*
X1623313Y836929D01*
X1628647Y842263D01*
X1639062Y847344D01*
X1654555Y847344D01*
X1664970Y836929D01*
X1670050Y821436D01*
X1670050Y800607D01*
X1664970Y785113D01*
X1654555Y774700D01*
X1561084Y881634D02*
G01*
X1670050Y907795D01*
X1561084Y933704D02*
G01*
X1670050Y907795D01*
X1561084Y933704D02*
G01*
X1670050Y959612D01*
X1561084Y985520D02*
G01*
X1670050Y959612D01*
X1586992Y1025144D02*
G01*
X1581912Y1025144D01*
X1571497Y1030223D01*
X1566163Y1035557D01*
X1561084Y1045971D01*
X1561084Y1066800D01*
X1566163Y1076960D01*
X1571497Y1082294D01*
X1581912Y1087373D01*
X1592326Y1087373D01*
X1602739Y1082294D01*
X1618234Y1071879D01*
X1670050Y1019810D01*
X1670050Y1092707D01*
X2033270Y2083815D02*
G01*
X2033270Y2000757D01*
X2027936Y1985010D01*
X2022856Y1979929D01*
X2012441Y1974850D01*
X2002027Y1974850D01*
X1991613Y1979929D01*
X1986279Y1985010D01*
X1981200Y2000757D01*
X1981200Y2011171D01*
X2067559Y2062987D02*
G01*
X2077720Y2068321D01*
X2093468Y2083815D01*
X2093468Y1974850D01*
X3162300Y1486915D02*
G01*
X3162300Y1377950D01*
X3162300Y1377950D02*
G01*
X3224529Y1377950D01*
X3258820Y1486915D02*
G01*
X3258820Y1377950D01*
X3258820Y1486915D02*
G01*
X3326384Y1486915D01*
X3258820Y1435100D02*
G01*
X3300475Y1435100D01*
X3258820Y1377950D02*
G01*
X3326384Y1377950D01*
X3360674Y1486915D02*
G01*
X3360674Y1377950D01*
X3360674Y1486915D02*
G01*
X3397250Y1486915D01*
X3412743Y1481836D01*
X3423158Y1471421D01*
X3428238Y1461007D01*
X3433572Y1445260D01*
X3433572Y1419352D01*
X3428238Y1403857D01*
X3423158Y1393444D01*
X3412743Y1383029D01*
X3397250Y1377950D01*
X3360674Y1377950D01*
X3467861Y1466087D02*
G01*
X3478275Y1471421D01*
X3493770Y1486915D01*
X3493770Y1377950D01*
D10*
X942055Y1130300D02*
G01*
X1166144Y1130300D01*
X749300Y555086D02*
G01*
X749300Y1045113D01*
X942055Y469900D02*
G01*
X1166144Y469900D01*
X1358900Y555086D02*
G01*
X1358900Y1045113D01*
X2897855Y1130300D02*
G01*
X3121944Y1130300D01*
X2705100Y555086D02*
G01*
X2705100Y1045113D01*
X2897855Y469900D02*
G01*
X3121944Y469900D01*
X3314700Y555086D02*
G01*
X3314700Y1045113D01*
X1919955Y1130300D02*
G01*
X2144044Y1130300D01*
X1727200Y555086D02*
G01*
X1727200Y1045113D01*
X1919955Y469900D02*
G01*
X2144044Y469900D01*
X2336800Y555086D02*
G01*
X2336800Y1045113D01*
D17*
X1536700Y1943100D02*
G01*
X1346200Y1943100D01*
X1346200Y1689100D01*
X2616200Y1689100D01*
X2616200Y1943100D01*
D18*
X2616200Y1943100D02*
G01*
X1536700Y1943100D01*
D10*
X3162300Y1790700D02*
G01*
X3213100Y1790700D01*
X3187700Y1765300D02*
G01*
X3187700Y1816100D01*
G75*
G01*
X3378200Y1625600D02*
G03*
X3378200Y1879600I-101599J127000D01*
G75*
G01*
X3162300Y1866900D02*
G03*
X3169209Y1631785I114301J-114300D01*
G75*
G01
X927100Y609600D02*
G03X927100Y609600I-50800J0D01*
G75*
G01
X1282700Y596900D02*
G03X1282700Y596900I-50800J0D01*
G75*
G01
X927100Y990600D02*
G03X927100Y990600I-50800J0D01*
G75*
G01
X1282700Y977900D02*
G03X1282700Y977900I-50800J0D01*
G75*
G01
X1168400Y800100D02*
G03X1168400Y800100I-114300J0D01*
G75*
G01
X1204214Y800100D02*
G03X1204214Y800100I-150114J0D01*
G75*
G01
X2882900Y609600D02*
G03X2882900Y609600I-50800J0D01*
G75*
G01
X3238500Y596900D02*
G03X3238500Y596900I-50800J0D01*
G75*
G01
X2882900Y990600D02*
G03X2882900Y990600I-50800J0D01*
G75*
G01
X3238500Y977900D02*
G03X3238500Y977900I-50800J0D01*
G75*
G01
X3124200Y800100D02*
G03X3124200Y800100I-114300J0D01*
G75*
G01
X3160014Y800100D02*
G03X3160014Y800100I-150114J0D01*
G75*
G01
X1905000Y609600D02*
G03X1905000Y609600I-50800J0D01*
G75*
G01
X2260600Y596900D02*
G03X2260600Y596900I-50800J0D01*
G75*
G01
X1905000Y990600D02*
G03X1905000Y990600I-50800J0D01*
G75*
G01
X2260600Y977900D02*
G03X2260600Y977900I-50800J0D01*
G75*
G01
X2146300Y800100D02*
G03X2146300Y800100I-114300J0D01*
G75*
G01
X2182114Y800100D02*
G03X2182114Y800100I-150114J0D01*
M02*
